<?xml version="1.0" encoding="UTF-8" ?>
<!DOCTYPE svg PUBLIC "-//W3C//DTD SVG 1.1//EN" "http://www.w3.org/Graphics/SVG/1.1/DTD/svg11.dtd">
<svg width="512pt" height="512pt" viewBox="0 0 512 512" version="1.1" xmlns="http://www.w3.org/2000/svg">
<g id="#a18461ff">
</g>
<g id="#a88c6bff">
</g>
<g id="#ae906fff">
</g>
<g id="#b49675ff">
</g>
<g id="#b79d7eff">
</g>
<g id="#b29677ff">
</g>
<g id="#af9070ff">
</g>
<g id="#a98a68ff">
</g>
<g id="#a2825eff">
</g>
<g id="#bca284ff">
</g>
<g id="#f9f7f5ff">
<path fill="#f9f7f5" opacity="1.00" d=" M 256.27 34.36 C 273.49 45.84 288.97 59.67 304.13 73.69 C 301.67 73.89 299.30 74.58 297.05 75.57 C 299.67 77.27 298.82 82.33 295.17 80.78 C 290.77 78.45 285.49 79.21 281.24 81.59 C 280.04 74.06 269.78 82.87 266.96 76.96 C 262.78 74.38 258.42 82.00 254.08 78.96 C 247.30 76.58 251.72 65.82 258.24 69.78 C 253.80 65.30 248.26 66.51 249.51 72.81 C 241.96 69.87 247.83 81.56 247.26 85.39 C 243.00 86.50 237.73 84.07 233.19 85.88 C 232.39 82.65 230.09 75.16 237.04 77.96 C 241.05 78.15 239.01 72.50 239.86 69.98 C 235.09 67.69 230.78 73.94 226.45 70.68 C 223.14 70.32 225.22 67.70 225.83 65.75 C 219.52 67.18 215.43 74.65 208.97 74.64 L 209.46 73.93 C 224.27 59.82 240.26 47.06 256.27 34.36 Z" />
</g>
<g id="#24201eff">
<path fill="#24201e" opacity="1.00" d=" M 42.83 62.31 C 49.66 54.62 60.88 57.18 69.90 57.01 C 79.67 58.58 89.40 60.93 99.25 61.83 C 114.86 65.57 130.69 68.82 146.72 69.97 C 150.37 70.64 154.03 71.09 157.75 71.23 C 160.87 71.59 164.02 71.93 167.17 71.91 C 167.59 71.95 168.41 72.05 168.83 72.09 C 171.93 72.62 175.08 73.02 178.23 72.82 C 180.07 72.96 181.92 73.07 183.77 73.23 C 191.83 74.80 200.14 73.00 208.17 74.59 C 173.35 107.94 140.11 142.86 105.81 176.77 C 98.81 183.73 91.71 190.58 84.92 197.74 C 75.70 204.73 68.65 214.25 58.81 220.48 C 60.28 212.17 60.38 203.69 59.73 195.29 C 59.95 191.09 59.91 186.88 59.32 182.72 C 59.15 181.18 58.97 179.64 58.81 178.10 C 58.65 176.55 58.34 173.45 58.19 171.91 C 56.43 154.98 52.79 138.28 48.87 121.74 C 48.53 118.74 47.80 115.80 47.13 112.86 C 44.28 99.29 40.19 85.91 39.31 71.99 C 40.04 68.64 40.66 65.09 42.83 62.31 M 79.71 94.26 C 77.67 93.94 79.65 98.20 81.57 98.48 C 85.25 106.00 81.54 114.65 82.42 122.63 C 82.21 129.78 83.32 137.00 81.08 143.95 C 82.54 148.36 85.57 146.74 86.01 143.05 C 85.93 144.39 85.93 145.74 86.04 147.09 C 98.56 143.47 108.83 134.85 120.98 130.35 C 118.95 130.22 119.05 128.40 118.96 126.83 C 120.94 126.63 120.48 123.21 119.52 122.03 C 122.34 113.57 122.08 103.45 128.69 96.68 C 130.80 94.88 132.75 96.39 132.02 99.03 C 129.32 102.02 129.05 108.41 128.03 112.85 C 126.25 115.34 125.75 119.75 124.90 123.08 C 126.96 121.04 128.37 117.08 128.58 114.20 C 131.08 108.69 134.32 103.12 134.01 96.86 C 138.34 88.38 121.31 94.89 117.27 93.26 C 112.62 92.75 107.92 92.93 103.27 93.30 C 97.02 93.02 88.43 91.82 84.03 94.03 L 83.14 94.36 C 83.38 92.23 79.70 92.25 79.71 94.26 Z" />
</g>
<g id="#554b38ff">
<path fill="#554b38" opacity="1.00" d=" M 440.77 57.78 C 447.51 56.81 454.48 56.38 461.21 57.80 C 454.39 57.93 447.57 58.12 440.77 57.78 Z" />
</g>
<g id="#241f1dff">
<path fill="#241f1d" opacity="1.00" d=" M 429.35 58.93 C 433.15 58.67 436.97 58.22 440.77 57.78 C 447.57 58.12 454.39 57.93 461.21 57.80 C 471.35 59.05 475.03 70.19 473.34 79.26 C 465.61 117.37 453.59 154.78 450.82 193.78 C 450.49 196.57 450.16 199.40 450.14 202.23 C 449.80 207.29 450.62 212.37 450.18 217.43 C 434.61 204.85 420.63 190.49 406.09 176.77 C 396.22 166.45 385.89 156.59 375.92 146.37 C 381.64 140.60 389.64 136.75 397.69 136.27 C 401.54 135.00 408.01 143.90 410.28 138.01 C 411.21 138.43 412.13 138.88 413.05 139.35 C 417.06 141.52 420.82 144.15 424.89 146.23 C 424.37 144.80 423.79 143.40 423.21 142.00 C 430.72 141.04 426.52 127.84 426.15 122.47 C 426.03 119.83 424.81 121.87 423.94 122.92 C 423.00 124.30 421.55 125.01 419.95 125.34 L 419.07 125.12 C 418.81 124.83 418.29 124.25 418.03 123.96 C 417.36 118.79 419.44 112.98 416.76 108.20 C 412.26 104.59 406.46 103.83 400.89 103.86 C 409.79 96.73 420.99 98.59 431.71 96.72 C 434.10 95.14 432.28 94.74 430.24 94.69 C 419.08 94.34 407.93 92.79 396.77 93.21 C 395.25 93.06 393.73 92.87 392.22 92.70 C 389.35 92.34 386.30 91.22 383.72 92.95 C 381.91 95.04 377.78 91.46 377.64 94.79 C 377.06 98.90 376.89 103.06 376.77 107.21 C 375.93 102.43 376.21 97.58 375.85 92.77 C 370.25 105.73 378.93 120.88 374.72 133.92 C 366.78 134.69 360.78 126.07 358.94 118.99 C 356.31 114.59 350.92 112.81 348.55 118.19 C 334.82 104.04 320.59 90.38 306.87 76.22 C 308.49 76.08 310.10 75.88 311.72 75.67 C 317.87 75.74 324.20 76.70 330.29 75.34 C 331.78 75.12 333.27 74.91 334.77 74.77 C 338.59 74.82 342.41 74.64 346.22 74.21 C 348.11 74.09 350.00 73.98 351.90 73.88 C 354.73 75.10 357.14 74.88 359.12 73.21 C 361.68 72.78 364.22 72.24 366.78 71.81 C 370.58 71.78 374.35 71.39 377.94 70.02 C 382.77 69.72 387.65 69.02 392.14 67.09 L 392.89 66.86 C 396.77 66.39 400.59 65.59 404.27 64.25 C 412.64 62.51 420.96 60.56 429.35 58.93 Z" />
</g>
<g id="#726448ff">
<path fill="#726448" opacity="1.00" d=" M 392.89 66.86 C 396.48 65.23 400.34 64.47 404.27 64.25 C 400.59 65.59 396.77 66.39 392.89 66.86 Z" />
</g>
<g id="#fafaf9ff">
<path fill="#fafaf9" opacity="1.00" d=" M 208.97 74.64 C 215.43 74.65 219.52 67.18 225.83 65.75 C 225.22 67.70 223.14 70.32 226.45 70.68 C 230.78 73.94 235.09 67.69 239.86 69.98 C 239.01 72.50 241.05 78.15 237.04 77.96 C 230.09 75.16 232.39 82.65 233.19 85.88 C 237.73 84.07 243.00 86.50 247.26 85.39 C 247.83 81.56 241.96 69.87 249.51 72.81 C 248.26 66.51 253.80 65.30 258.24 69.78 C 251.72 65.82 247.30 76.58 254.08 78.96 C 258.42 82.00 262.78 74.38 266.96 76.96 C 269.78 82.87 280.04 74.06 281.24 81.59 C 285.49 79.21 290.77 78.45 295.17 80.78 C 298.82 82.33 299.67 77.27 297.05 75.57 C 299.30 74.58 301.67 73.89 304.13 73.69 C 305.06 74.51 305.94 75.39 306.87 76.22 C 320.59 90.38 334.82 104.04 348.55 118.19 C 356.88 128.30 366.77 137.00 375.92 146.37 C 385.89 156.59 396.22 166.45 406.09 176.77 C 404.77 183.99 415.05 187.26 412.00 195.17 C 409.99 193.61 408.43 191.57 406.59 189.84 C 405.18 195.34 404.32 201.01 404.56 206.70 C 400.92 209.56 394.23 214.65 399.70 219.16 C 400.39 211.75 403.34 223.06 405.90 225.02 C 402.22 230.95 400.30 237.89 401.79 244.83 C 399.04 243.55 393.63 244.51 394.55 248.36 C 395.00 250.76 394.02 253.09 392.87 255.14 C 387.93 252.30 395.30 243.70 390.28 242.33 C 389.67 246.90 388.90 252.24 385.64 256.47 C 385.05 274.70 370.40 288.87 370.23 307.03 C 368.74 309.06 371.39 313.28 368.71 314.92 C 361.57 316.46 354.78 311.46 347.81 314.32 C 334.91 300.49 331.73 281.09 324.84 264.09 C 319.52 247.94 314.73 231.63 308.92 215.64 C 306.15 206.53 303.37 197.42 300.76 188.26 C 301.94 183.05 299.11 178.68 296.05 174.88 C 292.02 167.11 288.73 158.98 284.70 151.21 C 285.90 148.65 284.36 142.06 288.59 143.20 C 290.08 147.68 291.68 152.15 293.93 156.32 C 294.08 149.07 291.89 142.07 290.42 135.05 C 289.70 133.89 289.74 131.43 288.18 131.27 C 265.57 130.78 242.91 130.89 220.30 131.17 L 220.02 132.01 C 219.53 133.56 219.14 135.14 218.79 136.73 C 214.49 151.38 210.25 166.19 208.26 181.26 C 206.92 185.86 205.46 190.42 203.98 194.98 C 202.46 195.83 202.60 197.70 203.17 199.09 C 196.40 221.41 189.91 243.80 183.37 266.19 C 182.30 265.74 181.22 265.33 180.12 264.98 C 178.66 277.80 173.46 289.70 170.04 302.09 C 166.60 309.28 160.38 314.71 153.62 318.69 C 150.23 321.09 142.22 319.25 145.56 313.42 C 146.10 310.94 142.36 311.04 140.93 309.78 C 144.94 302.31 154.54 321.50 153.03 307.14 C 146.07 299.87 146.22 289.02 141.70 280.51 C 136.08 270.88 133.55 260.03 128.83 250.01 C 121.26 256.49 119.62 242.57 124.38 238.31 C 130.68 231.87 118.97 225.38 121.03 217.92 C 121.16 213.78 117.32 217.37 118.53 219.80 C 115.99 223.80 114.98 229.95 110.08 231.58 C 107.37 225.59 105.40 216.52 112.30 212.47 C 104.51 214.41 108.01 201.66 111.45 198.42 C 121.34 200.28 114.97 193.10 110.46 193.74 C 112.13 189.56 104.25 186.12 107.83 182.73 C 108.51 180.55 106.58 178.67 105.81 176.77 C 140.11 142.86 173.35 107.94 208.17 74.59 L 208.97 74.64 Z" />
</g>
<g id="#73664eff">
<path fill="#73664e" opacity="1.00" d=" M 377.94 70.02 C 382.30 67.81 387.34 67.54 392.14 67.09 C 387.65 69.02 382.77 69.72 377.94 70.02 Z" />
</g>
<g id="#b19575ff">
</g>
<g id="#6f6350ff">
<path fill="#6f6350" opacity="1.00" d=" M 366.78 71.81 C 368.91 71.23 371.04 70.64 373.18 70.04 C 374.76 70.03 376.35 70.06 377.94 70.02 C 374.35 71.39 370.58 71.78 366.78 71.81 Z" />
</g>
<g id="#75695fff">
<path fill="#75695f" opacity="1.00" d=" M 157.75 71.23 C 160.92 70.96 164.05 71.34 167.17 71.91 C 164.02 71.93 160.87 71.59 157.75 71.23 Z" />
</g>
<g id="#6e5f53ff">
<path fill="#6e5f53" opacity="1.00" d=" M 168.83 72.09 C 171.98 72.06 175.10 72.43 178.23 72.82 C 175.08 73.02 171.93 72.62 168.83 72.09 Z" />
</g>
<g id="#7b6e65ff">
<path fill="#7b6e65" opacity="1.00" d=" M 183.77 73.23 C 192.33 72.86 200.98 72.46 209.46 73.93 L 208.97 74.64 L 208.17 74.59 C 200.14 73.00 191.83 74.80 183.77 73.23 Z" />
</g>
<g id="#776757ff">
<path fill="#776757" opacity="1.00" d=" M 351.90 73.88 C 353.76 72.04 356.16 71.81 359.12 73.21 C 357.14 74.88 354.73 75.10 351.90 73.88 Z" />
</g>
<g id="#b9a386ff">
</g>
<g id="#837264ff">
<path fill="#837264" opacity="1.00" d=" M 334.77 74.77 C 338.56 74.32 342.38 74.13 346.22 74.21 C 342.41 74.64 338.59 74.82 334.77 74.77 Z" />
</g>
<g id="#76665aff">
<path fill="#76665a" opacity="1.00" d=" M 311.72 75.67 C 317.80 74.27 324.13 75.27 330.29 75.34 C 324.20 76.70 317.87 75.74 311.72 75.67 Z" />
</g>
<g id="#b79d7dff">
</g>
<g id="#5c5955ff">
<path fill="#5c5955" opacity="1.00" d=" M 383.72 92.95 C 386.30 91.22 389.35 92.34 392.22 92.70 C 388.70 92.66 383.97 91.58 384.72 96.20 C 384.37 95.11 384.04 94.03 383.72 92.95 Z" />
</g>
<g id="#797671ff">
<path fill="#797671" opacity="1.00" d=" M 79.71 94.26 C 79.70 92.25 83.38 92.23 83.14 94.36 L 82.70 95.18 C 81.61 95.17 80.61 94.87 79.71 94.26 Z" />
</g>
<g id="#726e68ff">
<path fill="#726e68" opacity="1.00" d=" M 84.03 94.03 C 88.43 91.82 97.02 93.02 103.27 93.30 C 96.89 94.16 90.45 93.98 84.03 94.03 Z" />
</g>
<g id="#c8c4beff">
<path fill="#c8c4be" opacity="1.00" d=" M 103.27 93.30 C 107.92 92.93 112.62 92.75 117.27 93.26 C 112.77 93.76 108.22 93.81 103.76 94.57 C 102.52 94.74 101.28 94.90 100.04 95.04 C 94.26 95.03 88.48 95.06 82.70 95.18 L 83.14 94.36 L 84.03 94.03 C 90.45 93.98 96.89 94.16 103.27 93.30 Z" />
</g>
<g id="#eeedeaff">
<path fill="#eeedea" opacity="1.00" d=" M 117.27 93.26 C 121.31 94.89 138.34 88.38 134.01 96.86 C 133.23 98.30 131.94 103.38 132.02 99.03 C 132.75 96.39 130.80 94.88 128.69 96.68 C 122.08 103.45 122.34 113.57 119.52 122.03 C 118.89 123.54 118.69 125.21 118.96 126.83 C 119.05 128.40 118.95 130.22 120.98 130.35 C 108.83 134.85 98.56 143.47 86.04 147.09 C 85.93 145.74 85.93 144.39 86.01 143.05 C 94.20 136.97 102.75 131.40 111.89 126.86 C 114.94 125.59 115.00 121.76 116.24 119.12 C 117.41 118.00 117.39 116.32 116.88 114.90 C 116.96 114.24 117.12 112.91 117.19 112.24 C 117.84 108.45 118.03 104.63 117.77 100.79 C 117.36 97.23 112.18 96.77 109.30 95.69 C 107.47 95.20 105.62 94.87 103.76 94.57 C 108.22 93.81 112.77 93.76 117.27 93.26 Z" />
</g>
<g id="#1d1917ff">
<path fill="#1d1917" opacity="1.00" d=" M 374.72 133.92 C 378.93 120.88 370.25 105.73 375.85 92.77 C 376.21 97.58 375.93 102.43 376.77 107.21 C 377.95 114.18 379.67 121.05 381.33 127.93 C 379.62 132.33 386.26 135.55 382.17 127.77 C 383.44 116.39 379.72 105.70 377.64 94.79 C 377.78 91.46 381.91 95.04 383.72 92.95 C 384.04 94.03 384.37 95.11 384.72 96.20 C 385.64 99.39 386.49 102.62 387.26 105.87 C 386.61 107.26 386.49 109.07 387.84 110.10 C 388.69 113.96 389.58 117.82 390.38 121.70 C 390.91 124.38 388.59 129.33 391.06 130.97 C 397.75 132.47 404.13 135.00 410.28 138.01 C 408.01 143.90 401.54 135.00 397.69 136.27 C 389.64 136.75 381.64 140.60 375.92 146.37 C 366.77 137.00 356.88 128.30 348.55 118.19 C 350.92 112.81 356.31 114.59 358.94 118.99 C 360.78 126.07 366.78 134.69 374.72 133.92 Z" />
</g>
<g id="#eae8e3ff">
<path fill="#eae8e3" opacity="1.00" d=" M 384.72 96.20 C 383.97 91.58 388.70 92.66 392.22 92.70 C 393.73 92.87 395.25 93.06 396.77 93.21 C 401.14 93.85 405.59 93.87 410.01 94.01 C 413.49 95.18 406.64 95.40 404.72 95.74 C 400.99 96.86 395.75 95.70 393.11 99.30 C 392.39 102.91 393.26 106.45 394.20 109.88 C 393.63 111.29 393.49 113.09 394.85 114.12 C 394.92 114.81 395.08 116.19 395.15 116.88 C 394.61 118.30 394.61 119.93 395.60 121.16 C 398.37 129.81 409.86 130.19 416.04 135.94 C 415.12 137.14 414.36 138.52 413.05 139.35 C 412.13 138.88 411.21 138.43 410.28 138.01 C 404.13 135.00 397.75 132.47 391.06 130.97 C 390.94 127.86 391.14 124.73 390.38 121.70 C 389.58 117.82 388.69 113.96 387.84 110.10 C 388.39 108.68 388.43 106.99 387.26 105.87 C 386.49 102.62 385.64 99.39 384.72 96.20 Z" />
</g>
<g id="#9a958fff">
<path fill="#9a958f" opacity="1.00" d=" M 396.77 93.21 C 407.93 92.79 419.08 94.34 430.24 94.69 C 421.76 95.64 413.24 96.39 404.72 95.74 C 406.64 95.40 413.49 95.18 410.01 94.01 C 405.59 93.87 401.14 93.85 396.77 93.21 Z" />
</g>
<g id="#1e1915ff">
<path fill="#1e1915" opacity="1.00" d=" M 81.57 98.48 C 79.65 98.20 77.67 93.94 79.71 94.26 C 80.61 94.87 81.61 95.17 82.70 95.18 C 88.41 96.05 94.20 96.13 99.97 96.03 C 103.07 95.97 106.19 95.85 109.30 95.69 C 112.18 96.77 117.36 97.23 117.77 100.79 C 117.40 104.59 117.20 108.41 117.19 112.24 C 117.12 112.91 116.96 114.24 116.88 114.90 C 115.46 115.88 115.62 117.72 116.24 119.12 C 115.00 121.76 114.94 125.59 111.89 126.86 C 102.75 131.40 94.20 136.97 86.01 143.05 C 85.57 146.74 82.54 148.36 81.08 143.95 C 83.32 137.00 82.21 129.78 82.42 122.63 C 81.54 114.65 85.25 106.00 81.57 98.48 M 86.12 116.76 C 85.96 120.84 85.90 124.92 85.96 129.00 C 86.08 130.15 85.26 142.42 87.52 138.21 C 88.68 137.00 89.86 135.81 91.03 134.63 C 96.65 130.59 104.13 126.91 108.89 121.91 C 104.86 118.61 111.92 111.27 111.10 105.78 C 110.42 104.62 109.50 103.62 108.01 103.94 C 105.54 101.49 98.70 102.42 95.00 100.99 C 85.60 98.84 84.45 110.55 86.12 116.76 Z" />
</g>
<g id="#4d4842ff">
<path fill="#4d4842" opacity="1.00" d=" M 82.70 95.18 C 88.48 95.06 94.26 95.03 100.04 95.04 L 99.97 96.03 C 94.20 96.13 88.41 96.05 82.70 95.18 Z" />
</g>
<g id="#8c8680ff">
<path fill="#8c8680" opacity="1.00" d=" M 100.04 95.04 C 101.28 94.90 102.52 94.74 103.76 94.57 C 105.62 94.87 107.47 95.20 109.30 95.69 C 106.19 95.85 103.07 95.97 99.97 96.03 L 100.04 95.04 Z" />
</g>
<g id="#dad9d5ff">
<path fill="#dad9d5" opacity="1.00" d=" M 376.77 107.21 C 376.89 103.06 377.06 98.90 377.64 94.79 C 379.72 105.70 383.44 116.39 382.17 127.77 L 381.33 127.93 C 379.67 121.05 377.95 114.18 376.77 107.21 Z" />
</g>
<g id="#161412ff">
<path fill="#161412" opacity="1.00" d=" M 404.72 95.74 C 413.24 96.39 421.76 95.64 430.24 94.69 C 432.28 94.74 434.10 95.14 431.71 96.72 C 420.99 98.59 409.79 96.73 400.89 103.86 C 396.91 105.52 400.65 108.19 402.96 109.14 C 405.78 113.75 399.89 121.35 403.62 123.98 C 410.97 127.54 418.38 131.53 424.11 137.46 C 428.92 142.45 424.38 124.78 426.15 122.47 C 426.52 127.84 430.72 141.04 423.21 142.00 C 421.14 139.60 418.79 137.50 416.04 135.94 C 409.86 130.19 398.37 129.81 395.60 121.16 C 396.36 119.80 396.57 117.90 395.15 116.88 C 395.08 116.19 394.92 114.81 394.85 114.12 C 395.39 112.69 395.44 110.96 394.20 109.88 C 393.26 106.45 392.39 102.91 393.11 99.30 C 395.75 95.70 400.99 96.86 404.72 95.74 Z" />
</g>
<g id="#aaa9a6ff">
<path fill="#aaa9a6" opacity="1.00" d=" M 132.02 99.03 C 131.94 103.38 133.23 98.30 134.01 96.86 C 134.32 103.12 131.08 108.69 128.58 114.20 C 128.44 113.86 128.17 113.18 128.03 112.85 C 129.05 108.41 129.32 102.02 132.02 99.03 Z" />
</g>
<g id="#3b3935ff">
<path fill="#3b3935" opacity="1.00" d=" M 86.12 116.76 C 84.45 110.55 85.60 98.84 95.00 100.99 C 98.70 102.42 105.54 101.49 108.01 103.94 C 97.37 100.36 98.06 111.98 96.97 117.86 C 99.61 107.04 92.38 116.49 88.22 118.08 C 87.69 117.75 86.65 117.09 86.12 116.76 Z" />
</g>
<g id="#9d9892ff">
<path fill="#9d9892" opacity="1.00" d=" M 117.19 112.24 C 117.20 108.41 117.40 104.59 117.77 100.79 C 118.03 104.63 117.84 108.45 117.19 112.24 Z" />
</g>
<g id="#60605aff">
<path fill="#60605a" opacity="1.00" d=" M 96.97 117.86 C 98.06 111.98 97.37 100.36 108.01 103.94 C 109.50 103.62 110.42 104.62 111.10 105.78 C 108.01 106.37 104.59 106.97 102.80 109.88 C 104.46 109.59 106.10 109.19 107.77 108.93 C 106.30 114.07 106.59 120.82 100.73 122.85 C 98.74 121.94 96.80 120.91 94.86 119.91 C 95.39 119.05 96.09 118.36 96.97 117.86 Z" />
</g>
<g id="#67655fff">
<path fill="#67655f" opacity="1.00" d=" M 402.96 109.14 C 400.65 108.19 396.91 105.52 400.89 103.86 C 406.46 103.83 412.26 104.59 416.76 108.20 C 419.44 112.98 417.36 118.79 418.03 123.96 C 416.27 120.74 418.91 113.59 413.00 114.27 C 410.25 113.58 407.82 115.22 405.30 115.99 C 403.86 114.27 405.52 110.32 402.96 109.14 Z" />
</g>
<g id="#3a3833ff">
<path fill="#3a3833" opacity="1.00" d=" M 102.80 109.88 C 104.59 106.97 108.01 106.37 111.10 105.78 C 111.92 111.27 104.86 118.61 108.89 121.91 C 106.37 123.34 103.41 125.03 100.73 122.85 C 106.59 120.82 106.30 114.07 107.77 108.93 C 106.10 109.19 104.46 109.59 102.80 109.88 Z" />
</g>
<g id="#898480ff">
<path fill="#898480" opacity="1.00" d=" M 387.26 105.87 C 388.43 106.99 388.39 108.68 387.84 110.10 C 386.49 109.07 386.61 107.26 387.26 105.87 Z" />
</g>
<g id="#3f3d39ff">
<path fill="#3f3d39" opacity="1.00" d=" M 402.96 109.14 C 405.52 110.32 403.86 114.27 405.30 115.99 C 407.82 115.22 410.25 113.58 413.00 114.27 C 413.75 118.82 408.85 119.73 405.78 121.73 C 404.81 122.23 404.08 122.98 403.62 123.98 C 399.89 121.35 405.78 113.75 402.96 109.14 Z" />
</g>
<g id="#878787ff">
<path fill="#878787" opacity="1.00" d=" M 394.20 109.88 C 395.44 110.96 395.39 112.69 394.85 114.12 C 393.49 113.09 393.63 111.29 394.20 109.88 Z" />
</g>
<g id="#0f0e0bff">
<path fill="#0f0e0b" opacity="1.00" d=" M 88.22 118.08 C 92.38 116.49 99.61 107.04 96.97 117.86 C 96.09 118.36 95.39 119.05 94.86 119.91 C 93.33 122.71 91.10 124.74 87.85 125.07 L 87.78 123.90 C 87.92 121.96 88.06 120.02 88.22 118.08 Z" />
</g>
<g id="#b49e7eff">
</g>
<g id="#62605cff">
<path fill="#62605c" opacity="1.00" d=" M 124.90 123.08 C 125.75 119.75 126.25 115.34 128.03 112.85 C 128.17 113.18 128.44 113.86 128.58 114.20 C 128.37 117.08 126.96 121.04 124.90 123.08 Z" />
</g>
<g id="#81807aff">
<path fill="#81807a" opacity="1.00" d=" M 413.00 114.27 C 418.91 113.59 416.27 120.74 418.03 123.96 C 418.29 124.25 418.81 124.83 419.07 125.12 C 414.61 124.06 410.11 123.23 405.78 121.73 C 408.85 119.73 413.75 118.82 413.00 114.27 Z" />
</g>
<g id="#9d9592ff">
<path fill="#9d9592" opacity="1.00" d=" M 116.24 119.12 C 115.62 117.72 115.46 115.88 116.88 114.90 C 117.39 116.32 117.41 118.00 116.24 119.12 Z" />
</g>
<g id="#95918dff">
<path fill="#95918d" opacity="1.00" d=" M 86.12 116.76 C 86.65 117.09 87.69 117.75 88.22 118.08 C 88.06 120.02 87.92 121.96 87.78 123.90 C 87.22 128.61 86.27 133.52 87.52 138.21 C 85.26 142.42 86.08 130.15 85.96 129.00 C 85.90 124.92 85.96 120.84 86.12 116.76 Z" />
</g>
<g id="#7b7a77ff">
<path fill="#7b7a77" opacity="1.00" d=" M 395.15 116.88 C 396.57 117.90 396.36 119.80 395.60 121.16 C 394.61 119.93 394.61 118.30 395.15 116.88 Z" />
</g>
<g id="#94918eff">
<path fill="#94918e" opacity="1.00" d=" M 94.86 119.91 C 96.80 120.91 98.74 121.94 100.73 122.85 C 103.41 125.03 106.37 123.34 108.89 121.91 C 104.13 126.91 96.65 130.59 91.03 134.63 C 86.15 134.26 88.54 128.46 87.85 125.07 C 91.10 124.74 93.33 122.71 94.86 119.91 Z" />
</g>
<g id="#b2afa9ff">
<path fill="#b2afa9" opacity="1.00" d=" M 423.94 122.92 C 424.81 121.87 426.03 119.83 426.15 122.47 C 424.92 127.39 425.77 132.64 424.11 137.46 C 418.38 131.53 410.97 127.54 403.62 123.98 C 404.08 122.98 404.81 122.23 405.78 121.73 C 410.11 123.23 414.61 124.06 419.07 125.12 L 419.95 125.34 C 421.37 126.88 422.66 128.54 423.99 130.16 C 423.98 128.35 423.95 124.73 423.94 122.92 Z" />
</g>
<g id="#bba385ff">
</g>
<g id="#918e85ff">
<path fill="#918e85" opacity="1.00" d=" M 118.96 126.83 C 118.69 125.21 118.89 123.54 119.52 122.03 C 120.48 123.21 120.94 126.63 118.96 126.83 Z" />
</g>
<g id="#4f4d4aff">
<path fill="#4f4d4a" opacity="1.00" d=" M 390.38 121.70 C 391.14 124.73 390.94 127.86 391.06 130.97 C 388.59 129.33 390.91 124.38 390.38 121.70 Z" />
</g>
<g id="#6a6561ff">
<path fill="#6a6561" opacity="1.00" d=" M 419.95 125.34 C 421.55 125.01 423.00 124.30 423.94 122.92 C 423.95 124.73 423.98 128.35 423.99 130.16 C 422.66 128.54 421.37 126.88 419.95 125.34 Z" />
</g>
<g id="#474745ff">
<path fill="#474745" opacity="1.00" d=" M 424.11 137.46 C 425.77 132.64 424.92 127.39 426.15 122.47 C 424.38 124.78 428.92 142.45 424.11 137.46 Z" />
</g>
<g id="#d9d4d0ff">
<path fill="#d9d4d0" opacity="1.00" d=" M 87.52 138.21 C 86.27 133.52 87.22 128.61 87.78 123.90 L 87.85 125.07 C 88.54 128.46 86.15 134.26 91.03 134.63 C 89.86 135.81 88.68 137.00 87.52 138.21 Z" />
</g>
<g id="#676462ff">
<path fill="#676462" opacity="1.00" d=" M 381.33 127.93 L 382.17 127.77 C 386.26 135.55 379.62 132.33 381.33 127.93 Z" />
</g>
<g id="#83817dff">
<path fill="#83817d" opacity="1.00" d=" M 220.30 131.17 C 242.91 130.89 265.57 130.78 288.18 131.27 C 281.07 133.11 282.51 140.79 279.95 146.20 C 279.68 145.92 279.14 145.35 278.87 145.06 C 278.74 140.29 286.73 128.45 276.26 132.16 C 257.51 131.88 238.77 132.01 220.02 132.01 L 220.30 131.17 Z" />
</g>
<g id="#aeaeb0ff">
<path fill="#aeaeb0" opacity="1.00" d=" M 288.18 131.27 C 289.74 131.43 289.70 133.89 290.42 135.05 C 282.70 133.56 283.37 143.30 281.80 148.17 C 281.17 147.52 280.55 146.87 279.95 146.20 C 282.51 140.79 281.07 133.11 288.18 131.27 Z" />
</g>
<g id="#26211eff">
<path fill="#26211e" opacity="1.00" d=" M 220.02 132.01 C 238.77 132.01 257.51 131.88 276.26 132.16 C 270.66 132.08 272.06 137.60 272.08 141.64 C 270.69 141.43 269.11 140.84 268.00 142.05 C 272.09 149.11 277.83 155.01 282.00 162.01 C 290.10 174.64 292.43 189.78 298.60 203.30 C 303.90 214.77 302.31 227.67 304.28 239.81 C 311.54 256.50 313.19 274.93 320.35 291.65 C 320.42 293.75 322.95 300.44 318.98 298.07 C 311.18 294.46 293.33 300.88 293.97 286.98 L 293.93 285.98 C 293.89 284.90 293.69 283.86 293.33 282.86 C 289.06 269.67 285.05 256.41 280.65 243.26 C 280.82 241.74 281.03 240.23 281.27 238.72 C 285.90 249.86 288.90 261.71 294.55 272.43 C 297.03 275.23 302.86 277.22 304.83 272.63 C 304.54 262.59 302.85 252.54 298.70 243.33 C 297.24 234.32 297.99 225.10 298.78 216.05 C 297.61 206.55 291.91 198.53 289.71 189.32 C 286.14 172.94 278.12 157.55 266.67 145.30 C 264.55 143.82 262.06 143.32 263.01 146.79 C 263.03 150.94 263.11 155.10 263.23 159.25 C 263.08 160.76 262.96 162.27 262.84 163.78 C 263.45 168.63 261.54 172.40 257.46 174.57 C 250.14 178.74 250.28 189.75 246.64 196.94 C 245.78 198.54 244.97 200.28 245.15 202.15 C 242.95 208.32 241.12 214.62 238.80 220.75 C 237.97 222.79 237.28 224.89 236.80 227.04 C 235.67 227.98 235.54 229.49 235.80 230.85 C 235.28 232.31 234.81 233.79 234.35 235.27 C 233.29 224.86 232.38 240.77 227.20 241.30 C 229.73 229.39 230.10 217.22 232.79 205.31 C 232.37 205.18 231.53 204.92 231.12 204.79 C 231.33 203.92 231.55 203.05 231.77 202.19 C 237.03 184.11 243.82 166.40 248.01 148.04 C 241.22 145.95 230.51 146.66 221.96 147.74 C 220.33 147.66 217.61 148.31 217.63 145.87 C 218.38 142.87 219.02 139.83 218.79 136.73 C 219.14 135.14 219.53 133.56 220.02 132.01 Z" />
</g>
<g id="#4e4b49ff">
<path fill="#4e4b49" opacity="1.00" d=" M 276.26 132.16 C 286.73 128.45 278.74 140.29 278.87 145.06 C 276.66 143.81 274.39 142.68 272.08 141.64 C 272.06 137.60 270.66 132.08 276.26 132.16 Z" />
</g>
<g id="#dadcdeff">
<path fill="#dadcde" opacity="1.00" d=" M 281.80 148.17 C 283.37 143.30 282.70 133.56 290.42 135.05 C 291.89 142.07 294.08 149.07 293.93 156.32 C 291.68 152.15 290.08 147.68 288.59 143.20 C 284.36 142.06 285.90 148.65 284.70 151.21 C 283.73 150.20 282.74 149.20 281.80 148.17 Z" />
</g>
<g id="#979696ff">
<path fill="#979696" opacity="1.00" d=" M 416.04 135.94 C 418.79 137.50 421.14 139.60 423.21 142.00 C 423.79 143.40 424.37 144.80 424.89 146.23 C 420.82 144.15 417.06 141.52 413.05 139.35 C 414.36 138.52 415.12 137.14 416.04 135.94 Z" />
</g>
<g id="#c1bbb4ff">
<path fill="#c1bbb4" opacity="1.00" d=" M 208.26 181.26 C 210.25 166.19 214.49 151.38 218.79 136.73 C 219.02 139.83 218.38 142.87 217.63 145.87 C 216.75 149.59 215.93 153.34 215.01 157.06 C 213.80 161.53 212.81 166.06 211.99 170.62 C 210.81 174.19 209.58 177.74 208.26 181.26 Z" />
</g>
<g id="#1c1715ff">
<path fill="#1c1715" opacity="1.00" d=" M 268.00 142.05 C 269.11 140.84 270.69 141.43 272.08 141.64 C 274.39 142.68 276.66 143.81 278.87 145.06 C 279.14 145.35 279.68 145.92 279.95 146.20 C 280.55 146.87 281.17 147.52 281.80 148.17 C 282.74 149.20 283.73 150.20 284.70 151.21 C 288.73 158.98 292.02 167.11 296.05 174.88 C 297.50 179.38 299.10 183.83 300.76 188.26 C 303.37 197.42 306.15 206.53 308.92 215.64 C 304.96 220.62 310.38 227.29 309.19 232.90 C 318.01 261.29 318.85 292.81 336.06 317.97 C 337.90 322.31 344.08 323.29 345.22 327.91 C 326.84 327.40 308.59 329.60 290.22 329.10 C 290.70 327.31 290.79 325.45 290.76 323.61 L 291.56 324.12 C 291.75 324.81 292.15 326.20 292.34 326.90 C 299.94 327.04 308.93 327.85 315.04 322.33 C 305.59 323.54 307.66 310.28 299.61 309.38 C 276.61 306.74 253.27 310.06 230.15 308.21 C 224.36 310.29 214.45 305.56 211.61 312.75 C 210.91 313.52 210.90 314.24 211.58 314.93 C 213.34 316.93 215.24 318.81 217.13 320.70 C 221.97 328.21 226.10 337.18 225.35 346.18 C 218.28 346.02 211.22 346.05 204.15 345.94 C 197.22 340.10 212.92 333.09 203.86 329.07 C 207.19 328.91 214.03 332.40 213.91 327.24 C 208.21 323.59 200.42 327.19 195.07 323.76 C 195.32 319.75 196.91 315.99 198.06 312.18 C 201.79 301.29 204.03 289.96 208.35 279.27 C 211.78 270.05 214.25 260.52 217.00 251.08 C 219.48 242.38 221.94 233.66 224.93 225.11 C 227.21 218.40 228.50 211.39 231.12 204.79 C 231.53 204.92 232.37 205.18 232.79 205.31 C 230.10 217.22 229.73 229.39 227.20 241.30 C 232.38 240.77 233.29 224.86 234.35 235.27 C 229.06 249.97 225.54 265.27 219.73 279.78 C 219.26 281.78 217.68 284.06 218.92 286.04 C 243.00 288.28 269.10 286.40 293.97 286.98 C 293.33 300.88 311.18 294.46 318.98 298.07 C 322.95 300.44 320.42 293.75 320.35 291.65 C 313.19 274.93 311.54 256.50 304.28 239.81 C 302.31 227.67 303.90 214.77 298.60 203.30 C 292.43 189.78 290.10 174.64 282.00 162.01 C 277.83 155.01 272.09 149.11 268.00 142.05 Z" />
</g>
<g id="#322d28ff">
<path fill="#322d28" opacity="1.00" d=" M 263.01 146.79 C 262.06 143.32 264.55 143.82 266.67 145.30 C 278.12 157.55 286.14 172.94 289.71 189.32 C 291.91 198.53 297.61 206.55 298.78 216.05 C 297.99 225.10 297.24 234.32 298.70 243.33 C 302.85 252.54 304.54 262.59 304.83 272.63 C 302.86 277.22 297.03 275.23 294.55 272.43 C 288.90 261.71 285.90 249.86 281.27 238.72 C 281.03 240.23 280.82 241.74 280.65 243.26 C 273.41 220.20 265.70 197.28 257.46 174.57 C 261.54 172.40 263.45 168.63 262.84 163.78 C 262.95 169.81 262.58 175.84 262.24 181.85 C 265.92 190.85 269.39 199.92 272.78 209.02 C 277.03 217.67 275.13 234.21 287.87 234.99 C 295.93 231.28 292.49 220.11 292.86 213.11 C 288.25 197.40 285.50 181.14 277.46 166.61 C 273.71 159.82 271.08 149.23 263.01 146.79 Z" />
</g>
<g id="#575350ff">
<path fill="#575350" opacity="1.00" d=" M 215.01 157.06 C 215.93 153.34 216.75 149.59 217.63 145.87 C 217.61 148.31 220.33 147.66 221.96 147.74 C 230.51 146.66 241.22 145.95 248.01 148.04 C 243.60 148.02 239.19 147.97 234.79 148.01 C 231.46 147.90 228.06 147.69 224.99 149.14 C 225.89 151.89 228.77 152.72 230.90 154.28 C 231.99 159.15 225.49 161.40 225.23 166.13 C 225.59 178.80 221.33 191.02 221.55 203.69 C 223.22 210.65 221.99 217.78 222.05 224.83 C 222.77 224.90 224.21 225.04 224.93 225.11 C 221.94 233.66 219.48 242.38 217.00 251.08 C 215.00 252.08 212.32 252.66 212.34 249.58 C 214.62 224.04 214.33 197.82 220.37 172.54 C 219.37 165.82 224.08 161.27 227.07 156.17 C 223.27 152.98 218.60 154.39 215.01 157.06 Z" />
</g>
<g id="#3e3935ff">
<path fill="#3e3935" opacity="1.00" d=" M 263.01 146.79 C 271.08 149.23 273.71 159.82 277.46 166.61 C 285.50 181.14 288.25 197.40 292.86 213.11 C 292.49 220.11 295.93 231.28 287.87 234.99 C 275.13 234.21 277.03 217.67 272.78 209.02 C 277.32 209.13 277.73 215.91 281.96 216.04 C 284.81 216.52 284.81 212.74 285.47 210.81 C 282.72 199.99 284.12 188.19 277.47 178.61 C 274.07 170.54 272.85 161.46 267.80 154.18 C 264.64 150.74 264.33 157.23 263.23 159.25 C 263.11 155.10 263.03 150.94 263.01 146.79 Z" />
</g>
<g id="#68625eff">
<path fill="#68625e" opacity="1.00" d=" M 224.99 149.14 C 228.06 147.69 231.46 147.90 234.79 148.01 C 240.25 155.58 230.20 160.73 230.41 168.39 C 230.04 178.90 229.17 189.42 229.01 199.94 C 228.82 201.44 230.89 201.45 231.77 202.19 C 231.55 203.05 231.33 203.92 231.12 204.79 C 228.50 211.39 227.21 218.40 224.93 225.11 C 224.21 225.04 222.77 224.90 222.05 224.83 C 221.99 217.78 223.22 210.65 221.55 203.69 C 221.33 191.02 225.59 178.80 225.23 166.13 C 225.49 161.40 231.99 159.15 230.90 154.28 C 228.77 152.72 225.89 151.89 224.99 149.14 Z" />
</g>
<g id="#82796fff">
<path fill="#82796f" opacity="1.00" d=" M 234.79 148.01 C 239.19 147.97 243.60 148.02 248.01 148.04 C 243.82 166.40 237.03 184.11 231.77 202.19 C 230.89 201.45 228.82 201.44 229.01 199.94 C 229.17 189.42 230.04 178.90 230.41 168.39 C 230.20 160.73 240.25 155.58 234.79 148.01 Z" />
</g>
<g id="#4b443fff">
<path fill="#4b443f" opacity="1.00" d=" M 263.23 159.25 C 264.33 157.23 264.64 150.74 267.80 154.18 C 272.85 161.46 274.07 170.54 277.47 178.61 C 284.12 188.19 282.72 199.99 285.47 210.81 C 284.81 212.74 284.81 216.52 281.96 216.04 C 277.73 215.91 277.32 209.13 272.78 209.02 C 269.39 199.92 265.92 190.85 262.24 181.85 C 262.58 175.84 262.95 169.81 262.84 163.78 C 262.96 162.27 263.08 160.76 263.23 159.25 Z" />
</g>
<g id="#4c4744ff">
<path fill="#4c4744" opacity="1.00" d=" M 215.01 157.06 C 218.60 154.39 223.27 152.98 227.07 156.17 C 224.08 161.27 219.37 165.82 220.37 172.54 C 214.33 197.82 214.62 224.04 212.34 249.58 C 212.32 252.66 215.00 252.08 217.00 251.08 C 214.25 260.52 211.78 270.05 208.35 279.27 C 205.65 282.21 198.85 277.92 200.77 273.87 C 201.43 270.07 206.79 268.48 205.95 264.21 C 204.25 262.70 201.35 264.19 200.15 261.75 C 203.36 249.14 203.42 235.70 205.89 222.79 C 213.44 211.49 211.50 197.37 213.65 184.65 C 214.91 180.39 218.12 172.67 211.99 170.62 C 212.81 166.06 213.80 161.53 215.01 157.06 Z" />
</g>
<g id="#46413dff">
<path fill="#46413d" opacity="1.00" d=" M 211.99 170.62 C 218.12 172.67 214.91 180.39 213.65 184.65 C 211.50 197.37 213.44 211.49 205.89 222.79 C 203.42 235.70 203.36 249.14 200.15 261.75 C 201.35 264.19 204.25 262.70 205.95 264.21 C 206.79 268.48 201.43 270.07 200.77 273.87 C 198.85 277.92 205.65 282.21 208.35 279.27 C 204.03 289.96 201.79 301.29 198.06 312.18 C 193.41 311.31 185.52 311.27 187.93 303.94 C 189.27 299.18 195.96 291.11 189.03 287.90 C 182.38 290.69 179.18 296.90 174.90 302.14 C 175.47 295.48 181.01 289.48 179.33 282.68 L 179.20 282.00 C 180.48 280.99 180.41 279.27 179.85 277.90 C 181.15 274.03 182.33 270.13 183.37 266.19 C 189.91 243.80 196.40 221.41 203.17 199.09 C 204.38 198.05 204.42 196.40 203.98 194.98 C 205.46 190.42 206.92 185.86 208.26 181.26 C 209.58 177.74 210.81 174.19 211.99 170.62 Z" />
</g>
<g id="#736755ff">
<path fill="#736755" opacity="1.00" d=" M 58.19 171.91 C 58.34 173.45 58.65 176.55 58.81 178.10 C 58.65 176.55 58.34 173.45 58.19 171.91 Z" />
</g>
<g id="#f9f9f8ff">
<path fill="#f9f9f8" opacity="1.00" d=" M 246.64 196.94 C 250.28 189.75 250.14 178.74 257.46 174.57 C 265.70 197.28 273.41 220.20 280.65 243.26 C 285.05 256.41 289.06 269.67 293.33 282.86 C 293.18 283.33 292.89 284.29 292.74 284.76 C 268.56 285.23 244.34 285.02 220.15 284.91 C 219.91 283.20 219.82 281.49 219.73 279.78 C 225.54 265.27 229.06 249.97 234.35 235.27 C 234.81 233.79 235.28 232.31 235.80 230.85 C 237.56 230.41 237.49 228.33 236.80 227.04 C 239.74 226.18 238.79 223.08 238.80 220.75 C 241.12 214.62 242.95 208.32 245.15 202.15 C 248.02 202.06 247.42 198.74 246.64 196.94 Z" />
</g>
<g id="#bfb5bcff">
<path fill="#bfb5bc" opacity="1.00" d=" M 296.05 174.88 C 299.11 178.68 301.94 183.05 300.76 188.26 C 299.10 183.83 297.50 179.38 296.05 174.88 Z" />
</g>
<g id="#f9f8f5ff">
<path fill="#f9f8f5" opacity="1.00" d=" M 84.92 197.74 C 91.71 190.58 98.81 183.73 105.81 176.77 C 106.58 178.67 108.51 180.55 107.83 182.73 C 104.25 186.12 112.13 189.56 110.46 193.74 C 114.97 193.10 121.34 200.28 111.45 198.42 C 108.01 201.66 104.51 214.41 112.30 212.47 C 105.40 216.52 107.37 225.59 110.08 231.58 C 114.98 229.95 115.99 223.80 118.53 219.80 C 117.32 217.37 121.16 213.78 121.03 217.92 C 118.97 225.38 130.68 231.87 124.38 238.31 C 119.62 242.57 121.26 256.49 128.83 250.01 C 133.55 260.03 136.08 270.88 141.70 280.51 C 146.22 289.02 146.07 299.87 153.03 307.14 C 154.54 321.50 144.94 302.31 140.93 309.78 C 142.36 311.04 146.10 310.94 145.56 313.42 C 142.22 319.25 150.23 321.09 153.62 318.69 C 160.38 314.71 166.60 309.28 170.04 302.09 C 173.46 289.70 178.66 277.80 180.12 264.98 C 181.22 265.33 182.30 265.74 183.37 266.19 C 182.33 270.13 181.15 274.03 179.85 277.90 C 178.50 278.86 178.58 280.63 179.20 282.00 L 179.33 282.68 C 173.96 297.60 170.80 317.39 153.10 322.33 C 151.39 321.62 149.13 321.33 147.93 323.07 C 146.08 322.74 141.69 322.08 142.63 325.26 C 142.69 325.66 142.81 326.47 142.87 326.88 C 142.70 328.45 142.37 331.59 142.21 333.16 L 141.79 333.86 C 140.56 334.97 140.61 336.71 141.17 338.15 C 141.07 338.58 140.86 339.44 140.76 339.87 C 139.49 341.31 139.62 343.29 140.16 345.01 C 137.46 347.97 141.81 346.85 143.79 346.96 C 170.96 346.52 198.23 348.04 225.35 346.18 C 227.96 346.31 230.54 346.84 233.16 346.99 C 227.20 338.72 225.34 326.80 217.13 320.70 C 215.24 318.81 213.34 316.93 211.58 314.93 C 241.04 313.51 271.12 313.22 300.44 314.89 C 299.23 316.47 297.70 317.77 296.15 319.00 C 293.58 319.44 291.82 321.33 290.76 323.61 C 286.62 330.44 285.19 338.50 281.67 345.65 C 280.22 347.52 282.55 346.93 283.77 347.00 C 297.10 347.15 310.45 346.71 323.78 347.18 C 339.69 348.77 355.78 347.88 371.75 347.89 L 371.91 347.02 C 371.98 346.55 372.11 345.62 372.18 345.16 C 374.45 343.33 377.85 337.45 380.87 341.23 C 387.65 351.40 377.40 359.59 370.56 365.76 C 363.49 366.97 358.19 360.85 351.59 359.44 C 319.15 358.42 287.43 350.49 255.00 349.02 C 238.89 350.26 221.96 347.77 206.56 353.45 C 195.94 353.92 185.64 358.60 174.97 356.14 C 166.94 354.92 158.88 356.95 151.87 360.81 C 147.67 363.61 141.58 363.56 138.79 368.27 C 137.10 366.63 135.45 364.93 133.95 363.12 C 132.64 358.97 132.07 354.61 132.52 350.28 C 131.70 345.06 126.67 341.82 125.35 336.79 C 125.63 333.49 128.72 331.34 131.85 332.73 C 135.25 330.11 136.44 319.33 129.25 320.14 C 126.83 323.00 131.18 327.50 130.99 331.24 C 127.50 325.50 121.47 319.95 125.03 312.07 C 127.98 316.06 129.22 315.47 127.95 309.04 C 123.45 310.76 123.42 308.20 124.77 304.08 C 124.22 302.67 121.04 303.63 119.75 302.32 C 126.55 303.55 121.88 296.41 120.83 293.02 C 115.79 292.02 120.44 303.16 114.98 299.06 C 110.92 293.86 105.31 289.43 103.09 282.90 C 102.57 279.00 110.70 279.61 106.96 274.09 C 106.56 270.58 102.33 270.11 101.19 267.02 C 101.89 269.46 98.86 271.50 98.83 268.16 C 95.60 259.90 98.73 250.16 93.27 242.88 C 97.12 232.85 86.44 226.70 88.03 216.98 C 88.61 213.03 82.83 212.46 83.22 208.65 C 82.54 204.79 87.08 201.45 84.92 197.74 Z" />
</g>
<g id="#f4f0eeff">
<path fill="#f4f0ee" opacity="1.00" d=" M 406.09 176.77 C 420.63 190.49 434.61 204.85 450.18 217.43 C 452.92 220.69 456.10 223.52 459.25 226.39 C 453.98 228.30 450.81 222.90 447.17 220.96 C 445.43 225.12 444.23 229.59 440.46 232.43 C 440.31 238.38 437.89 243.85 435.53 249.19 C 438.24 253.74 433.68 257.60 433.20 262.12 C 436.89 271.29 425.25 276.61 426.42 284.87 C 421.29 290.08 421.10 298.97 412.37 299.41 C 405.88 309.47 401.88 321.26 395.55 331.49 C 392.12 336.88 394.40 343.45 392.01 349.17 C 385.34 356.40 378.27 363.25 371.27 370.15 C 359.21 366.07 346.83 362.48 334.04 361.89 C 289.20 352.36 242.22 349.91 196.99 357.96 C 179.67 363.94 157.64 358.75 143.87 373.33 C 142.14 371.68 140.47 369.97 138.79 368.27 C 141.58 363.56 147.67 363.61 151.87 360.81 C 158.88 356.95 166.94 354.92 174.97 356.14 C 185.64 358.60 195.94 353.92 206.56 353.45 C 221.96 347.77 238.89 350.26 255.00 349.02 C 287.43 350.49 319.15 358.42 351.59 359.44 C 358.19 360.85 363.49 366.97 370.56 365.76 C 377.40 359.59 387.65 351.40 380.87 341.23 C 377.85 337.45 374.45 343.33 372.18 345.16 C 371.96 337.45 372.19 329.74 371.92 322.04 C 369.13 322.09 363.55 322.17 360.77 322.22 C 355.99 320.47 351.62 317.66 347.81 314.32 C 354.78 311.46 361.57 316.46 368.71 314.92 C 371.39 313.28 368.74 309.06 370.23 307.03 C 370.40 288.87 385.05 274.70 385.64 256.47 C 388.90 252.24 389.67 246.90 390.28 242.33 C 395.30 243.70 387.93 252.30 392.87 255.14 C 394.02 253.09 395.00 250.76 394.55 248.36 C 393.63 244.51 399.04 243.55 401.79 244.83 C 400.30 237.89 402.22 230.95 405.90 225.02 C 403.34 223.06 400.39 211.75 399.70 219.16 C 394.23 214.65 400.92 209.56 404.56 206.70 C 404.32 201.01 405.18 195.34 406.59 189.84 C 408.43 191.57 409.99 193.61 412.00 195.17 C 415.05 187.26 404.77 183.99 406.09 176.77 Z" />
</g>
<g id="#796a56ff">
<path fill="#796a56" opacity="1.00" d=" M 59.32 182.72 C 59.91 186.88 59.95 191.09 59.73 195.29 C 59.06 191.13 59.03 186.91 59.32 182.72 Z" />
</g>
<g id="#77685cff">
<path fill="#77685c" opacity="1.00" d=" M 450.14 202.23 C 450.16 199.40 450.49 196.57 450.82 193.78 C 450.79 196.61 450.40 199.40 450.14 202.23 Z" />
</g>
<g id="#b2aba5ff">
<path fill="#b2aba5" opacity="1.00" d=" M 203.17 199.09 C 202.60 197.70 202.46 195.83 203.98 194.98 C 204.42 196.40 204.38 198.05 203.17 199.09 Z" />
</g>
<g id="#b4b3b3ff">
<path fill="#b4b3b3" opacity="1.00" d=" M 245.15 202.15 C 244.97 200.28 245.78 198.54 246.64 196.94 C 247.42 198.74 248.02 202.06 245.15 202.15 Z" />
</g>
<g id="#f5f0edff">
<path fill="#f5f0ed" opacity="1.00" d=" M 58.81 220.48 C 68.65 214.25 75.70 204.73 84.92 197.74 C 87.08 201.45 82.54 204.79 83.22 208.65 C 82.83 212.46 88.61 213.03 88.03 216.98 C 86.44 226.70 97.12 232.85 93.27 242.88 C 98.73 250.16 95.60 259.90 98.83 268.16 C 98.86 271.50 101.89 269.46 101.19 267.02 C 102.33 270.11 106.56 270.58 106.96 274.09 C 110.70 279.61 102.57 279.00 103.09 282.90 C 105.31 289.43 110.92 293.86 114.98 299.06 C 120.44 303.16 115.79 292.02 120.83 293.02 C 121.88 296.41 126.55 303.55 119.75 302.32 C 121.04 303.63 124.22 302.67 124.77 304.08 C 123.42 308.20 123.45 310.76 127.95 309.04 C 129.22 315.47 127.98 316.06 125.03 312.07 C 121.47 319.95 127.50 325.50 130.99 331.24 C 131.18 327.50 126.83 323.00 129.25 320.14 C 136.44 319.33 135.25 330.11 131.85 332.73 C 128.72 331.34 125.63 333.49 125.35 336.79 C 126.67 341.82 131.70 345.06 132.52 350.28 C 132.07 354.61 132.64 358.97 133.95 363.12 C 126.32 356.19 118.36 349.59 111.53 341.83 C 113.94 340.54 117.33 343.14 119.00 340.49 C 112.70 337.21 113.93 327.71 109.83 322.18 C 109.37 314.86 105.66 306.46 98.90 303.04 C 94.73 301.24 93.65 308.03 98.31 306.55 C 101.20 308.57 102.82 313.43 103.06 317.10 C 93.97 313.39 93.90 300.74 88.20 293.83 C 81.64 286.67 85.98 275.26 79.11 267.92 C 78.62 259.33 75.32 250.92 74.94 242.19 C 68.17 240.67 70.78 228.96 65.06 224.88 C 60.61 220.30 53.54 233.02 51.67 226.93 C 54.08 224.81 56.52 222.72 58.81 220.48 Z" />
</g>
<g id="#b49777ff">
</g>
<g id="#090706ff">
<path fill="#090706" opacity="1.00" d=" M 309.19 232.90 C 310.38 227.29 304.96 220.62 308.92 215.64 C 314.73 231.63 319.52 247.94 324.84 264.09 C 331.73 281.09 334.91 300.49 347.81 314.32 C 351.62 317.66 355.99 320.47 360.77 322.22 C 363.29 322.49 368.35 323.03 370.88 323.30 C 371.15 331.17 371.00 339.05 370.99 346.94 C 370.30 346.89 368.92 346.80 368.23 346.75 C 340.91 344.97 313.46 346.58 286.09 345.94 C 286.96 341.88 288.00 337.85 288.77 333.78 C 289.20 332.20 289.71 330.65 290.22 329.10 C 308.59 329.60 326.84 327.40 345.22 327.91 C 344.08 323.29 337.90 322.31 336.06 317.97 C 318.85 292.81 318.01 261.29 309.19 232.90 Z" />
</g>
<g id="#a3a29fff">
<path fill="#a3a29f" opacity="1.00" d=" M 236.80 227.04 C 237.28 224.89 237.97 222.79 238.80 220.75 C 238.79 223.08 239.74 226.18 236.80 227.04 Z" />
</g>
<g id="#efe6e0ff">
<path fill="#efe6e0" opacity="1.00" d=" M 447.17 220.96 C 450.81 222.90 453.98 228.30 459.25 226.39 C 462.95 229.42 466.42 232.72 470.00 235.91 C 470.65 239.90 471.41 243.89 466.64 240.40 C 463.84 243.11 469.22 250.89 465.92 254.97 C 458.87 264.74 457.08 277.18 449.70 286.74 C 444.92 289.81 437.47 293.33 437.97 300.11 C 440.46 300.20 445.11 295.05 445.34 299.15 C 427.28 315.52 410.41 333.18 392.01 349.17 C 394.40 343.45 392.12 336.88 395.55 331.49 C 401.88 321.26 405.88 309.47 412.37 299.41 C 421.10 298.97 421.29 290.08 426.42 284.87 C 425.25 276.61 436.89 271.29 433.20 262.12 C 433.68 257.60 438.24 253.74 435.53 249.19 C 437.89 243.85 440.31 238.38 440.46 232.43 C 444.23 229.59 445.43 225.12 447.17 220.96 Z" />
</g>
<g id="#f2eae3ff">
<path fill="#f2eae3" opacity="1.00" d=" M 51.67 226.93 C 53.54 233.02 60.61 220.30 65.06 224.88 C 70.78 228.96 68.17 240.67 74.94 242.19 C 75.32 250.92 78.62 259.33 79.11 267.92 C 85.98 275.26 81.64 286.67 88.20 293.83 C 93.90 300.74 93.97 313.39 103.06 317.10 C 102.82 313.43 101.20 308.57 98.31 306.55 C 93.65 308.03 94.73 301.24 98.90 303.04 C 105.66 306.46 109.37 314.86 109.83 322.18 C 113.93 327.71 112.70 337.21 119.00 340.49 C 117.33 343.14 113.94 340.54 111.53 341.83 C 106.75 337.05 101.43 332.84 96.86 327.86 C 88.79 317.63 77.60 310.46 69.83 300.00 C 72.27 300.56 74.59 301.56 77.03 302.12 C 75.80 297.44 74.46 291.37 70.10 288.89 C 66.25 288.24 65.59 283.68 62.31 282.26 C 59.24 281.26 59.08 275.93 62.21 280.03 C 61.79 274.75 63.12 267.65 57.49 264.76 C 58.26 254.56 55.82 244.46 55.74 234.28 C 53.05 228.79 50.45 237.97 46.57 236.77 C 44.38 237.46 40.06 241.07 39.60 236.90 C 41.10 235.50 42.71 234.23 44.29 232.93 C 46.69 230.86 49.15 228.86 51.67 226.93 Z" />
</g>
<g id="#b0aca9ff">
<path fill="#b0aca9" opacity="1.00" d=" M 235.80 230.85 C 235.54 229.49 235.67 227.98 236.80 227.04 C 237.49 228.33 237.56 230.41 235.80 230.85 Z" />
</g>
<g id="#eee4daff">
<path fill="#eee4da" opacity="1.00" d=" M 46.57 236.77 C 50.45 237.97 53.05 228.79 55.74 234.28 C 55.82 244.46 58.26 254.56 57.49 264.76 C 63.12 267.65 61.79 274.75 62.21 280.03 C 59.08 275.93 59.24 281.26 62.31 282.26 C 65.59 283.68 66.25 288.24 70.10 288.89 C 74.46 291.37 75.80 297.44 77.03 302.12 C 74.59 301.56 72.27 300.56 69.83 300.00 C 66.10 298.16 63.45 294.87 60.58 291.97 C 60.26 291.65 59.61 291.01 59.28 290.70 C 57.79 289.23 56.30 287.76 54.90 286.20 C 56.30 279.86 50.70 275.28 45.15 273.85 C 41.72 265.74 37.29 257.98 35.81 249.17 C 32.75 248.82 28.87 251.12 26.73 248.15 C 31.15 244.55 35.23 240.56 39.60 236.90 C 40.06 241.07 44.38 237.46 46.57 236.77 Z" />
</g>
<g id="#ebded2ff">
<path fill="#ebded2" opacity="1.00" d=" M 470.00 235.91 C 472.29 237.81 474.59 239.67 476.96 241.48 C 478.06 242.55 479.15 243.62 480.28 244.67 C 477.17 256.61 470.79 267.97 465.06 279.17 C 459.72 284.32 453.79 288.92 449.19 294.80 C 447.96 296.29 446.71 297.78 445.34 299.15 C 445.11 295.05 440.46 300.20 437.97 300.11 C 437.47 293.33 444.92 289.81 449.70 286.74 C 457.08 277.18 458.87 264.74 465.92 254.97 C 469.22 250.89 463.84 243.11 466.64 240.40 C 471.41 243.89 470.65 239.90 470.00 235.91 Z" />
</g>
<g id="#e3d2bfff">
<path fill="#e3d2bf" opacity="1.00" d=" M 480.28 244.67 C 483.49 246.77 486.77 248.81 489.84 251.16 C 486.49 255.58 482.91 259.84 479.95 264.55 C 475.08 269.52 470.13 274.41 465.06 279.17 C 470.79 267.97 477.17 256.61 480.28 244.67 Z" />
</g>
<g id="#e6d8cdff">
<path fill="#e6d8cd" opacity="1.00" d=" M 25.36 250.66 C 24.48 249.49 26.01 248.76 26.73 248.15 C 28.87 251.12 32.75 248.82 35.81 249.17 C 37.29 257.98 41.72 265.74 45.15 273.85 C 50.70 275.28 56.30 279.86 54.90 286.20 C 53.94 285.32 52.98 284.46 52.03 283.59 C 42.19 273.50 31.56 263.52 25.36 250.66 Z" />
</g>
<g id="#bba487ff">
</g>
<g id="#aba79bff">
<path fill="#aba79b" opacity="1.00" d=" M 179.20 282.00 C 178.58 280.63 178.50 278.86 179.85 277.90 C 180.41 279.27 180.48 280.99 179.20 282.00 Z" />
</g>
<g id="#9a9b96ff">
<path fill="#9a9b96" opacity="1.00" d=" M 218.92 286.04 C 217.68 284.06 219.26 281.78 219.73 279.78 C 219.82 281.49 219.91 283.20 220.15 284.91 C 244.34 285.02 268.56 285.23 292.74 284.76 C 292.89 284.29 293.18 283.33 293.33 282.86 C 293.69 283.86 293.89 284.90 293.93 285.98 C 268.93 286.04 243.92 285.95 218.92 286.04 Z" />
</g>
<g id="#3d3732ff">
<path fill="#3d3732" opacity="1.00" d=" M 179.33 282.68 C 181.01 289.48 175.47 295.48 174.90 302.14 C 179.18 296.90 182.38 290.69 189.03 287.90 C 195.96 291.11 189.27 299.18 187.93 303.94 C 185.52 311.27 193.41 311.31 198.06 312.18 C 196.91 315.99 195.32 319.75 195.07 323.76 C 200.42 327.19 208.21 323.59 213.91 327.24 C 214.03 332.40 207.19 328.91 203.86 329.07 C 184.75 327.43 164.94 326.44 146.20 331.29 C 145.24 336.10 144.95 341.03 145.01 345.93 C 144.70 346.19 144.09 346.70 143.79 346.96 C 141.81 346.85 137.46 347.97 140.16 345.01 C 141.62 343.65 141.38 341.56 140.76 339.87 C 140.86 339.44 141.07 338.58 141.17 338.15 C 142.46 337.07 142.39 335.28 141.79 333.86 L 142.21 333.16 C 142.37 331.59 142.70 328.45 142.87 326.88 C 142.81 326.47 142.69 325.66 142.63 325.26 C 144.43 324.62 146.25 323.99 147.93 323.07 C 149.68 323.37 151.58 323.39 153.10 322.33 C 170.80 317.39 173.96 297.60 179.33 282.68 Z" />
</g>
<g id="#baa286ff">
</g>
<g id="#b09474ff">
</g>
<g id="#3c3d37ff">
<path fill="#3c3d37" opacity="1.00" d=" M 218.92 286.04 C 243.92 285.95 268.93 286.04 293.93 285.98 L 293.97 286.98 C 269.10 286.40 243.00 288.28 218.92 286.04 Z" />
</g>
<g id="#847263ff">
<path fill="#847263" opacity="1.00" d=" M 59.28 290.70 C 59.61 291.01 60.26 291.65 60.58 291.97 C 58.93 303.00 61.34 314.35 59.28 325.28 C 58.74 313.76 58.94 302.22 59.28 290.70 Z" />
</g>
<g id="#201a18ff">
<path fill="#201a18" opacity="1.00" d=" M 59.28 325.28 C 61.34 314.35 58.93 303.00 60.58 291.97 C 63.45 294.87 66.10 298.16 69.83 300.00 C 77.60 310.46 88.79 317.63 96.86 327.86 C 95.57 329.02 93.02 330.18 95.06 331.95 C 111.56 350.35 130.52 366.54 146.74 385.26 C 165.78 403.45 182.41 424.09 203.27 440.35 C 187.02 439.18 170.93 443.74 154.67 441.65 C 151.36 436.87 145.23 433.59 142.72 428.28 C 144.08 424.54 138.99 418.08 135.30 422.28 C 133.31 425.18 129.88 425.74 127.11 423.52 C 127.27 418.43 122.23 414.38 121.66 409.15 C 122.36 407.77 122.56 405.89 121.15 404.89 C 121.04 403.62 120.94 402.36 120.84 401.10 C 120.69 399.54 120.39 396.44 120.24 394.88 C 119.82 392.51 119.30 390.17 118.95 387.79 C 118.92 387.13 118.85 385.81 118.82 385.15 C 119.95 370.79 107.24 359.08 94.23 356.05 C 91.42 359.78 94.51 363.61 95.93 367.15 C 93.90 365.16 91.83 363.23 89.86 361.20 C 89.81 360.73 89.73 359.80 89.68 359.33 C 89.72 358.79 89.81 357.69 89.85 357.15 C 90.40 355.71 90.45 353.92 89.11 352.91 C 89.05 352.12 88.93 350.56 88.87 349.77 C 88.87 347.72 88.36 345.73 87.84 343.76 C 87.57 341.97 89.24 338.06 86.06 339.00 C 86.23 349.73 85.19 360.59 86.63 371.25 C 86.75 371.92 87.00 373.26 87.13 373.93 L 87.03 375.08 C 82.03 364.19 86.52 350.65 84.90 338.78 C 80.08 344.00 84.50 353.41 82.95 360.00 C 84.36 373.96 81.12 389.31 86.74 402.32 C 85.38 414.24 102.12 409.80 109.29 409.35 C 114.81 406.74 105.88 402.79 103.08 401.00 C 104.00 396.94 106.12 392.27 110.15 390.50 C 113.01 391.63 115.81 393.34 115.29 396.87 C 114.62 398.25 114.47 400.10 115.85 401.12 C 115.93 401.81 116.08 403.20 116.16 403.89 C 115.64 405.29 115.47 407.18 116.96 408.08 C 117.84 411.77 117.41 416.24 113.30 417.30 C 109.09 417.36 104.66 416.59 100.55 417.90 C 93.30 418.02 86.04 417.90 78.78 418.09 C 85.56 422.67 96.03 418.90 104.28 420.14 C 95.60 421.67 86.76 420.70 78.00 421.00 C 74.90 420.44 75.09 425.60 72.00 425.02 C 63.82 423.34 58.30 416.80 52.33 411.54 C 42.00 407.44 52.78 415.62 48.24 417.19 C 46.92 418.08 45.33 418.46 43.84 418.98 C 42.84 412.52 48.91 405.93 45.26 399.75 C 45.73 396.95 46.49 394.22 47.13 391.46 C 47.71 389.04 48.32 386.71 48.77 384.30 C 52.77 368.76 56.34 353.06 58.20 337.11 C 58.36 335.56 58.67 332.46 58.82 330.90 C 58.95 329.03 59.09 327.15 59.28 325.28 M 123.03 380.85 C 124.45 383.96 123.09 390.22 126.01 391.99 C 129.14 400.03 126.50 413.24 134.07 418.03 C 130.13 408.99 130.36 398.87 126.64 389.75 C 127.05 386.61 125.66 382.75 123.03 380.85 Z" />
</g>
<g id="#17110fff">
<path fill="#17110f" opacity="1.00" d=" M 449.19 294.80 L 449.98 295.11 C 449.95 297.67 449.91 300.24 449.88 302.82 C 448.87 303.03 447.88 303.30 446.90 303.60 C 429.47 323.19 410.05 340.95 391.73 359.73 C 380.31 369.25 370.43 380.74 361.89 392.90 C 344.20 408.00 328.23 425.38 311.80 441.97 C 323.49 439.63 335.33 440.86 347.01 442.99 C 354.06 440.93 361.21 438.74 367.00 433.96 C 369.33 431.35 373.21 437.68 373.72 432.84 C 373.75 426.65 381.74 429.07 383.63 424.23 C 385.03 421.91 387.63 421.59 390.17 421.21 C 392.08 421.08 393.99 420.97 395.90 420.87 C 398.82 422.16 401.21 421.91 403.08 420.10 C 404.80 420.07 408.23 420.01 409.95 419.98 C 413.32 419.96 416.76 420.03 420.15 419.98 C 424.15 419.94 428.15 419.88 432.17 419.80 C 434.71 420.95 437.55 422.13 438.94 424.74 C 434.40 427.60 431.26 432.79 430.95 438.12 C 437.29 435.95 443.16 432.70 447.51 427.51 C 449.34 424.69 452.63 427.18 455.25 426.91 C 455.89 424.62 457.97 423.23 459.88 422.03 C 462.82 426.22 464.38 418.73 465.74 416.71 C 469.70 412.37 461.49 402.99 467.00 400.71 C 467.80 403.18 468.45 405.71 469.09 408.24 C 471.01 416.69 473.18 425.09 474.40 433.69 C 474.27 437.83 474.19 441.98 474.14 446.14 C 472.66 449.47 470.26 452.24 468.03 455.07 C 460.36 457.60 452.17 457.11 444.22 456.88 C 441.10 456.42 438.03 456.09 434.90 456.05 L 434.08 455.96 C 431.29 455.53 428.58 455.18 425.78 455.13 C 424.27 455.05 422.77 454.99 421.27 454.96 C 419.68 454.77 416.49 454.40 414.90 454.21 C 414.18 454.07 412.74 453.78 412.02 453.64 C 409.51 452.08 407.16 451.99 404.98 453.36 C 404.26 453.22 402.83 452.93 402.12 452.79 C 400.56 452.65 397.44 452.36 395.89 452.22 C 385.01 450.35 374.01 449.35 363.10 447.75 C 361.64 446.47 359.63 446.61 357.92 447.20 C 355.97 447.06 354.03 446.95 352.09 446.85 C 350.54 446.67 347.45 446.32 345.91 446.15 C 344.34 446.04 342.77 445.95 341.21 445.86 C 338.39 445.52 335.64 445.25 332.84 445.07 C 332.42 445.02 331.59 444.92 331.18 444.87 C 326.74 443.92 322.24 444.05 317.76 444.19 C 312.65 442.18 302.36 447.49 299.62 441.96 C 318.06 426.91 334.24 409.30 350.43 391.91 C 351.10 391.25 351.77 390.59 352.44 389.93 C 356.36 386.07 360.57 382.43 363.95 378.06 C 364.96 376.77 366.01 375.50 367.10 374.27 C 368.52 372.92 369.90 371.54 371.27 370.15 C 378.27 363.25 385.34 356.40 392.01 349.17 C 410.41 333.18 427.28 315.52 445.34 299.15 C 446.71 297.78 447.96 296.29 449.19 294.80 Z" />
</g>
<g id="#4d4035ff">
<path fill="#4d4035" opacity="1.00" d=" M 449.98 295.11 C 452.51 299.12 450.06 306.24 450.79 311.24 C 450.35 308.41 450.09 305.64 449.88 302.82 C 449.91 300.24 449.95 297.67 449.98 295.11 Z" />
</g>
<g id="#1e1916ff">
<path fill="#1e1916" opacity="1.00" d=" M 446.90 303.60 C 447.88 303.30 448.87 303.03 449.88 302.82 C 450.09 305.64 450.35 308.41 450.79 311.24 C 450.93 312.39 451.10 313.55 451.31 314.71 C 451.26 317.55 451.00 320.48 451.66 323.29 C 454.71 345.16 458.26 367.01 463.91 388.38 C 464.53 391.37 465.29 394.32 466.09 397.29 C 466.36 398.43 466.68 399.57 467.00 400.71 C 461.49 402.99 469.70 412.37 465.74 416.71 C 464.38 418.73 462.82 426.22 459.88 422.03 C 457.97 423.23 455.89 424.62 455.25 426.91 C 452.63 427.18 449.34 424.69 447.51 427.51 C 443.16 432.70 437.29 435.95 430.95 438.12 C 431.26 432.79 434.40 427.60 438.94 424.74 C 437.55 422.13 434.71 420.95 432.17 419.80 C 428.10 417.58 423.31 418.09 418.84 418.00 C 415.94 417.91 413.11 417.96 410.24 417.84 C 406.10 417.06 401.93 417.20 397.77 417.23 C 393.64 416.85 395.19 412.08 395.03 409.09 C 396.53 408.19 396.35 406.29 395.82 404.89 C 395.92 404.20 396.13 402.82 396.23 402.13 C 397.34 399.62 398.82 396.53 396.07 394.88 C 395.72 392.85 395.31 390.84 394.86 388.84 C 394.68 387.64 393.91 386.67 393.35 385.64 L 393.17 384.86 C 405.10 378.99 417.06 372.49 427.18 363.91 C 424.44 363.87 422.48 365.88 420.31 367.21 C 414.20 366.88 407.45 376.36 402.83 368.95 C 407.27 360.67 420.58 367.78 422.55 358.54 C 425.84 351.86 430.96 346.52 436.67 341.76 C 440.99 339.62 446.70 338.59 449.79 334.73 C 448.23 324.60 448.31 314.38 448.76 304.21 C 448.30 304.06 447.37 303.76 446.90 303.60 M 424.37 368.61 C 423.24 369.08 422.27 370.49 422.34 371.69 C 421.44 372.57 418.92 373.26 419.36 374.72 C 412.28 380.45 402.65 383.59 397.10 390.80 C 400.05 392.45 403.33 396.66 405.80 392.65 C 408.27 392.75 411.70 394.38 410.38 397.35 C 409.01 399.60 410.94 402.43 410.88 404.91 C 407.82 405.25 403.83 403.81 402.41 407.35 C 400.49 409.01 405.72 418.30 410.67 414.93 C 410.39 410.38 415.81 412.16 418.71 410.71 C 424.26 407.41 418.26 399.92 420.00 395.02 C 422.99 389.48 418.07 390.28 415.51 389.00 C 418.39 387.44 421.42 385.82 423.31 383.04 C 423.99 389.01 425.29 394.96 425.07 401.02 C 427.71 398.10 425.08 390.54 425.70 386.27 C 426.28 381.53 425.97 376.72 426.02 371.97 C 431.57 364.52 424.08 366.39 424.37 368.61 Z" />
</g>
<g id="#231d1cff">
<path fill="#231d1c" opacity="1.00" d=" M 391.73 359.73 C 410.05 340.95 429.47 323.19 446.90 303.60 C 447.37 303.76 448.30 304.06 448.76 304.21 C 448.31 314.38 448.23 324.60 449.79 334.73 C 446.70 338.59 440.99 339.62 436.67 341.76 C 430.96 346.52 425.84 351.86 422.55 358.54 C 420.58 367.78 407.27 360.67 402.83 368.95 C 407.45 376.36 414.20 366.88 420.31 367.21 C 411.14 373.49 400.85 379.39 391.23 384.00 C 391.65 388.37 392.03 392.76 390.79 397.05 L 390.03 397.25 C 388.88 397.58 387.56 398.10 387.60 396.35 C 385.49 387.46 389.45 375.77 398.69 372.76 C 396.60 371.64 398.50 369.91 399.07 368.42 C 395.29 370.12 396.06 364.46 392.61 364.46 C 389.13 364.46 390.99 361.71 391.73 359.73 Z" />
</g>
<g id="#130e0bff">
<path fill="#130e0b" opacity="1.00" d=" M 211.61 312.75 C 214.45 305.56 224.36 310.29 230.15 308.21 C 253.27 310.06 276.61 306.74 299.61 309.38 C 307.66 310.28 305.59 323.54 315.04 322.33 C 308.93 327.85 299.94 327.04 292.34 326.90 C 292.15 326.20 291.75 324.81 291.56 324.12 C 293.10 322.42 294.64 320.73 296.15 319.00 C 297.70 317.77 299.23 316.47 300.44 314.89 C 300.65 314.45 301.05 313.56 301.26 313.12 C 271.38 312.63 241.48 313.46 211.61 312.75 Z" />
</g>
<g id="#7b7b73ff">
<path fill="#7b7b73" opacity="1.00" d=" M 211.58 314.93 C 210.90 314.24 210.91 313.52 211.61 312.75 C 241.48 313.46 271.38 312.63 301.26 313.12 C 301.05 313.56 300.65 314.45 300.44 314.89 C 271.12 313.22 241.04 313.51 211.58 314.93 Z" />
</g>
<g id="#7d6b60ff">
<path fill="#7d6b60" opacity="1.00" d=" M 451.31 314.71 C 452.04 317.52 451.64 320.39 451.66 323.29 C 451.00 320.48 451.26 317.55 451.31 314.71 Z" />
</g>
<g id="#93928dff">
<path fill="#93928d" opacity="1.00" d=" M 290.76 323.61 C 291.82 321.33 293.58 319.44 296.15 319.00 C 294.64 320.73 293.10 322.42 291.56 324.12 L 290.76 323.61 Z" />
</g>
<g id="#817977ff">
<path fill="#817977" opacity="1.00" d=" M 217.13 320.70 C 225.34 326.80 227.20 338.72 233.16 346.99 C 230.54 346.84 227.96 346.31 225.35 346.18 C 226.10 337.18 221.97 328.21 217.13 320.70 Z" />
</g>
<g id="#aeaea0ff">
<path fill="#aeaea0" opacity="1.00" d=" M 147.93 323.07 C 149.13 321.33 151.39 321.62 153.10 322.33 C 151.58 323.39 149.68 323.37 147.93 323.07 Z" />
</g>
<g id="#7b7674ff">
<path fill="#7b7674" opacity="1.00" d=" M 360.77 322.22 C 363.55 322.17 369.13 322.09 371.92 322.04 C 372.19 329.74 371.96 337.45 372.18 345.16 C 372.11 345.62 371.98 346.55 371.91 347.02 L 370.99 346.94 C 371.00 339.05 371.15 331.17 370.88 323.30 C 368.35 323.03 363.29 322.49 360.77 322.22 Z" />
</g>
<g id="#94958dff">
<path fill="#94958d" opacity="1.00" d=" M 142.63 325.26 C 141.69 322.08 146.08 322.74 147.93 323.07 C 146.25 323.99 144.43 324.62 142.63 325.26 Z" />
</g>
<g id="#8d8c86ff">
<path fill="#8d8c86" opacity="1.00" d=" M 281.67 345.65 C 285.19 338.50 286.62 330.44 290.76 323.61 C 290.79 325.45 290.70 327.31 290.22 329.10 C 289.71 330.65 289.20 332.20 288.77 333.78 C 287.05 338.15 284.92 342.41 283.77 347.00 C 282.55 346.93 280.22 347.52 281.67 345.65 Z" />
</g>
<g id="#7a7674ff">
<path fill="#7a7674" opacity="1.00" d=" M 142.21 333.16 C 142.37 331.59 142.70 328.45 142.87 326.88 C 142.70 328.45 142.37 331.59 142.21 333.16 Z" />
</g>
<g id="#0f0e0dff">
<path fill="#0f0e0d" opacity="1.00" d=" M 95.06 331.95 C 93.02 330.18 95.57 329.02 96.86 327.86 C 101.43 332.84 106.75 337.05 111.53 341.83 C 118.36 349.59 126.32 356.19 133.95 363.12 C 135.45 364.93 137.10 366.63 138.79 368.27 C 140.47 369.97 142.14 371.68 143.87 373.33 C 145.92 375.41 148.02 377.44 150.15 379.45 C 153.50 382.74 156.65 386.22 159.57 389.90 C 176.39 405.30 191.43 422.46 208.31 437.84 C 208.99 441.66 205.87 441.19 203.27 440.35 C 182.41 424.09 165.78 403.45 146.74 385.26 C 130.52 366.54 111.56 350.35 95.06 331.95 Z" />
</g>
<g id="#0e0a08ff">
<path fill="#0e0a08" opacity="1.00" d=" M 146.20 331.29 C 164.94 326.44 184.75 327.43 203.86 329.07 C 212.92 333.09 197.22 340.10 204.15 345.94 C 184.44 346.02 164.72 346.06 145.01 345.93 C 144.95 341.03 145.24 336.10 146.20 331.29 Z" />
</g>
<g id="#6d5c4cff">
<path fill="#6d5c4c" opacity="1.00" d=" M 58.20 337.11 C 58.36 335.56 58.67 332.46 58.82 330.90 C 58.67 332.46 58.36 335.56 58.20 337.11 Z" />
</g>
<g id="#a9aba3ff">
<path fill="#a9aba3" opacity="1.00" d=" M 141.17 338.15 C 140.61 336.71 140.56 334.97 141.79 333.86 C 142.39 335.28 142.46 337.07 141.17 338.15 Z" />
</g>
<g id="#3b3834ff">
<path fill="#3b3834" opacity="1.00" d=" M 283.77 347.00 C 284.92 342.41 287.05 338.15 288.77 333.78 C 288.00 337.85 286.96 341.88 286.09 345.94 C 313.46 346.58 340.91 344.97 368.23 346.75 C 353.42 347.26 338.59 346.76 323.78 347.18 C 310.45 346.71 297.10 347.15 283.77 347.00 Z" />
</g>
<g id="#0c0a09ff">
<path fill="#0c0a09" opacity="1.00" d=" M 82.95 360.00 C 84.50 353.41 80.08 344.00 84.90 338.78 C 86.52 350.65 82.03 364.19 87.03 375.08 C 86.97 381.43 87.00 387.79 87.03 394.15 C 86.94 396.86 86.84 399.58 86.74 402.32 C 81.12 389.31 84.36 373.96 82.95 360.00 Z" />
</g>
<g id="#555355ff">
<path fill="#555355" opacity="1.00" d=" M 86.06 339.00 C 89.24 338.06 87.57 341.97 87.84 343.76 C 87.19 348.74 86.63 353.82 87.05 358.85 C 87.12 361.20 88.69 363.06 90.04 364.83 C 89.74 365.10 89.13 365.63 88.83 365.90 C 85.40 363.35 86.76 368.54 86.63 371.25 C 85.19 360.59 86.23 349.73 86.06 339.00 Z" />
</g>
<g id="#878580ff">
<path fill="#878580" opacity="1.00" d=" M 140.16 345.01 C 139.62 343.29 139.49 341.31 140.76 339.87 C 141.38 341.56 141.62 343.65 140.16 345.01 Z" />
<path fill="#878580" opacity="1.00" d=" M 107.81 420.14 C 111.31 419.96 114.80 420.13 118.26 420.75 C 114.76 421.10 111.25 420.85 107.81 420.14 Z" />
</g>
<g id="#ac8f6eff">
</g>
<g id="#959697ff">
<path fill="#959697" opacity="1.00" d=" M 87.05 358.85 C 86.63 353.82 87.19 348.74 87.84 343.76 C 88.36 345.73 88.87 347.72 88.87 349.77 C 88.26 352.99 86.90 356.80 89.68 359.33 C 89.73 359.80 89.81 360.73 89.86 361.20 C 88.90 360.44 88.01 359.60 87.05 358.85 Z" />
</g>
<g id="#787570ff">
<path fill="#787570" opacity="1.00" d=" M 143.79 346.96 C 144.09 346.70 144.70 346.19 145.01 345.93 C 164.72 346.06 184.44 346.02 204.15 345.94 C 211.22 346.05 218.28 346.02 225.35 346.18 C 198.23 348.04 170.96 346.52 143.79 346.96 Z" />
</g>
<g id="#e0ddd8ff">
<path fill="#e0ddd8" opacity="1.00" d=" M 323.78 347.18 C 338.59 346.76 353.42 347.26 368.23 346.75 C 368.92 346.80 370.30 346.89 370.99 346.94 L 371.91 347.02 L 371.75 347.89 C 355.78 347.88 339.69 348.77 323.78 347.18 Z" />
</g>
<g id="#d0d2d1ff">
<path fill="#d0d2d1" opacity="1.00" d=" M 89.68 359.33 C 86.90 356.80 88.26 352.99 88.87 349.77 C 88.93 350.56 89.05 352.12 89.11 352.91 C 88.63 354.34 88.55 356.10 89.85 357.15 C 89.81 357.69 89.72 358.79 89.68 359.33 Z" />
</g>
<g id="#777874ff">
<path fill="#777874" opacity="1.00" d=" M 89.11 352.91 C 90.45 353.92 90.40 355.71 89.85 357.15 C 88.55 356.10 88.63 354.34 89.11 352.91 Z" />
</g>
<g id="#e6e4e1ff">
<path fill="#e6e4e1" opacity="1.00" d=" M 196.99 357.96 C 242.22 349.91 289.20 352.36 334.04 361.89 C 346.83 362.48 359.21 366.07 371.27 370.15 C 369.90 371.54 368.52 372.92 367.10 374.27 C 318.11 355.37 264.27 355.19 212.52 358.38 C 192.76 361.97 172.65 365.38 153.96 372.93 C 150.31 373.34 150.08 376.62 150.15 379.45 C 148.02 377.44 145.92 375.41 143.87 373.33 C 157.64 358.75 179.67 363.94 196.99 357.96 Z" />
<path fill="#e6e4e1" opacity="1.00" d=" M 321.05 393.16 C 331.63 393.03 341.86 387.22 352.44 389.93 C 351.77 390.59 351.10 391.25 350.43 391.91 C 347.44 390.25 344.02 391.19 340.87 391.83 C 325.95 396.13 310.47 398.25 294.94 396.67 C 303.46 394.13 312.46 395.33 321.05 393.16 Z" />
</g>
<g id="#38292bff">
<path fill="#38292b" opacity="1.00" d=" M 94.23 356.05 C 107.24 359.08 119.95 370.79 118.82 385.15 C 117.87 384.11 116.93 383.06 115.88 382.11 C 109.37 376.97 101.16 373.89 95.93 367.15 C 94.51 363.61 91.42 359.78 94.23 356.05 Z" />
</g>
<g id="#dad8d4ff">
<path fill="#dad8d4" opacity="1.00" d=" M 212.52 358.38 C 264.27 355.19 318.11 355.37 367.10 374.27 C 366.01 375.50 364.96 376.77 363.95 378.06 C 355.94 371.92 345.64 372.31 336.73 368.37 C 304.30 359.82 270.40 357.53 237.02 359.95 C 217.09 359.25 196.70 362.39 178.41 370.50 C 172.18 374.45 164.32 374.14 158.19 378.34 C 157.14 381.41 161.44 382.30 163.11 383.87 C 169.64 387.28 176.65 391.37 184.25 390.87 C 189.21 391.80 194.19 392.72 199.26 392.76 C 205.07 393.73 210.93 394.48 216.80 395.00 C 218.14 395.48 220.81 396.45 222.15 396.93 C 221.57 396.99 220.41 397.09 219.83 397.14 C 205.04 396.72 190.24 395.28 175.98 391.13 C 170.68 390.49 164.79 387.55 159.57 389.90 C 156.65 386.22 153.50 382.74 150.15 379.45 C 150.08 376.62 150.31 373.34 153.96 372.93 C 172.65 365.38 192.76 361.97 212.52 358.38 Z" />
</g>
<g id="#d9d6d3ff">
<path fill="#d9d6d3" opacity="1.00" d=" M 87.05 358.85 C 88.01 359.60 88.90 360.44 89.86 361.20 C 91.83 363.23 93.90 365.16 95.93 367.15 C 101.16 373.89 109.37 376.97 115.88 382.11 C 115.96 382.85 116.11 384.31 116.19 385.05 C 106.04 380.39 98.17 372.24 90.04 364.83 C 88.69 363.06 87.12 361.20 87.05 358.85 Z" />
</g>
<g id="#cdcbc8ff">
<path fill="#cdcbc8" opacity="1.00" d=" M 237.02 359.95 C 270.40 357.53 304.30 359.82 336.73 368.37 C 345.64 372.31 355.94 371.92 363.95 378.06 C 360.57 382.43 356.36 386.07 352.44 389.93 C 341.86 387.22 331.63 393.03 321.05 393.16 C 312.46 395.33 303.46 394.13 294.94 396.67 L 294.29 396.77 C 270.30 397.26 246.14 396.33 222.15 396.93 C 220.81 396.45 218.14 395.48 216.80 395.00 L 217.29 393.94 C 244.02 395.90 270.99 395.79 297.74 393.79 C 306.56 394.66 315.16 392.26 323.78 390.81 C 334.78 389.04 351.53 389.61 356.10 377.30 C 347.50 376.03 338.38 375.00 331.12 369.85 C 305.52 362.50 278.48 361.14 251.99 361.08 C 234.66 362.56 216.85 360.88 200.00 366.02 C 188.85 368.29 180.11 376.35 169.19 379.31 C 167.99 387.30 178.61 388.56 184.25 390.87 C 176.65 391.37 169.64 387.28 163.11 383.87 C 161.44 382.30 157.14 381.41 158.19 378.34 C 164.32 374.14 172.18 374.45 178.41 370.50 C 196.70 362.39 217.09 359.25 237.02 359.95 Z" />
</g>
<g id="#1d1716ff">
<path fill="#1d1716" opacity="1.00" d=" M 361.89 392.90 C 370.43 380.74 380.31 369.25 391.73 359.73 C 390.99 361.71 389.13 364.46 392.61 364.46 C 396.06 364.46 395.29 370.12 399.07 368.42 C 398.50 369.91 396.60 371.64 398.69 372.76 C 389.45 375.77 385.49 387.46 387.60 396.35 C 387.56 398.10 388.88 397.58 390.03 397.25 C 390.09 398.96 390.22 402.39 390.29 404.11 C 389.32 409.70 389.37 416.36 384.82 420.41 C 383.55 421.36 382.98 422.71 383.63 424.23 C 381.74 429.07 373.75 426.65 373.72 432.84 C 373.21 437.68 369.33 431.35 367.00 433.96 C 361.21 438.74 354.06 440.93 347.01 442.99 C 335.33 440.86 323.49 439.63 311.80 441.97 C 328.23 425.38 344.20 408.00 361.89 392.90 M 381.12 388.96 C 381.06 389.44 380.94 390.41 380.88 390.89 C 377.61 392.23 378.55 400.40 380.00 400.97 C 379.85 405.73 379.98 410.47 380.10 415.25 C 383.38 412.12 381.47 406.85 382.01 403.01 C 384.44 401.13 383.35 391.65 382.02 389.98 L 382.01 389.03 C 382.16 385.98 381.90 382.80 381.91 379.79 C 378.33 381.49 381.45 386.05 381.12 388.96 M 375.98 389.93 C 377.26 393.53 373.41 400.12 377.97 402.15 C 377.83 398.17 378.76 392.58 375.98 389.93 Z" />
</g>
<g id="#c3c1beff">
<path fill="#c3c1be" opacity="1.00" d=" M 200.00 366.02 C 216.85 360.88 234.66 362.56 251.99 361.08 C 278.48 361.14 305.52 362.50 331.12 369.85 C 338.38 375.00 347.50 376.03 356.10 377.30 C 351.53 389.61 334.78 389.04 323.78 390.81 C 331.20 389.15 338.64 386.99 345.29 383.24 C 348.07 376.70 335.97 378.11 332.60 375.34 C 323.10 367.58 310.13 367.29 298.53 365.57 C 268.09 361.87 236.91 361.43 206.62 366.54 C 195.47 368.54 186.09 374.90 176.69 380.72 C 175.24 382.21 175.74 385.32 177.77 386.23 C 184.49 389.59 192.26 390.12 199.26 392.76 C 194.19 392.72 189.21 391.80 184.25 390.87 C 178.61 388.56 167.99 387.30 169.19 379.31 C 180.11 376.35 188.85 368.29 200.00 366.02 Z" />
</g>
<g id="#b9b7b3ff">
<path fill="#b9b7b3" opacity="1.00" d=" M 206.62 366.54 C 236.91 361.43 268.09 361.87 298.53 365.57 C 310.13 367.29 323.10 367.58 332.60 375.34 C 335.97 378.11 348.07 376.70 345.29 383.24 C 338.64 386.99 331.20 389.15 323.78 390.81 C 315.16 392.26 306.56 394.66 297.74 393.79 C 300.00 392.85 302.33 392.06 304.77 391.75 C 314.75 391.97 324.71 389.44 334.02 386.05 C 336.23 385.03 340.20 381.03 336.63 379.47 C 326.98 377.79 319.99 369.55 309.90 369.14 C 280.55 364.18 250.64 362.55 221.03 366.08 C 207.61 367.97 193.23 371.57 183.28 381.30 C 180.06 384.60 185.99 386.71 188.28 387.65 C 194.73 389.82 201.31 392.13 208.24 391.80 C 211.28 392.41 214.31 393.06 217.29 393.94 L 216.80 395.00 C 210.93 394.48 205.07 393.73 199.26 392.76 C 192.26 390.12 184.49 389.59 177.77 386.23 C 175.74 385.32 175.24 382.21 176.69 380.72 C 186.09 374.90 195.47 368.54 206.62 366.54 Z" />
</g>
<g id="#aeaca8ff">
<path fill="#aeaca8" opacity="1.00" d=" M 221.03 366.08 C 250.64 362.55 280.55 364.18 309.90 369.14 C 319.99 369.55 326.98 377.79 336.63 379.47 C 340.20 381.03 336.23 385.03 334.02 386.05 C 324.71 389.44 314.75 391.97 304.77 391.75 C 313.91 389.07 326.33 390.00 332.08 381.11 C 318.81 373.56 304.37 368.51 289.00 367.98 C 255.60 365.39 217.23 361.16 187.90 381.13 C 189.93 389.67 201.49 388.60 208.24 391.80 C 201.31 392.13 194.73 389.82 188.28 387.65 C 185.99 386.71 180.06 384.60 183.28 381.30 C 193.23 371.57 207.61 367.97 221.03 366.08 Z" />
</g>
<g id="#8d8983ff">
<path fill="#8d8983" opacity="1.00" d=" M 420.31 367.21 C 422.48 365.88 424.44 363.87 427.18 363.91 C 417.06 372.49 405.10 378.99 393.17 384.86 C 392.68 384.65 391.72 384.21 391.23 384.00 C 400.85 379.39 411.14 373.49 420.31 367.21 Z" />
</g>
<g id="#c8c6cbff">
<path fill="#c8c6cb" opacity="1.00" d=" M 86.63 371.25 C 86.76 368.54 85.40 363.35 88.83 365.90 L 89.13 366.71 C 89.96 369.66 91.37 372.41 93.02 374.99 C 91.85 377.31 88.10 375.47 88.93 378.94 C 87.65 382.51 87.63 375.76 87.13 373.93 C 87.00 373.26 86.75 371.92 86.63 371.25 Z" />
</g>
<g id="#1d1d1eff">
<path fill="#1d1d1e" opacity="1.00" d=" M 88.83 365.90 C 89.13 365.63 89.74 365.10 90.04 364.83 C 98.17 372.24 106.04 380.39 116.19 385.05 C 116.48 386.69 116.13 388.34 115.89 389.98 C 113.56 389.56 111.79 387.81 109.86 386.58 C 105.42 382.58 100.70 378.93 96.25 374.95 C 93.90 372.17 91.55 369.41 89.13 366.71 L 88.83 365.90 Z" />
</g>
<g id="#a3a19dff">
<path fill="#a3a19d" opacity="1.00" d=" M 187.90 381.13 C 217.23 361.16 255.60 365.39 289.00 367.98 C 304.37 368.51 318.81 373.56 332.08 381.11 C 326.33 390.00 313.91 389.07 304.77 391.75 C 302.33 392.06 300.00 392.85 297.74 393.79 C 270.99 395.79 244.02 395.90 217.29 393.94 C 214.31 393.06 211.28 392.41 208.24 391.80 C 201.49 388.60 189.93 389.67 187.90 381.13 M 238.38 368.42 C 223.30 369.44 208.49 373.39 195.03 380.17 C 195.14 388.56 207.16 388.15 212.99 391.00 C 244.69 395.93 277.55 395.55 309.01 389.04 C 314.12 387.04 322.50 387.26 324.91 381.16 C 299.11 366.38 267.26 367.32 238.38 368.42 Z" />
</g>
<g id="#66686eff">
<path fill="#66686e" opacity="1.00" d=" M 89.13 366.71 C 91.55 369.41 93.90 372.17 96.25 374.95 C 96.63 378.22 94.43 375.86 93.02 374.99 C 91.37 372.41 89.96 369.66 89.13 366.71 Z" />
</g>
<g id="#5d5b58ff">
<path fill="#5d5b58" opacity="1.00" d=" M 424.37 368.61 C 424.08 366.39 431.57 364.52 426.02 371.97 C 425.97 376.72 426.28 381.53 425.70 386.27 C 424.89 380.41 425.45 374.42 424.37 368.61 Z" />
</g>
<g id="#94908cff">
<path fill="#94908c" opacity="1.00" d=" M 238.38 368.42 C 267.26 367.32 299.11 366.38 324.91 381.16 C 322.50 387.26 314.12 387.04 309.01 389.04 C 277.55 395.55 244.69 395.93 212.99 391.00 C 207.16 388.15 195.14 388.56 195.03 380.17 C 208.49 373.39 223.30 369.44 238.38 368.42 M 247.41 370.57 C 231.23 371.36 215.13 374.37 199.97 380.18 C 199.76 381.83 201.16 382.81 202.24 383.79 C 216.98 393.22 235.31 391.69 251.99 392.98 C 272.11 392.96 292.55 391.66 311.98 385.98 C 314.50 384.92 317.75 383.17 318.04 380.19 C 295.66 371.52 271.25 368.74 247.41 370.57 Z" />
</g>
<g id="#898785ff">
<path fill="#898785" opacity="1.00" d=" M 422.34 371.69 C 422.27 370.49 423.24 369.08 424.37 368.61 C 425.45 374.42 424.89 380.41 425.70 386.27 C 425.08 390.54 427.71 398.10 425.07 401.02 C 425.29 394.96 423.99 389.01 423.31 383.04 L 423.26 382.41 C 423.78 378.77 423.30 375.21 422.34 371.69 Z" />
</g>
<g id="#85817cff">
<path fill="#85817c" opacity="1.00" d=" M 247.41 370.57 C 271.25 368.74 295.66 371.52 318.04 380.19 C 317.75 383.17 314.50 384.92 311.98 385.98 C 292.55 391.66 272.11 392.96 251.99 392.98 C 235.31 391.69 216.98 393.22 202.24 383.79 C 201.16 382.81 199.76 381.83 199.97 380.18 C 215.13 374.37 231.23 371.36 247.41 370.57 M 251.38 372.41 C 236.46 374.34 220.89 374.95 206.97 381.12 C 209.67 385.44 215.42 386.49 219.99 388.02 C 243.54 393.23 268.17 391.68 291.91 388.81 C 298.06 386.68 309.03 386.14 311.91 380.23 C 292.22 374.92 271.85 371.39 251.38 372.41 Z" />
</g>
<g id="#76716cff">
<path fill="#76716c" opacity="1.00" d=" M 251.38 372.41 C 271.85 371.39 292.22 374.92 311.91 380.23 C 309.03 386.14 298.06 386.68 291.91 388.81 C 268.17 391.68 243.54 393.23 219.99 388.02 C 215.42 386.49 209.67 385.44 206.97 381.12 C 220.89 374.95 236.46 374.34 251.38 372.41 M 248.41 375.58 C 238.18 375.85 228.08 377.33 218.30 380.37 C 213.94 383.17 221.74 385.17 223.90 386.12 C 249.24 392.08 276.54 391.62 301.36 383.39 C 303.93 383.24 303.09 380.13 300.93 380.07 C 283.93 375.42 265.93 374.13 248.41 375.58 Z" />
</g>
<g id="#bab8b7ff">
<path fill="#bab8b7" opacity="1.00" d=" M 419.36 374.72 C 418.92 373.26 421.44 372.57 422.34 371.69 C 423.30 375.21 423.78 378.77 423.26 382.41 C 420.90 380.48 420.57 377.33 419.36 374.72 Z" />
</g>
<g id="#adaaabff">
<path fill="#adaaab" opacity="1.00" d=" M 87.13 373.93 C 87.63 375.76 87.65 382.51 88.93 378.94 C 88.10 375.47 91.85 377.31 93.02 374.99 C 94.43 375.86 96.63 378.22 96.25 374.95 C 100.70 378.93 105.42 382.58 109.86 386.58 C 109.73 387.76 109.64 388.95 109.54 390.15 C 104.71 388.31 101.51 383.78 96.87 381.88 C 97.31 384.05 102.24 389.34 97.35 388.29 C 93.03 386.63 85.88 384.87 89.16 392.60 C 88.63 392.99 87.56 393.76 87.03 394.15 C 87.00 387.79 86.97 381.43 87.03 375.08 L 87.13 373.93 Z" />
</g>
<g id="#68615cff">
<path fill="#68615c" opacity="1.00" d=" M 248.41 375.58 C 265.93 374.13 283.93 375.42 300.93 380.07 C 303.09 380.13 303.93 383.24 301.36 383.39 C 276.54 391.62 249.24 392.08 223.90 386.12 C 221.74 385.17 213.94 383.17 218.30 380.37 C 228.08 377.33 238.18 375.85 248.41 375.58 M 243.41 378.57 C 238.24 379.16 233.00 379.39 228.09 381.28 C 227.89 385.94 235.30 384.35 238.07 385.86 C 255.22 387.50 273.57 389.03 290.00 382.77 C 276.63 375.17 258.55 378.53 243.41 378.57 Z" />
</g>
<g id="#e1e0dfff">
<path fill="#e1e0df" opacity="1.00" d=" M 397.10 390.80 C 402.65 383.59 412.28 380.45 419.36 374.72 C 420.57 377.33 420.90 380.48 423.26 382.41 L 423.31 383.04 C 421.42 385.82 418.39 387.44 415.51 389.00 C 412.31 390.32 409.03 391.42 405.80 392.65 C 403.33 396.66 400.05 392.45 397.10 390.80 Z" />
</g>
<g id="#ac8f6cff">
</g>
<g id="#58504cff">
<path fill="#58504c" opacity="1.00" d=" M 243.41 378.57 C 258.55 378.53 276.63 375.17 290.00 382.77 C 273.57 389.03 255.22 387.50 238.07 385.86 C 235.30 384.35 227.89 385.94 228.09 381.28 C 233.00 379.39 238.24 379.16 243.41 378.57 Z" />
</g>
<g id="#544e4bff">
<path fill="#544e4b" opacity="1.00" d=" M 381.12 388.96 C 381.45 386.05 378.33 381.49 381.91 379.79 C 381.90 382.80 382.16 385.98 382.01 389.03 L 381.12 388.96 Z" />
</g>
<g id="#544f4bff">
<path fill="#544f4b" opacity="1.00" d=" M 123.03 380.85 C 125.66 382.75 127.05 386.61 126.64 389.75 C 126.49 390.31 126.17 391.43 126.01 391.99 C 123.09 390.22 124.45 383.96 123.03 380.85 Z" />
</g>
<g id="#78736fff">
<path fill="#78736f" opacity="1.00" d=" M 96.87 381.88 C 101.51 383.78 104.71 388.31 109.54 390.15 L 110.15 390.50 C 106.12 392.27 104.00 396.94 103.08 401.00 C 100.66 403.23 97.51 400.82 94.99 400.00 C 94.73 398.91 94.47 397.82 94.23 396.74 C 92.96 392.72 94.13 390.08 97.35 388.29 C 102.24 389.34 97.31 384.05 96.87 381.88 Z" />
</g>
<g id="#98948fff">
<path fill="#98948f" opacity="1.00" d=" M 115.88 382.11 C 116.93 383.06 117.87 384.11 118.82 385.15 C 118.85 385.81 118.92 387.13 118.95 387.79 C 117.92 388.51 116.93 389.27 115.89 389.98 C 116.13 388.34 116.48 386.69 116.19 385.05 C 116.11 384.31 115.96 382.85 115.88 382.11 Z" />
</g>
<g id="#dddbd9ff">
<path fill="#dddbd9" opacity="1.00" d=" M 391.23 384.00 C 391.72 384.21 392.68 384.65 393.17 384.86 L 393.35 385.64 C 392.70 391.12 392.83 394.21 394.86 388.84 C 395.31 390.84 395.72 392.85 396.07 394.88 C 396.11 396.69 396.19 400.32 396.23 402.13 C 396.13 402.82 395.92 404.20 395.82 404.89 C 394.62 405.96 394.58 407.64 395.03 409.09 C 395.19 412.08 393.64 416.85 397.77 417.23 C 401.87 418.13 406.07 417.88 410.24 417.84 C 410.17 418.38 410.02 419.44 409.95 419.98 C 408.23 420.01 404.80 420.07 403.08 420.10 C 400.16 418.83 397.77 419.08 395.90 420.87 C 393.99 420.97 392.08 421.08 390.17 421.21 C 388.37 421.03 386.59 420.76 384.82 420.41 C 389.37 416.36 389.32 409.70 390.29 404.11 C 391.80 401.62 391.97 399.27 390.79 397.05 C 392.03 392.76 391.65 388.37 391.23 384.00 Z" />
</g>
<g id="#8d8987ff">
<path fill="#8d8987" opacity="1.00" d=" M 393.35 385.64 C 393.91 386.67 394.68 387.64 394.86 388.84 C 392.83 394.21 392.70 391.12 393.35 385.64 Z" />
</g>
<g id="#1a1512ff">
<path fill="#1a1512" opacity="1.00" d=" M 89.16 392.60 C 85.88 384.87 93.03 386.63 97.35 388.29 C 94.13 390.08 92.96 392.72 94.23 396.74 C 94.39 405.85 89.29 396.76 89.16 392.60 Z" />
</g>
<g id="#d9d8d4ff">
<path fill="#d9d8d4" opacity="1.00" d=" M 109.54 390.15 C 109.64 388.95 109.73 387.76 109.86 386.58 C 111.79 387.81 113.56 389.56 115.89 389.98 C 116.93 389.27 117.92 388.51 118.95 387.79 C 119.30 390.17 119.82 392.51 120.24 394.88 C 120.39 396.44 120.69 399.54 120.84 401.10 C 120.94 402.36 121.04 403.62 121.15 404.89 C 120.61 406.30 120.59 407.96 121.66 409.15 C 122.23 414.38 127.27 418.43 127.11 423.52 C 124.30 422.22 121.37 421.03 118.26 420.75 C 114.80 420.13 111.31 419.96 107.81 420.14 C 107.41 420.09 106.60 419.99 106.20 419.94 C 104.78 419.43 101.96 418.41 100.55 417.90 C 104.72 417.49 109.27 418.81 113.30 417.30 C 117.41 416.24 117.84 411.77 116.96 408.08 C 117.40 406.63 117.39 404.95 116.16 403.89 C 116.08 403.20 115.93 401.81 115.85 401.12 C 116.39 399.69 116.42 398.02 115.29 396.87 C 115.81 393.34 113.01 391.63 110.15 390.50 L 109.54 390.15 Z" />
</g>
<g id="#f9f6f4ff">
<path fill="#f9f6f4" opacity="1.00" d=" M 159.57 389.90 C 164.79 387.55 170.68 390.49 175.98 391.13 C 190.24 395.28 205.04 396.72 219.83 397.14 C 237.18 409.83 261.39 408.90 280.78 402.75 C 284.77 399.75 289.57 398.19 294.29 396.77 L 294.94 396.67 C 310.47 398.25 325.95 396.13 340.87 391.83 C 344.02 391.19 347.44 390.25 350.43 391.91 C 334.24 409.30 318.06 426.91 299.62 441.96 C 286.47 453.95 271.86 464.29 256.95 473.95 C 244.09 466.18 232.21 456.86 220.17 447.87 C 218.96 446.58 217.78 445.25 216.38 444.17 C 216.10 443.96 215.54 443.52 215.26 443.30 C 213.00 441.41 210.73 439.52 208.31 437.84 C 191.43 422.46 176.39 405.30 159.57 389.90 Z" />
</g>
<g id="#d5d4d2ff">
<path fill="#d5d4d2" opacity="1.00" d=" M 381.12 388.96 L 382.01 389.03 L 382.02 389.98 C 381.99 394.31 381.93 398.66 382.01 403.01 C 381.47 406.85 383.38 412.12 380.10 415.25 C 379.98 410.47 379.85 405.73 380.00 400.97 C 380.17 397.57 380.50 394.25 380.88 390.89 C 380.94 390.41 381.06 389.44 381.12 388.96 Z" />
</g>
<g id="#302c2bff">
<path fill="#302c2b" opacity="1.00" d=" M 405.80 392.65 C 409.03 391.42 412.31 390.32 415.51 389.00 C 418.07 390.28 422.99 389.48 420.00 395.02 C 418.26 399.92 424.26 407.41 418.71 410.71 C 415.81 412.16 410.39 410.38 410.67 414.93 C 405.72 418.30 400.49 409.01 402.41 407.35 L 402.96 407.88 C 407.81 412.64 421.70 410.41 418.98 401.00 C 417.40 400.35 421.34 389.81 417.16 392.61 C 414.77 394.00 412.61 395.73 410.38 397.35 C 411.70 394.38 408.27 392.75 405.80 392.65 Z" />
</g>
<g id="#bab9b5ff">
<path fill="#bab9b5" opacity="1.00" d=" M 126.01 391.99 C 126.17 391.43 126.49 390.31 126.64 389.75 C 130.36 398.87 130.13 408.99 134.07 418.03 C 126.50 413.24 129.14 400.03 126.01 391.99 Z" />
</g>
<g id="#635953ff">
<path fill="#635953" opacity="1.00" d=" M 375.98 389.93 C 378.76 392.58 377.83 398.17 377.97 402.15 C 373.41 400.12 377.26 393.53 375.98 389.93 Z" />
</g>
<g id="#6e6c6dff">
<path fill="#6e6c6d" opacity="1.00" d=" M 382.02 389.98 C 383.35 391.65 384.44 401.13 382.01 403.01 C 381.93 398.66 381.99 394.31 382.02 389.98 Z" />
</g>
<g id="#827f79ff">
<path fill="#827f79" opacity="1.00" d=" M 380.00 400.97 C 378.55 400.40 377.61 392.23 380.88 390.89 C 380.50 394.25 380.17 397.57 380.00 400.97 Z" />
</g>
<g id="#504a4aff">
<path fill="#504a4a" opacity="1.00" d=" M 417.16 392.61 C 421.34 389.81 417.40 400.35 418.98 401.00 C 421.70 410.41 407.81 412.64 402.96 407.88 C 412.40 409.54 421.49 402.94 417.16 392.61 Z" />
</g>
<g id="#383430ff">
<path fill="#383430" opacity="1.00" d=" M 87.03 394.15 C 87.56 393.76 88.63 392.99 89.16 392.60 C 89.29 396.76 94.39 405.85 94.23 396.74 C 94.47 397.82 94.73 398.91 94.99 400.00 C 95.64 407.51 102.58 410.04 109.29 409.35 C 102.12 409.80 85.38 414.24 86.74 402.32 C 86.84 399.58 86.94 396.86 87.03 394.15 Z" />
</g>
<g id="#787372ff">
<path fill="#787372" opacity="1.00" d=" M 410.38 397.35 C 412.61 395.73 414.77 394.00 417.16 392.61 C 421.49 402.94 412.40 409.54 402.96 407.88 L 402.41 407.35 C 403.83 403.81 407.82 405.25 410.88 404.91 C 410.94 402.43 409.01 399.60 410.38 397.35 Z" />
</g>
<g id="#726e69ff">
<path fill="#726e69" opacity="1.00" d=" M 120.24 394.88 C 120.39 396.44 120.69 399.54 120.84 401.10 C 120.69 399.54 120.39 396.44 120.24 394.88 Z" />
</g>
<g id="#787270ff">
<path fill="#787270" opacity="1.00" d=" M 396.07 394.88 C 398.82 396.53 397.34 399.62 396.23 402.13 C 396.19 400.32 396.11 396.69 396.07 394.88 Z" />
</g>
<g id="#ecece6ff">
<path fill="#ecece6" opacity="1.00" d=" M 222.15 396.93 C 246.14 396.33 270.30 397.26 294.29 396.77 C 289.57 398.19 284.77 399.75 280.78 402.75 C 261.39 408.90 237.18 409.83 219.83 397.14 C 220.41 397.09 221.57 396.99 222.15 396.93 Z" />
</g>
<g id="#747276ff">
<path fill="#747276" opacity="1.00" d=" M 115.29 396.87 C 116.42 398.02 116.39 399.69 115.85 401.12 C 114.47 400.10 114.62 398.25 115.29 396.87 Z" />
</g>
<g id="#686462ff">
<path fill="#686462" opacity="1.00" d=" M 390.03 397.25 L 390.79 397.05 C 391.97 399.27 391.80 401.62 390.29 404.11 C 390.22 402.39 390.09 398.96 390.03 397.25 Z" />
</g>
<g id="#a28764ff">
</g>
<g id="#191311ff">
<path fill="#191311" opacity="1.00" d=" M 45.26 399.75 C 48.91 405.93 42.84 412.52 43.84 418.98 C 45.33 418.46 46.92 418.08 48.24 417.19 C 52.78 415.62 42.00 407.44 52.33 411.54 C 58.30 416.80 63.82 423.34 72.00 425.02 C 75.09 425.60 74.90 420.44 78.00 421.00 C 86.76 420.70 95.60 421.67 104.28 420.14 C 104.76 420.09 105.72 419.99 106.20 419.94 C 106.60 419.99 107.41 420.09 107.81 420.14 C 111.25 420.85 114.76 421.10 118.26 420.75 C 121.37 421.03 124.30 422.22 127.11 423.52 C 129.88 425.74 133.31 425.18 135.30 422.28 C 138.99 418.08 144.08 424.54 142.72 428.28 C 145.23 433.59 151.36 436.87 154.67 441.65 C 170.93 443.74 187.02 439.18 203.27 440.35 C 205.87 441.19 208.99 441.66 208.31 437.84 C 210.73 439.52 213.00 441.41 215.26 443.30 C 207.14 444.82 198.74 442.86 190.71 444.69 C 187.53 444.83 184.39 445.02 181.22 445.20 C 177.39 445.18 173.57 445.36 169.77 445.76 C 167.20 445.87 164.63 445.99 162.08 446.13 C 159.41 445.23 157.01 445.42 154.89 446.70 C 153.63 446.86 152.36 447.02 151.10 447.19 C 149.55 447.35 146.46 447.67 144.91 447.83 C 143.30 447.95 141.69 448.07 140.08 448.21 C 138.35 447.62 136.33 447.47 134.87 448.77 C 134.44 448.86 133.58 449.04 133.15 449.12 C 130.24 447.83 127.83 448.07 125.90 449.85 C 122.34 450.28 118.80 450.83 115.24 451.22 C 112.37 451.23 109.49 451.03 106.68 451.65 C 93.21 453.55 79.71 455.28 66.25 457.25 C 61.08 457.14 55.91 456.95 50.75 457.23 C 47.26 456.85 44.21 455.01 41.66 452.69 C 40.33 450.22 38.82 447.83 37.75 445.25 C 37.84 440.07 37.99 434.93 37.85 429.77 C 39.09 423.19 40.61 416.66 42.39 410.20 C 43.44 406.74 44.36 403.24 45.26 399.75 Z" />
</g>
<g id="#56514eff">
<path fill="#56514e" opacity="1.00" d=" M 94.99 400.00 C 97.51 400.82 100.66 403.23 103.08 401.00 C 105.88 402.79 114.81 406.74 109.29 409.35 C 102.58 410.04 95.64 407.51 94.99 400.00 Z" />
</g>
<g id="#767671ff">
<path fill="#767671" opacity="1.00" d=" M 116.16 403.89 C 117.39 404.95 117.40 406.63 116.96 408.08 C 115.47 407.18 115.64 405.29 116.16 403.89 Z" />
</g>
<g id="#878381ff">
<path fill="#878381" opacity="1.00" d=" M 121.15 404.89 C 122.56 405.89 122.36 407.77 121.66 409.15 C 120.59 407.96 120.61 406.30 121.15 404.89 Z" />
</g>
<g id="#7f7e7bff">
<path fill="#7f7e7b" opacity="1.00" d=" M 395.03 409.09 C 394.58 407.64 394.62 405.96 395.82 404.89 C 396.35 406.29 396.53 408.19 395.03 409.09 Z" />
</g>
<g id="#4d4a45ff">
<path fill="#4d4a45" opacity="1.00" d=" M 100.55 417.90 C 104.66 416.59 109.09 417.36 113.30 417.30 C 109.27 418.81 104.72 417.49 100.55 417.90 Z" />
</g>
<g id="#595955ff">
<path fill="#595955" opacity="1.00" d=" M 397.77 417.23 C 401.93 417.20 406.10 417.06 410.24 417.84 C 406.07 417.88 401.87 418.13 397.77 417.23 Z" />
</g>
<g id="#817c74ff">
<path fill="#817c74" opacity="1.00" d=" M 78.78 418.09 C 86.04 417.90 93.30 418.02 100.55 417.90 C 101.96 418.41 104.78 419.43 106.20 419.94 C 105.72 419.99 104.76 420.09 104.28 420.14 C 96.03 418.90 85.56 422.67 78.78 418.09 Z" />
</g>
<g id="#a3a49fff">
<path fill="#a3a49f" opacity="1.00" d=" M 410.24 417.84 C 413.11 417.96 415.94 417.91 418.84 418.00 C 419.17 418.49 419.82 419.48 420.15 419.98 C 416.76 420.03 413.32 419.96 409.95 419.98 C 410.02 419.44 410.17 418.38 410.24 417.84 Z" />
</g>
<g id="#4a4f4bff">
<path fill="#4a4f4b" opacity="1.00" d=" M 418.84 418.00 C 423.31 418.09 428.10 417.58 432.17 419.80 C 428.15 419.88 424.15 419.94 420.15 419.98 C 419.82 419.48 419.17 418.49 418.84 418.00 Z" />
</g>
<g id="#5a5958ff">
<path fill="#5a5958" opacity="1.00" d=" M 383.63 424.23 C 382.98 422.71 383.55 421.36 384.82 420.41 C 386.59 420.76 388.37 421.03 390.17 421.21 C 387.63 421.59 385.03 421.91 383.63 424.23 Z" />
</g>
<g id="#666763ff">
<path fill="#666763" opacity="1.00" d=" M 395.90 420.87 C 397.77 419.08 400.16 418.83 403.08 420.10 C 401.21 421.91 398.82 422.16 395.90 420.87 Z" />
</g>
<g id="#a58966ff">
</g>
<g id="#513f29ff">
<path fill="#513f29" opacity="1.00" d=" M 37.75 445.25 C 36.57 440.15 36.71 434.84 37.85 429.77 C 37.99 434.93 37.84 440.07 37.75 445.25 Z" />
</g>
<g id="#716044ff">
<path fill="#716044" opacity="1.00" d=" M 474.40 433.69 C 475.28 437.78 475.33 442.08 474.14 446.14 C 474.19 441.98 474.27 437.83 474.40 433.69 Z" />
</g>
<g id="#b69c7dff">
</g>
<g id="#827566ff">
</g>
<g id="#c6b298ff">
</g>
<g id="#634f41ff">
<path fill="#634f41" opacity="1.00" d=" M 317.76 444.19 C 322.24 444.05 326.74 443.92 331.18 444.87 C 326.69 444.91 322.19 444.91 317.76 444.19 Z" />
</g>
<g id="#897866ff">
<path fill="#897866" opacity="1.00" d=" M 169.77 445.76 C 173.57 445.36 177.39 445.18 181.22 445.20 C 177.41 445.64 173.60 445.83 169.77 445.76 Z" />
</g>
<g id="#695645ff">
<path fill="#695645" opacity="1.00" d=" M 332.84 445.07 C 335.64 445.25 338.39 445.52 341.21 445.86 C 338.41 445.83 335.59 445.38 332.84 445.07 Z" />
</g>
<g id="#6d5e4cff">
</g>
<g id="#6c5d4cff">
<path fill="#6c5d4c" opacity="1.00" d=" M 345.91 446.15 C 347.45 446.32 350.54 446.67 352.09 446.85 C 350.54 446.67 347.45 446.32 345.91 446.15 Z" />
</g>
<g id="#705c4bff">
<path fill="#705c4b" opacity="1.00" d=" M 144.91 447.83 C 146.46 447.67 149.55 447.35 151.10 447.19 C 149.55 447.35 146.46 447.67 144.91 447.83 Z" />
</g>
<g id="#635547ff">
<path fill="#635547" opacity="1.00" d=" M 357.92 447.20 C 359.63 446.61 361.64 446.47 363.10 447.75 C 361.38 448.37 359.32 448.57 357.92 447.20 Z" />
</g>
<g id="#655649ff">
</g>
<g id="#675a4aff">
</g>
<g id="#b29576ff">
</g>
<g id="#6a5b49ff">
</g>
<g id="#6b5e4bff">
<path fill="#6b5e4b" opacity="1.00" d=" M 395.89 452.22 C 397.44 452.36 400.56 452.65 402.12 452.79 C 400.56 452.65 397.44 452.36 395.89 452.22 Z" />
</g>
<g id="#665946ff">
<path fill="#665946" opacity="1.00" d=" M 404.98 453.36 C 407.16 451.99 409.51 452.08 412.02 453.64 C 409.81 454.98 407.47 454.89 404.98 453.36 Z" />
</g>
<g id="#675944ff">
<path fill="#675944" opacity="1.00" d=" M 414.90 454.21 C 416.49 454.40 419.68 454.77 421.27 454.96 C 419.68 454.77 416.49 454.40 414.90 454.21 Z" />
</g>
<g id="#665b44ff">
<path fill="#665b44" opacity="1.00" d=" M 425.78 455.13 C 428.58 455.18 431.29 455.53 434.08 455.96 C 431.32 455.76 428.51 455.40 425.78 455.13 Z" />
</g>
<g id="#60533aff">
<path fill="#60533a" opacity="1.00" d=" M 434.90 456.05 C 438.03 456.09 441.10 456.42 444.22 456.88 C 441.10 457.00 437.95 456.58 434.90 456.05 Z" />
</g>
<g id="#75684eff">
<path fill="#75684e" opacity="1.00" d=" M 50.75 457.23 C 55.91 456.95 61.08 457.14 66.25 457.25 C 61.13 458.14 55.85 458.38 50.75 457.23 Z" />
</g>
<g id="#ab8d6bff">
</g>
<g id="#a08058ff">
</g>
<g id="#a0815bff">
</g>
<g id="#bda68fff">
</g>
<g id="#b29b83ff">
<path fill="#b29b83" opacity="1.00" d=" M 244.68 492.12 C 247.71 486.69 248.61 491.49 252.22 492.48 C 249.69 492.52 247.17 492.37 244.68 492.12 Z" />
</g>
</svg>
