<?xml version="1.0" encoding="UTF-8" ?>
<!DOCTYPE svg PUBLIC "-//W3C//DTD SVG 1.1//EN" "http://www.w3.org/Graphics/SVG/1.1/DTD/svg11.dtd">
<svg width="512pt" height="512pt" viewBox="0 0 512 512" version="1.1" xmlns="http://www.w3.org/2000/svg">
<g id="#36494eff">
</g>
<g id="#31545bff">
</g>
<g id="#305056ff">
</g>
<g id="#31474cff">
</g>
<g id="#2e4045ff">
</g>
<g id="#303a2bff">
<path fill="#303a2b" opacity="1.00" d=" M 237.01 85.38 C 242.38 85.13 247.60 83.31 253.01 83.70 C 260.88 84.20 268.81 84.01 276.62 85.34 C 287.81 86.23 298.55 89.70 309.32 92.65 C 314.74 94.10 319.72 96.73 324.74 99.18 C 334.35 103.53 343.22 109.24 352.10 114.91 C 362.59 122.96 371.33 132.96 379.93 142.94 C 384.77 148.74 388.26 155.45 391.90 162.02 C 398.03 174.18 403.16 186.84 406.88 199.95 C 412.34 221.41 414.01 244.08 409.99 265.94 C 409.24 271.15 408.60 276.40 407.10 281.47 C 406.07 284.68 405.05 287.91 404.10 291.15 C 403.96 289.62 403.83 288.10 403.69 286.58 C 405.29 281.09 406.69 275.52 406.99 269.79 C 408.17 262.59 409.47 255.35 409.48 248.03 C 409.53 237.20 410.14 226.23 407.91 215.55 C 406.75 207.05 404.92 198.60 401.94 190.54 C 400.47 183.93 397.62 177.76 394.74 171.67 C 390.42 162.08 385.58 152.64 379.08 144.32 C 369.63 131.71 357.81 120.83 344.45 112.45 C 336.63 107.40 328.62 102.56 320.01 98.97 C 299.15 89.17 275.85 86.05 253.02 85.76 C 241.28 86.20 229.52 87.46 218.11 90.32 C 196.89 96.15 176.30 105.25 159.08 119.13 C 151.15 125.22 144.14 132.41 137.38 139.74 C 137.27 136.42 140.44 134.57 142.39 132.35 C 147.78 126.71 153.85 121.77 159.85 116.81 C 163.17 114.16 165.63 110.23 169.90 108.99 C 175.03 107.15 179.37 103.74 184.34 101.54 C 191.21 98.42 197.67 94.26 205.02 92.31 C 212.45 90.26 219.98 88.58 227.46 86.69 C 230.58 85.89 233.79 85.52 237.01 85.38 Z" />
</g>
<g id="#f5f4e7ff">
<path fill="#f5f4e7" opacity="1.00" d=" M 218.11 90.32 C 229.52 87.46 241.28 86.20 253.02 85.76 C 275.85 86.05 299.15 89.17 320.01 98.97 C 328.62 102.56 336.63 107.40 344.45 112.45 C 357.81 120.83 369.63 131.71 379.08 144.32 C 376.61 143.34 374.19 142.20 371.59 141.60 C 362.30 130.10 351.10 120.11 338.40 112.52 C 331.74 108.78 325.12 104.85 318.05 101.92 C 311.54 99.52 305.25 96.48 298.50 94.81 C 290.93 92.97 283.34 91.10 275.57 90.33 C 255.06 87.86 233.94 88.93 214.14 95.05 C 202.01 99.01 189.87 103.30 178.89 109.92 C 157.39 121.36 139.56 139.06 126.94 159.81 C 125.45 160.22 123.96 160.64 122.46 161.06 C 126.72 153.47 131.82 146.42 137.38 139.74 C 144.14 132.41 151.15 125.22 159.08 119.13 C 176.30 105.25 196.89 96.15 218.11 90.32 Z" />
</g>
<g id="#436a66ff">
<path fill="#436a66" opacity="1.00" d=" M 214.14 95.05 C 233.94 88.93 255.06 87.86 275.57 90.33 C 273.51 91.24 271.36 92.15 269.06 91.92 C 260.01 91.44 250.99 92.72 241.95 93.00 C 237.51 93.07 233.27 94.44 229.09 95.81 C 230.14 96.46 231.18 97.12 232.23 97.77 C 227.23 98.68 222.26 99.78 217.39 101.28 C 216.17 100.04 214.95 98.80 213.72 97.56 C 213.89 97.30 214.21 96.77 214.37 96.50 C 214.31 96.14 214.19 95.41 214.14 95.05 Z" />
</g>
<g id="#355c59ff">
<path fill="#355c59" opacity="1.00" d=" M 241.95 93.00 C 250.99 92.72 260.01 91.44 269.06 91.92 C 271.36 92.15 273.51 91.24 275.57 90.33 C 283.34 91.10 290.93 92.97 298.50 94.81 C 305.25 96.48 311.54 99.52 318.05 101.92 C 325.12 104.85 331.74 108.78 338.40 112.52 C 337.27 113.26 336.13 114.01 334.90 114.58 C 331.47 111.68 326.75 110.69 323.88 107.10 C 322.31 104.85 319.37 105.21 316.98 104.78 C 311.27 104.21 306.45 100.78 301.32 98.53 C 301.00 99.21 300.69 99.89 300.39 100.57 C 303.93 101.65 307.57 102.90 310.09 105.78 C 297.17 101.03 283.78 96.88 269.92 96.40 C 264.92 96.25 259.94 95.49 254.93 95.88 C 247.36 96.46 239.70 96.18 232.23 97.77 C 231.18 97.12 230.14 96.46 229.09 95.81 C 233.27 94.44 237.51 93.07 241.95 93.00 Z" />
</g>
<g id="#325f63ff">
<path fill="#325f63" opacity="1.00" d=" M 178.89 109.92 C 189.87 103.30 202.01 99.01 214.14 95.05 C 214.19 95.41 214.31 96.14 214.37 96.50 C 214.21 96.77 213.89 97.30 213.72 97.56 C 214.95 98.80 216.17 100.04 217.39 101.28 C 201.70 105.86 186.41 112.47 173.16 122.14 C 155.79 132.94 142.64 149.15 131.66 166.14 C 128.71 170.48 126.07 175.04 123.83 179.79 C 122.15 183.25 120.59 186.78 119.26 190.39 C 118.80 189.83 117.90 188.70 117.44 188.14 C 116.32 189.79 115.18 191.43 113.99 193.04 L 112.74 193.60 C 113.39 191.18 114.09 188.78 114.88 186.41 C 118.28 177.28 121.58 168.00 126.94 159.81 C 139.56 139.06 157.39 121.36 178.89 109.92 Z" />
</g>
<g id="#f6f8f5ff">
<path fill="#f6f8f5" opacity="1.00" d=" M 232.23 97.77 C 239.70 96.18 247.36 96.46 254.93 95.88 C 259.94 95.49 264.92 96.25 269.92 96.40 C 283.78 96.88 297.17 101.03 310.09 105.78 C 324.08 111.72 337.52 119.27 349.18 129.10 C 347.99 129.60 346.80 130.10 345.62 130.60 C 345.05 131.89 344.49 133.18 343.92 134.48 C 331.78 124.67 318.15 116.41 303.31 111.42 C 282.54 103.66 259.90 102.78 238.04 104.86 C 229.16 105.86 220.56 108.42 212.09 111.20 C 200.48 114.96 189.35 120.36 179.42 127.49 C 172.88 131.98 166.12 136.33 160.68 142.18 C 150.55 152.09 141.77 163.45 135.03 175.91 C 133.92 172.65 132.97 169.33 131.66 166.14 C 142.64 149.15 155.79 132.94 173.16 122.14 C 186.41 112.47 201.70 105.86 217.39 101.28 C 222.26 99.78 227.23 98.68 232.23 97.77 Z" />
</g>
<g id="#284e4cff">
<path fill="#284e4c" opacity="1.00" d=" M 300.39 100.57 C 300.69 99.89 301.00 99.21 301.32 98.53 C 306.45 100.78 311.27 104.21 316.98 104.78 C 319.37 105.21 322.31 104.85 323.88 107.10 C 326.75 110.69 331.47 111.68 334.90 114.58 C 336.13 114.01 337.27 113.26 338.40 112.52 C 351.10 120.11 362.30 130.10 371.59 141.60 L 372.17 142.39 C 372.32 145.18 371.77 148.65 374.53 150.40 C 377.47 152.54 378.30 156.21 379.64 159.38 C 381.08 163.20 383.90 166.72 383.38 171.02 C 381.01 166.96 378.86 162.77 376.27 158.86 C 373.35 154.28 370.03 149.97 366.25 146.08 C 361.12 139.88 355.56 134.03 349.18 129.10 C 337.52 119.27 324.08 111.72 310.09 105.78 C 307.57 102.90 303.93 101.65 300.39 100.57 Z" />
</g>
<g id="#456e6cff">
<path fill="#456e6c" opacity="1.00" d=" M 238.04 104.86 C 259.90 102.78 282.54 103.66 303.31 111.42 C 302.71 111.64 301.51 112.07 300.91 112.29 C 306.30 115.27 312.13 117.40 317.37 120.65 C 318.76 121.43 319.62 122.81 320.53 124.07 C 316.35 122.37 312.20 120.32 307.64 119.91 C 309.71 121.91 312.28 123.23 314.92 124.32 C 313.77 124.90 312.63 125.49 311.49 126.08 C 294.31 117.63 275.08 113.81 256.01 113.65 C 249.40 114.14 242.77 114.43 236.19 115.24 C 226.86 116.99 217.56 119.19 208.78 122.86 C 198.01 126.89 188.26 133.14 179.06 139.95 C 178.53 139.41 178.00 138.88 177.46 138.35 C 177.85 137.59 178.24 136.83 178.64 136.07 C 178.29 135.82 177.58 135.32 177.23 135.06 C 176.65 136.25 176.10 137.46 175.52 138.66 C 174.00 138.19 172.48 137.72 170.97 137.24 C 167.24 138.92 163.64 141.08 161.21 144.47 L 160.68 142.18 C 166.12 136.33 172.88 131.98 179.42 127.49 C 189.35 120.36 200.48 114.96 212.09 111.20 C 220.56 108.42 229.16 105.86 238.04 104.86 Z" />
</g>
<g id="#40635eff">
<path fill="#40635e" opacity="1.00" d=" M 300.91 112.29 C 301.51 112.07 302.71 111.64 303.31 111.42 C 318.15 116.41 331.78 124.67 343.92 134.48 C 348.04 138.02 351.87 141.89 355.69 145.75 C 351.54 145.15 349.07 141.44 345.96 139.05 C 338.53 132.39 328.72 129.56 320.53 124.07 C 319.62 122.81 318.76 121.43 317.37 120.65 C 312.13 117.40 306.30 115.27 300.91 112.29 Z" />
</g>
<g id="#130403ff">
<path fill="#130403" opacity="1.00" d=" M 236.19 115.24 C 242.77 114.43 249.40 114.14 256.01 113.65 C 275.08 113.81 294.31 117.63 311.49 126.08 C 336.36 138.93 358.21 159.41 369.16 185.52 C 370.18 188.38 371.21 191.24 372.46 194.01 C 376.52 204.43 378.75 215.45 379.68 226.58 C 381.07 236.70 380.50 246.93 379.14 257.02 C 378.82 259.31 378.38 261.58 377.96 263.85 C 377.52 261.73 377.05 259.57 377.29 257.39 C 377.89 249.95 379.22 242.53 378.77 235.04 C 377.94 235.98 377.11 236.91 376.30 237.86 C 375.26 232.54 375.71 227.11 375.20 221.75 C 374.73 215.74 370.57 210.89 370.08 204.89 C 365.56 200.40 367.46 192.20 361.37 188.93 C 358.04 178.95 353.15 168.96 344.66 162.38 C 336.46 153.87 328.14 145.28 318.10 138.92 C 313.34 136.18 308.15 134.29 303.40 131.52 C 296.94 127.68 289.25 127.32 281.99 126.36 C 277.62 125.95 273.37 124.36 268.94 124.75 C 264.59 124.99 260.31 123.74 255.95 124.08 C 248.88 124.44 241.97 126.27 234.88 126.48 C 226.17 127.53 217.77 130.49 209.67 133.74 C 204.08 136.67 197.77 138.00 192.46 141.46 C 187.35 144.58 183.42 149.31 178.08 152.07 C 175.52 156.15 170.67 157.90 168.11 161.96 C 166.11 164.97 162.71 166.76 161.09 170.04 C 159.36 173.31 155.94 175.09 153.67 177.90 C 147.45 186.08 143.70 195.75 140.25 205.33 C 136.25 213.27 134.02 222.13 134.15 231.04 C 134.24 236.40 133.99 241.75 133.46 247.08 C 132.94 251.97 134.14 257.11 132.07 261.75 C 127.75 237.19 130.88 211.37 140.71 188.46 C 149.33 169.51 162.48 152.59 179.06 139.95 C 188.26 133.14 198.01 126.89 208.78 122.86 C 217.56 119.19 226.86 116.99 236.19 115.24 Z" />
</g>
<g id="#2c4a4dff">
</g>
<g id="#507772ff">
<path fill="#507772" opacity="1.00" d=" M 307.64 119.91 C 312.20 120.32 316.35 122.37 320.53 124.07 C 328.72 129.56 338.53 132.39 345.96 139.05 C 349.07 141.44 351.54 145.15 355.69 145.75 C 357.10 146.97 358.45 148.27 359.71 149.67 C 362.93 153.89 365.98 158.27 368.76 162.80 C 369.16 163.65 369.56 164.52 369.95 165.39 C 369.27 167.45 368.50 169.49 367.75 171.54 C 368.05 172.05 368.35 172.56 368.66 173.07 C 368.18 173.72 367.69 174.37 367.21 175.02 C 368.61 178.33 370.32 181.86 369.16 185.52 C 358.21 159.41 336.36 138.93 311.49 126.08 C 312.63 125.49 313.77 124.90 314.92 124.32 C 312.28 123.23 309.71 121.91 307.64 119.91 Z" />
</g>
<g id="#2c0807ff">
<path fill="#2c0807" opacity="1.00" d=" M 234.88 126.48 C 241.97 126.27 248.88 124.44 255.95 124.08 C 260.31 123.74 264.59 124.99 268.94 124.75 C 273.37 124.36 277.62 125.95 281.99 126.36 C 289.25 127.32 296.94 127.68 303.40 131.52 C 308.15 134.29 313.34 136.18 318.10 138.92 C 328.14 145.28 336.46 153.87 344.66 162.38 C 353.15 168.96 358.04 178.95 361.37 188.93 C 367.46 192.20 365.56 200.40 370.08 204.89 C 370.57 210.89 374.73 215.74 375.20 221.75 C 375.71 227.11 375.26 232.54 376.30 237.86 C 377.11 236.91 377.94 235.98 378.77 235.04 C 379.22 242.53 377.89 249.95 377.29 257.39 C 377.05 259.57 377.52 261.73 377.96 263.85 C 377.43 267.50 376.63 271.10 375.87 274.70 C 373.28 282.00 370.77 289.36 367.36 296.33 C 362.90 305.38 356.95 313.60 350.64 321.43 C 347.23 321.21 343.80 321.13 340.43 320.54 C 342.77 317.38 346.52 315.99 349.63 313.78 C 350.17 314.24 350.72 314.69 351.28 315.16 C 354.82 312.60 356.41 308.42 358.67 304.85 C 356.47 299.42 358.39 293.62 358.03 287.99 C 357.86 285.41 358.53 282.91 359.66 280.61 C 359.53 279.45 359.40 278.30 359.27 277.14 C 360.63 273.86 361.91 270.54 363.09 267.19 C 362.55 266.36 362.01 265.54 361.47 264.72 C 362.26 262.79 363.31 260.99 364.59 259.35 C 364.59 256.01 363.40 252.34 365.28 249.30 C 366.03 247.95 366.74 246.59 367.53 245.27 C 366.03 244.23 364.54 243.20 363.05 242.16 C 362.18 242.82 361.32 243.48 360.45 244.15 C 359.16 240.36 359.85 236.36 360.30 232.49 C 361.58 232.44 362.86 232.36 364.15 232.28 C 363.43 230.84 361.89 230.64 360.50 230.31 C 359.55 226.35 362.45 222.46 360.56 218.67 C 359.44 213.52 358.28 208.37 356.75 203.32 C 355.47 199.30 352.38 196.35 350.10 192.94 C 347.21 186.06 347.71 177.90 342.79 171.88 C 340.24 173.59 337.81 175.47 335.48 177.46 C 333.07 178.85 330.39 179.71 328.01 181.14 C 326.06 182.78 324.69 184.98 323.10 186.95 C 324.94 181.26 328.39 176.36 332.26 171.88 C 332.86 171.43 333.47 170.97 334.08 170.53 L 333.67 170.25 C 333.12 169.85 332.03 169.04 331.49 168.63 C 333.45 168.34 335.39 167.93 337.34 167.54 C 336.31 166.56 335.27 165.58 334.23 164.61 C 332.02 165.57 329.64 165.51 327.34 164.99 C 327.85 163.95 328.36 162.91 328.87 161.87 C 327.30 161.93 325.73 161.93 324.16 161.94 C 324.51 161.55 325.23 160.76 325.58 160.37 C 322.42 157.91 318.60 156.61 315.16 154.65 C 312.44 152.41 310.73 149.12 307.73 147.19 C 305.53 146.38 303.15 146.21 300.89 145.61 C 301.31 145.05 302.15 143.92 302.57 143.36 C 301.11 142.09 299.61 140.88 298.01 139.79 C 296.65 138.17 295.46 135.99 293.07 135.92 C 284.26 134.48 275.28 134.56 266.38 134.60 C 266.14 135.21 265.65 136.42 265.40 137.03 C 262.24 136.07 259.48 133.73 256.02 133.95 C 253.01 133.66 250.19 134.78 247.47 135.90 C 242.91 134.81 239.79 138.94 235.83 140.21 C 231.33 140.61 226.81 140.86 222.35 141.65 C 219.05 141.91 217.30 145.49 213.98 145.75 C 211.18 146.01 208.96 147.68 206.63 149.07 C 203.85 149.97 200.36 149.67 198.63 152.52 C 196.79 155.41 193.18 155.75 190.48 157.46 C 187.90 159.11 185.63 161.18 183.17 162.98 C 179.37 164.32 178.26 168.25 177.13 171.70 C 175.60 176.35 169.61 176.41 167.24 180.31 C 164.12 184.97 162.36 190.49 158.61 194.74 C 154.77 199.01 151.97 204.21 150.74 209.83 C 150.13 213.04 147.85 215.46 146.45 218.31 C 145.20 222.32 145.89 226.60 147.53 230.39 C 148.62 232.15 146.97 233.74 146.31 235.32 C 147.00 236.28 147.69 237.25 148.39 238.21 C 147.90 241.64 148.04 245.14 149.40 248.37 C 148.18 249.63 146.95 250.86 145.76 252.15 C 147.87 252.56 150.48 252.93 151.98 250.98 C 152.69 249.45 153.08 247.79 153.57 246.19 C 154.49 246.77 155.41 247.36 156.34 247.95 C 155.61 248.95 155.01 250.04 154.29 251.04 C 154.76 251.68 155.23 252.31 155.69 252.96 C 155.34 253.54 154.99 254.12 154.64 254.70 C 154.95 255.42 155.28 256.13 155.61 256.84 C 155.45 257.25 155.14 258.07 154.98 258.48 C 153.26 258.07 151.48 257.04 149.68 257.50 C 148.25 258.38 147.18 259.72 145.98 260.89 C 146.82 261.65 147.66 262.41 148.50 263.18 C 147.93 265.07 147.23 266.96 147.08 268.95 C 147.25 271.11 148.46 272.99 149.35 274.92 C 148.61 278.72 146.88 282.23 146.12 286.02 C 146.26 288.92 147.87 291.52 148.28 294.39 C 148.80 298.12 149.19 301.88 150.31 305.49 L 148.93 306.26 C 148.07 304.89 147.20 303.55 146.38 302.17 C 142.91 296.43 140.86 290.01 138.14 283.91 C 135.04 276.87 133.27 269.32 132.07 261.75 C 134.14 257.11 132.94 251.97 133.46 247.08 C 133.99 241.75 134.24 236.40 134.15 231.04 C 134.02 222.13 136.25 213.27 140.25 205.33 C 143.70 195.75 147.45 186.08 153.67 177.90 C 155.94 175.09 159.36 173.31 161.09 170.04 C 162.71 166.76 166.11 164.97 168.11 161.96 C 170.67 157.90 175.52 156.15 178.08 152.07 C 183.42 149.31 187.35 144.58 192.46 141.46 C 197.77 138.00 204.08 136.67 209.67 133.74 C 217.77 130.49 226.17 127.53 234.88 126.48 Z" />
</g>
<g id="#dcd6ceff">
<path fill="#dcd6ce" opacity="1.00" d=" M 349.18 129.10 C 355.56 134.03 361.12 139.88 366.25 146.08 C 365.77 147.13 365.31 148.20 364.85 149.26 C 363.13 149.39 361.42 149.53 359.71 149.67 C 358.45 148.27 357.10 146.97 355.69 145.75 C 351.87 141.89 348.04 138.02 343.92 134.48 C 344.49 133.18 345.05 131.89 345.62 130.60 C 346.80 130.10 347.99 129.60 349.18 129.10 Z" />
</g>
<g id="#3b0909ff">
<path fill="#3b0909" opacity="1.00" d=" M 247.47 135.90 C 250.19 134.78 253.01 133.66 256.02 133.95 C 259.48 133.73 262.24 136.07 265.40 137.03 C 265.65 136.42 266.14 135.21 266.38 134.60 C 275.28 134.56 284.26 134.48 293.07 135.92 C 295.46 135.99 296.65 138.17 298.01 139.79 C 299.61 140.88 301.11 142.09 302.57 143.36 C 302.15 143.92 301.31 145.05 300.89 145.61 C 303.15 146.21 305.53 146.38 307.73 147.19 C 310.73 149.12 312.44 152.41 315.16 154.65 C 318.60 156.61 322.42 157.91 325.58 160.37 C 325.23 160.76 324.51 161.55 324.16 161.94 C 325.73 161.93 327.30 161.93 328.87 161.87 C 328.36 162.91 327.85 163.95 327.34 164.99 C 329.64 165.51 332.02 165.57 334.23 164.61 C 335.27 165.58 336.31 166.56 337.34 167.54 C 335.39 167.93 333.45 168.34 331.49 168.63 C 324.16 167.88 317.05 170.22 310.12 172.26 C 305.96 173.44 302.30 175.79 298.64 178.01 C 295.35 179.43 292.90 182.10 289.99 184.10 C 286.08 182.16 288.32 177.30 288.02 173.96 C 288.56 170.74 286.36 168.24 284.07 166.37 C 284.27 165.97 284.67 165.18 284.87 164.78 C 286.33 164.32 287.78 163.85 289.24 163.37 C 293.10 161.92 297.65 161.36 300.42 157.97 C 295.35 157.45 290.71 159.77 285.93 161.01 C 285.45 158.95 285.92 156.90 286.96 155.11 C 288.64 153.76 290.42 152.52 292.26 151.39 C 294.72 150.33 297.13 149.12 299.39 147.66 C 295.10 147.49 290.80 147.72 286.57 148.43 C 280.36 149.24 274.41 151.30 268.39 152.94 C 260.58 155.63 253.24 159.47 245.79 163.00 C 240.31 165.53 235.49 169.20 230.34 172.30 L 229.71 172.36 C 227.96 172.57 226.01 172.36 224.55 173.54 C 219.66 176.89 215.58 181.24 211.06 185.05 C 207.06 188.43 203.90 192.61 200.50 196.55 C 198.05 199.43 195.47 202.26 193.70 205.63 C 189.41 213.77 185.40 222.05 181.37 230.32 C 178.82 235.57 178.28 241.52 175.84 246.81 C 175.04 248.61 172.75 248.67 171.23 249.56 C 171.99 249.77 172.75 250.02 173.51 250.30 C 173.34 253.85 173.00 257.44 171.62 260.76 C 170.15 264.22 171.48 268.10 170.10 271.59 C 170.68 274.12 170.45 276.73 169.65 279.18 C 169.89 279.72 170.12 280.26 170.36 280.80 C 168.65 287.77 168.31 295.03 166.42 301.97 C 164.78 304.37 161.61 306.01 161.54 309.24 C 161.36 311.80 164.61 312.01 166.25 313.12 C 164.14 315.04 161.36 317.23 158.39 315.65 C 154.50 313.45 152.89 308.92 150.31 305.49 C 149.19 301.88 148.80 298.12 148.28 294.39 C 147.87 291.52 146.26 288.92 146.12 286.02 C 146.88 282.23 148.61 278.72 149.35 274.92 C 148.46 272.99 147.25 271.11 147.08 268.95 C 147.23 266.96 147.93 265.07 148.50 263.18 C 147.66 262.41 146.82 261.65 145.98 260.89 C 147.18 259.72 148.25 258.38 149.68 257.50 C 151.48 257.04 153.26 258.07 154.98 258.48 C 155.14 258.07 155.45 257.25 155.61 256.84 C 155.28 256.13 154.95 255.42 154.64 254.70 C 154.99 254.12 155.34 253.54 155.69 252.96 C 155.23 252.31 154.76 251.68 154.29 251.04 C 155.01 250.04 155.61 248.95 156.34 247.95 C 155.41 247.36 154.49 246.77 153.57 246.19 C 153.08 247.79 152.69 249.45 151.98 250.98 C 150.48 252.93 147.87 252.56 145.76 252.15 C 146.95 250.86 148.18 249.63 149.40 248.37 C 148.04 245.14 147.90 241.64 148.39 238.21 C 147.69 237.25 147.00 236.28 146.31 235.32 C 146.97 233.74 148.62 232.15 147.53 230.39 C 145.89 226.60 145.20 222.32 146.45 218.31 C 147.85 215.46 150.13 213.04 150.74 209.83 C 151.97 204.21 154.77 199.01 158.61 194.74 C 162.36 190.49 164.12 184.97 167.24 180.31 C 169.61 176.41 175.60 176.35 177.13 171.70 C 178.26 168.25 179.37 164.32 183.17 162.98 C 185.63 161.18 187.90 159.11 190.48 157.46 C 193.18 155.75 196.79 155.41 198.63 152.52 C 200.36 149.67 203.85 149.97 206.63 149.07 C 208.96 147.68 211.18 146.01 213.98 145.75 C 217.30 145.49 219.05 141.91 222.35 141.65 C 226.81 140.86 231.33 140.61 235.83 140.21 C 239.79 138.94 242.91 134.81 247.47 135.90 Z" />
</g>
<g id="#4b7673ff">
<path fill="#4b7673" opacity="1.00" d=" M 177.23 135.06 C 177.58 135.32 178.29 135.82 178.64 136.07 C 178.24 136.83 177.85 137.59 177.46 138.35 C 178.00 138.88 178.53 139.41 179.06 139.95 C 162.48 152.59 149.33 169.51 140.71 188.46 C 130.88 211.37 127.75 237.19 132.07 261.75 C 133.27 269.32 135.04 276.87 138.14 283.91 C 140.86 290.01 142.91 296.43 146.38 302.17 C 145.47 302.97 144.52 303.72 143.56 304.48 C 141.68 302.42 139.60 300.44 138.34 297.91 C 134.40 289.68 130.99 281.21 128.18 272.54 C 127.06 265.73 125.09 258.93 126.10 251.97 C 127.38 241.06 128.33 230.11 129.32 219.18 C 130.53 213.22 131.02 207.17 131.20 201.10 C 131.19 195.10 135.84 190.59 137.21 184.95 C 138.25 180.81 141.48 177.76 142.90 173.80 C 145.81 170.71 148.57 167.48 150.80 163.86 C 152.96 160.16 157.16 157.51 157.49 152.91 C 157.72 149.73 159.71 147.15 161.21 144.47 C 163.64 141.08 167.24 138.92 170.97 137.24 C 172.48 137.72 174.00 138.19 175.52 138.66 C 176.10 137.46 176.65 136.25 177.23 135.06 Z" />
</g>
<g id="#e2dcbfff">
<path fill="#e2dcbf" opacity="1.00" d=" M 371.59 141.60 C 374.19 142.20 376.61 143.34 379.08 144.32 C 385.58 152.64 390.42 162.08 394.74 171.67 C 394.41 172.24 393.74 173.38 393.41 173.95 C 392.10 171.85 391.06 169.59 389.61 167.58 C 389.01 167.08 388.40 166.59 387.79 166.12 C 384.83 161.89 382.64 157.19 379.80 152.88 C 377.65 149.12 374.80 145.82 372.17 142.39 L 371.59 141.60 Z" />
</g>
<g id="#3d6c64ff">
<path fill="#3d6c64" opacity="1.00" d=" M 135.03 175.91 C 141.77 163.45 150.55 152.09 160.68 142.18 L 161.21 144.47 C 159.71 147.15 157.72 149.73 157.49 152.91 C 157.16 157.51 152.96 160.16 150.80 163.86 C 148.57 167.48 145.81 170.71 142.90 173.80 C 141.48 177.76 138.25 180.81 137.21 184.95 C 135.84 190.59 131.19 195.10 131.20 201.10 C 131.02 207.17 130.53 213.22 129.32 219.18 C 128.33 230.11 127.38 241.06 126.10 251.97 C 125.09 258.93 127.06 265.73 128.18 272.54 L 126.34 271.54 C 124.90 266.31 123.81 260.96 123.41 255.55 C 124.02 248.02 122.02 240.58 122.75 233.04 C 122.93 222.40 126.54 211.93 125.09 201.26 C 126.07 196.89 127.73 192.72 129.29 188.54 C 130.96 184.22 133.05 180.09 135.03 175.91 Z" />
</g>
<g id="#486756ff">
<path fill="#486756" opacity="1.00" d=" M 372.17 142.39 C 374.80 145.82 377.65 149.12 379.80 152.88 C 379.14 158.53 383.69 162.84 384.92 168.07 C 385.74 169.54 384.38 170.59 383.81 171.78 L 383.38 171.02 C 383.90 166.72 381.08 163.20 379.64 159.38 C 378.30 156.21 377.47 152.54 374.53 150.40 C 371.77 148.65 372.32 145.18 372.17 142.39 Z" />
</g>
<g id="#afb3a7ff">
<path fill="#afb3a7" opacity="1.00" d=" M 366.25 146.08 C 370.03 149.97 373.35 154.28 376.27 158.86 C 376.12 159.48 375.82 160.73 375.67 161.35 C 373.35 161.77 371.05 162.26 368.76 162.80 C 365.98 158.27 362.93 153.89 359.71 149.67 C 361.42 149.53 363.13 149.39 364.85 149.26 C 365.31 148.20 365.77 147.13 366.25 146.08 Z" />
</g>
<g id="#bab8a4ff">
<path fill="#bab8a4" opacity="1.00" d=" M 286.57 148.43 C 290.80 147.72 295.10 147.49 299.39 147.66 C 297.13 149.12 294.72 150.33 292.26 151.39 C 291.34 151.25 289.49 150.95 288.57 150.81 C 288.85 150.50 289.41 149.89 289.69 149.58 C 288.65 149.19 287.61 148.80 286.57 148.43 Z" />
</g>
<g id="#fbfcfbff">
<path fill="#fbfcfb" opacity="1.00" d=" M 268.39 152.94 C 274.41 151.30 280.36 149.24 286.57 148.43 C 287.61 148.80 288.65 149.19 289.69 149.58 C 289.41 149.89 288.85 150.50 288.57 150.81 C 280.44 158.37 276.82 169.43 275.58 180.19 C 274.89 184.58 274.39 189.00 274.21 193.45 C 273.41 195.65 272.56 197.85 271.78 200.06 C 271.31 198.74 270.85 197.42 270.38 196.10 C 270.16 196.81 269.71 198.22 269.49 198.93 C 265.79 197.10 261.77 196.21 257.85 195.01 C 256.56 195.57 255.26 196.13 253.98 196.72 C 251.38 195.56 249.68 193.32 248.49 190.81 C 248.71 186.08 249.89 181.49 250.73 176.85 C 251.72 175.52 252.73 174.22 253.71 172.89 C 247.51 174.40 242.90 179.22 237.99 183.00 C 228.40 190.74 221.10 200.81 214.35 211.02 C 212.05 214.49 210.39 218.33 208.84 222.17 C 207.31 221.84 205.81 221.39 204.25 221.26 C 203.04 222.22 202.04 223.43 200.87 224.43 C 197.33 223.54 196.48 219.44 195.17 216.55 C 194.13 215.54 193.12 214.50 192.08 213.51 C 198.44 200.72 208.82 190.70 219.02 180.97 C 222.43 177.92 226.20 175.30 229.71 172.36 L 230.34 172.30 C 235.49 169.20 240.31 165.53 245.79 163.00 C 253.24 159.47 260.58 155.63 268.39 152.94 Z" />
</g>
<g id="#7a5f38ff">
<path fill="#7a5f38" opacity="1.00" d=" M 275.58 180.19 C 276.82 169.43 280.44 158.37 288.57 150.81 C 289.49 150.95 291.34 151.25 292.26 151.39 C 290.42 152.52 288.64 153.76 286.96 155.11 C 283.47 157.76 280.16 162.06 281.72 166.67 C 279.32 173.20 276.60 180.59 279.00 187.49 C 278.47 199.79 278.51 212.12 278.16 224.43 C 277.59 222.30 276.97 220.19 276.39 218.07 C 276.17 221.83 275.75 225.57 275.46 229.32 C 274.52 222.56 275.83 215.79 275.68 209.01 C 275.50 200.99 276.93 193.05 277.03 185.04 C 277.21 183.28 276.43 181.67 275.58 180.19 Z" />
</g>
<g id="#324439ff">
<path fill="#324439" opacity="1.00" d=" M 384.92 168.07 C 383.69 162.84 379.14 158.53 379.80 152.88 C 382.64 157.19 384.83 161.89 387.79 166.12 C 388.40 166.59 389.01 167.08 389.61 167.58 L 387.87 166.90 C 389.02 169.42 390.21 171.93 391.39 174.44 C 390.85 176.23 389.86 178.17 390.85 180.01 C 394.03 187.77 397.41 195.58 398.74 203.92 C 399.17 206.82 400.09 209.61 400.96 212.40 C 401.39 222.60 402.87 232.75 403.08 242.95 C 403.35 247.20 401.67 252.08 404.67 255.69 C 405.14 267.78 402.59 279.81 398.58 291.17 C 398.44 290.30 398.17 288.58 398.03 287.71 C 397.75 288.33 397.19 289.55 396.91 290.17 C 395.88 289.39 394.86 288.60 393.84 287.82 C 395.12 283.13 397.44 278.53 396.87 273.53 C 397.68 268.39 398.80 263.30 399.32 258.11 C 399.90 252.40 401.48 246.79 401.34 241.02 C 401.31 237.22 400.79 233.45 400.22 229.70 C 399.54 224.83 398.74 219.96 398.52 215.04 C 397.87 202.73 392.66 191.36 388.36 180.00 C 387.26 177.37 385.78 174.93 384.22 172.56 C 384.12 172.36 383.91 171.97 383.81 171.78 C 384.38 170.59 385.74 169.54 384.92 168.07 Z" />
<path fill="#324439" opacity="1.00" d=" M 247.33 205.01 C 247.28 201.54 247.83 198.11 248.36 194.69 C 248.37 199.05 248.33 203.42 248.32 207.78 C 248.38 215.15 248.38 222.52 248.25 229.88 C 248.08 237.68 248.65 245.52 247.74 253.28 C 244.57 253.29 241.40 253.25 238.24 253.21 C 240.35 250.99 243.53 251.26 246.32 251.23 L 247.02 251.28 C 247.34 235.86 247.41 220.44 247.33 205.01 Z" />
</g>
<g id="#673b22ff">
<path fill="#673b22" opacity="1.00" d=" M 281.72 166.67 C 280.16 162.06 283.47 157.76 286.96 155.11 C 285.92 156.90 285.45 158.95 285.93 161.01 C 287.01 161.82 288.13 162.58 289.24 163.37 C 287.78 163.85 286.33 164.32 284.87 164.78 C 284.92 163.56 284.92 162.33 284.88 161.11 C 283.78 162.93 282.69 164.77 281.72 166.67 Z" />
</g>
<g id="#5c1311ff">
<path fill="#5c1311" opacity="1.00" d=" M 285.93 161.01 C 290.71 159.77 295.35 157.45 300.42 157.97 C 297.65 161.36 293.10 161.92 289.24 163.37 C 288.13 162.58 287.01 161.82 285.93 161.01 Z" />
</g>
<g id="#8a9c8dff">
<path fill="#8a9c8d" opacity="1.00" d=" M 376.27 158.86 C 378.86 162.77 381.01 166.96 383.38 171.02 L 383.81 171.78 C 383.91 171.97 384.12 172.36 384.22 172.56 C 383.73 173.91 383.24 175.27 382.75 176.63 C 381.55 176.09 380.36 175.56 379.17 175.03 C 380.12 178.22 381.78 181.66 380.11 184.93 C 379.06 182.66 377.94 180.43 376.90 178.16 C 375.25 173.56 372.63 169.44 369.95 165.39 C 369.56 164.52 369.16 163.65 368.76 162.80 C 371.05 162.26 373.35 161.77 375.67 161.35 C 375.82 160.73 376.12 159.48 376.27 158.86 Z" />
</g>
<g id="#f5f0cfff">
<path fill="#f5f0cf" opacity="1.00" d=" M 122.46 161.06 C 123.96 160.64 125.45 160.22 126.94 159.81 C 121.58 168.00 118.28 177.28 114.88 186.41 C 114.15 185.24 113.41 184.08 112.68 182.92 C 115.32 175.38 118.56 168.03 122.46 161.06 Z" />
</g>
<g id="#9c8056ff">
<path fill="#9c8056" opacity="1.00" d=" M 284.88 161.11 C 284.92 162.33 284.92 163.56 284.87 164.78 C 284.67 165.18 284.27 165.97 284.07 166.37 C 280.31 172.75 279.90 180.32 279.00 187.49 C 276.60 180.59 279.32 173.20 281.72 166.67 C 282.69 164.77 283.78 162.93 284.88 161.11 Z" />
<path fill="#9c8056" opacity="1.00" d=" M 407.91 215.55 C 410.14 226.23 409.53 237.20 409.48 248.03 C 409.47 255.35 408.17 262.59 406.99 269.79 C 406.44 271.16 405.83 272.51 405.23 273.87 C 405.31 271.36 405.43 268.86 405.68 266.37 C 407.27 253.85 405.90 241.20 406.52 228.63 C 406.92 231.06 407.32 233.50 407.66 235.95 C 408.93 229.19 407.48 222.35 407.91 215.55 Z" />
</g>
<g id="#426d67ff">
<path fill="#426d67" opacity="1.00" d=" M 367.75 171.54 C 368.50 169.49 369.27 167.45 369.95 165.39 C 372.63 169.44 375.25 173.56 376.90 178.16 C 375.78 182.67 379.14 186.59 380.16 190.80 C 378.43 192.91 376.87 195.13 375.47 197.47 C 374.45 196.32 373.44 195.18 372.46 194.01 C 371.21 191.24 370.18 188.38 369.16 185.52 C 370.32 181.86 368.61 178.33 367.21 175.02 C 367.69 174.37 368.18 173.72 368.66 173.07 C 368.35 172.56 368.05 172.05 367.75 171.54 Z" />
</g>
<g id="#dbe1d8ff">
<path fill="#dbe1d8" opacity="1.00" d=" M 123.83 179.79 C 126.07 175.04 128.71 170.48 131.66 166.14 C 132.97 169.33 133.92 172.65 135.03 175.91 C 133.05 180.09 130.96 184.22 129.29 188.54 C 127.81 187.63 126.33 186.71 124.85 185.80 C 124.52 183.79 124.18 181.79 123.83 179.79 Z" />
</g>
<g id="#2f0a0aff">
<path fill="#2f0a0a" opacity="1.00" d=" M 284.07 166.37 C 286.36 168.24 288.56 170.74 288.02 173.96 C 288.32 177.30 286.08 182.16 289.99 184.10 C 292.90 182.10 295.35 179.43 298.64 178.01 C 295.82 181.72 292.21 185.00 290.92 189.65 C 289.96 189.22 289.01 188.79 288.07 188.36 C 286.71 191.75 286.04 195.35 285.84 199.00 C 285.72 202.64 284.12 206.01 283.78 209.60 C 284.20 212.73 285.54 215.71 285.33 218.92 C 285.04 226.96 286.18 235.04 285.04 243.05 C 284.48 246.15 285.07 249.26 285.62 252.32 C 286.73 258.16 285.30 264.09 286.03 269.97 C 286.70 274.96 285.27 279.82 284.80 284.73 C 285.70 289.24 287.34 293.64 286.98 298.33 C 283.55 296.47 281.52 293.03 279.72 289.71 C 277.85 277.91 278.80 265.94 278.55 254.04 C 278.50 244.17 278.66 234.29 278.16 224.43 C 278.51 212.12 278.47 199.79 279.00 187.49 C 279.90 180.32 280.31 172.75 284.07 166.37 Z" />
</g>
<g id="#200705ff">
<path fill="#200705" opacity="1.00" d=" M 310.12 172.26 C 317.05 170.22 324.16 167.88 331.49 168.63 C 332.03 169.04 333.12 169.85 333.67 170.25 C 325.65 170.41 317.70 171.88 310.01 174.15 C 302.35 176.46 296.10 182.55 293.22 189.96 C 291.07 195.53 290.33 201.54 290.36 207.48 C 290.02 213.63 290.38 219.80 289.88 225.95 C 289.42 232.09 290.39 238.21 290.23 244.36 C 290.05 251.87 290.34 259.39 290.20 266.91 C 290.10 274.31 290.20 281.72 290.33 289.12 C 290.34 292.07 291.70 294.76 292.95 297.36 C 295.32 297.49 297.74 297.46 300.02 298.27 C 296.01 300.67 291.18 299.51 286.98 298.33 C 287.34 293.64 285.70 289.24 284.80 284.73 C 285.27 279.82 286.70 274.96 286.03 269.97 C 285.30 264.09 286.73 258.16 285.62 252.32 C 285.07 249.26 284.48 246.15 285.04 243.05 C 286.18 235.04 285.04 226.96 285.33 218.92 C 285.54 215.71 284.20 212.73 283.78 209.60 C 284.12 206.01 285.72 202.64 285.84 199.00 C 286.04 195.35 286.71 191.75 288.07 188.36 C 289.01 188.79 289.96 189.22 290.92 189.65 C 292.21 185.00 295.82 181.72 298.64 178.01 C 302.30 175.79 305.96 173.44 310.12 172.26 Z" />
</g>
<g id="#d9cba3ff">
<path fill="#d9cba3" opacity="1.00" d=" M 387.87 166.90 L 389.61 167.58 C 391.06 169.59 392.10 171.85 393.41 173.95 C 393.74 173.38 394.41 172.24 394.74 171.67 C 397.62 177.76 400.47 183.93 401.94 190.54 C 402.37 194.57 402.63 198.65 402.09 202.69 C 399.28 193.01 396.01 183.42 391.39 174.44 C 390.21 171.93 389.02 169.42 387.87 166.90 Z" />
</g>
<g id="#d1cdc8ff">
<path fill="#d1cdc8" opacity="1.00" d=" M 310.01 174.15 C 317.70 171.88 325.65 170.41 333.67 170.25 L 334.08 170.53 C 333.47 170.97 332.86 171.43 332.26 171.88 C 331.09 172.41 329.90 172.88 328.74 173.43 C 323.58 171.44 318.10 173.35 312.95 174.34 C 301.03 176.96 292.86 188.58 291.64 200.31 C 291.27 202.38 290.82 204.43 290.51 206.52 L 290.36 207.48 C 290.33 201.54 291.07 195.53 293.22 189.96 C 296.10 182.55 302.35 176.46 310.01 174.15 Z" />
</g>
<g id="#304247ff">
</g>
<g id="#270705ff">
<path fill="#270705" opacity="1.00" d=" M 224.55 173.54 C 226.01 172.36 227.96 172.57 229.71 172.36 C 226.20 175.30 222.43 177.92 219.02 180.97 C 208.82 190.70 198.44 200.72 192.08 213.51 C 190.22 216.95 188.66 220.55 187.16 224.17 C 185.88 227.31 184.62 230.47 183.70 233.74 C 182.79 236.67 181.96 239.62 181.24 242.61 C 178.58 255.04 177.32 267.84 177.76 280.55 C 177.78 283.91 178.25 287.25 178.53 290.60 C 178.57 291.07 178.66 292.00 178.70 292.47 C 179.15 296.57 180.04 300.60 180.99 304.62 C 181.18 307.06 181.41 309.55 180.99 311.99 C 180.15 315.46 177.62 318.17 175.17 320.62 C 169.51 322.05 163.61 321.85 157.83 322.16 C 157.18 320.49 156.56 318.81 155.80 317.20 C 153.51 313.55 151.18 309.93 148.93 306.26 L 150.31 305.49 C 152.89 308.92 154.50 313.45 158.39 315.65 C 161.36 317.23 164.14 315.04 166.25 313.12 C 164.61 312.01 161.36 311.80 161.54 309.24 C 161.61 306.01 164.78 304.37 166.42 301.97 C 168.31 295.03 168.65 287.77 170.36 280.80 C 170.12 280.26 169.89 279.72 169.65 279.18 C 170.45 276.73 170.68 274.12 170.10 271.59 C 171.48 268.10 170.15 264.22 171.62 260.76 C 173.00 257.44 173.34 253.85 173.51 250.30 C 172.75 250.02 171.99 249.77 171.23 249.56 C 172.75 248.67 175.04 248.61 175.84 246.81 C 178.28 241.52 178.82 235.57 181.37 230.32 C 185.40 222.05 189.41 213.77 193.70 205.63 C 195.47 202.26 198.05 199.43 200.50 196.55 C 203.90 192.61 207.06 188.43 211.06 185.05 C 215.58 181.24 219.66 176.89 224.55 173.54 Z" />
</g>
<g id="#7d622eff">
<path fill="#7d622e" opacity="1.00" d=" M 328.74 173.43 C 329.90 172.88 331.09 172.41 332.26 171.88 C 328.39 176.36 324.94 181.26 323.10 186.95 C 324.69 184.98 326.06 182.78 328.01 181.14 C 330.39 179.71 333.07 178.85 335.48 177.46 C 335.35 179.86 332.91 180.87 331.34 182.25 C 325.74 186.04 323.89 193.01 322.19 199.17 C 320.89 194.95 320.43 190.54 320.93 186.15 C 320.34 187.58 319.85 189.04 319.26 190.47 L 319.05 191.02 C 319.16 189.28 319.20 187.54 319.34 185.80 C 321.09 185.34 321.51 183.45 322.34 182.11 C 323.89 178.83 326.06 175.87 328.74 173.43 Z" />
</g>
<g id="#370709ff">
<path fill="#370709" opacity="1.00" d=" M 335.48 177.46 C 337.81 175.47 340.24 173.59 342.79 171.88 C 347.71 177.90 347.21 186.06 350.10 192.94 C 352.38 196.35 355.47 199.30 356.75 203.32 C 358.28 208.37 359.44 213.52 360.56 218.67 C 362.45 222.46 359.55 226.35 360.50 230.31 C 361.89 230.64 363.43 230.84 364.15 232.28 C 362.86 232.36 361.58 232.44 360.30 232.49 C 359.85 236.36 359.16 240.36 360.45 244.15 C 361.32 243.48 362.18 242.82 363.05 242.16 C 364.54 243.20 366.03 244.23 367.53 245.27 C 366.74 246.59 366.03 247.95 365.28 249.30 C 363.40 252.34 364.59 256.01 364.59 259.35 C 363.31 260.99 362.26 262.79 361.47 264.72 C 362.01 265.54 362.55 266.36 363.09 267.19 C 361.91 270.54 360.63 273.86 359.27 277.14 C 359.40 278.30 359.53 279.45 359.66 280.61 C 358.53 282.91 357.86 285.41 358.03 287.99 C 358.39 293.62 356.47 299.42 358.67 304.85 C 356.41 308.42 354.82 312.60 351.28 315.16 C 350.72 314.69 350.17 314.24 349.63 313.78 C 346.52 315.99 342.77 317.38 340.43 320.54 C 338.79 320.15 337.17 319.66 335.59 319.07 C 334.58 318.26 333.59 317.41 332.63 316.57 C 331.53 315.58 330.43 314.59 329.37 313.58 C 323.87 309.01 321.68 301.82 320.68 295.00 C 320.02 275.32 320.32 255.61 320.02 235.93 C 320.90 223.68 320.00 211.31 322.19 199.17 C 323.89 193.01 325.74 186.04 331.34 182.25 C 332.91 180.87 335.35 179.86 335.48 177.46 Z" />
</g>
<g id="#190404ff">
<path fill="#190404" opacity="1.00" d=" M 237.99 183.00 C 242.90 179.22 247.51 174.40 253.71 172.89 C 252.73 174.22 251.72 175.52 250.73 176.85 C 249.89 181.49 248.71 186.08 248.49 190.81 C 248.44 192.10 248.40 193.40 248.36 194.69 C 247.83 198.11 247.28 201.54 247.33 205.01 C 247.41 220.44 247.34 235.86 247.02 251.28 L 246.32 251.23 C 244.89 249.37 242.85 247.50 242.91 244.96 C 242.99 241.17 243.99 237.41 243.44 233.62 C 242.01 224.15 245.99 213.42 239.96 204.96 C 236.52 203.74 233.10 206.72 229.89 207.74 C 227.94 211.21 226.06 214.77 225.47 218.76 C 222.82 220.60 219.31 221.93 218.32 225.30 C 216.02 231.57 212.34 237.23 210.27 243.60 C 211.53 244.81 212.81 246.00 214.08 247.21 C 212.70 248.42 211.33 249.63 209.95 250.83 C 210.65 251.77 211.36 252.71 212.06 253.66 C 211.03 253.70 210.01 253.76 208.98 253.83 C 208.76 254.18 208.32 254.90 208.10 255.26 C 207.49 255.14 206.27 254.90 205.66 254.78 C 206.28 250.20 207.19 245.67 208.32 241.19 C 210.37 234.02 212.99 227.01 215.85 220.12 C 220.74 208.21 229.13 198.19 238.14 189.17 C 241.92 185.49 247.45 183.24 249.31 177.94 C 242.24 180.73 237.07 186.56 231.01 190.92 C 225.55 197.52 218.40 203.94 217.24 212.88 C 217.25 212.27 217.28 211.03 217.30 210.42 C 216.31 210.62 215.33 210.82 214.35 211.02 C 221.10 200.81 228.40 190.74 237.99 183.00 Z" />
</g>
<g id="#faf9fcff">
<path fill="#faf9fc" opacity="1.00" d=" M 312.95 174.34 C 318.10 173.35 323.58 171.44 328.74 173.43 C 326.06 175.87 323.89 178.83 322.34 182.11 C 321.51 183.45 321.09 185.34 319.34 185.80 C 319.20 187.54 319.16 189.28 319.05 191.02 C 317.95 193.77 317.31 196.68 316.88 199.61 C 315.03 200.65 313.21 201.71 311.40 202.81 C 308.65 202.34 306.66 200.53 305.56 198.00 C 301.00 199.17 296.45 201.54 291.64 200.31 C 292.86 188.58 301.03 176.96 312.95 174.34 Z" />
</g>
<g id="#718a7cff">
<path fill="#718a7c" opacity="1.00" d=" M 384.22 172.56 C 385.78 174.93 387.26 177.37 388.36 180.00 C 386.29 183.92 385.49 188.43 382.87 192.07 C 381.97 189.68 381.09 187.29 380.11 184.93 C 381.78 181.66 380.12 178.22 379.17 175.03 C 380.36 175.56 381.55 176.09 382.75 176.63 C 383.24 175.27 383.73 173.91 384.22 172.56 Z" />
</g>
<g id="#47543bff">
<path fill="#47543b" opacity="1.00" d=" M 391.39 174.44 C 396.01 183.42 399.28 193.01 402.09 202.69 C 402.12 203.41 402.17 204.13 402.24 204.85 C 400.90 207.14 400.90 209.83 400.96 212.40 C 400.09 209.61 399.17 206.82 398.74 203.92 C 397.41 195.58 394.03 187.77 390.85 180.01 C 389.86 178.17 390.85 176.23 391.39 174.44 Z" />
</g>
<g id="#71563bff">
<path fill="#71563b" opacity="1.00" d=" M 231.01 190.92 C 237.07 186.56 242.24 180.73 249.31 177.94 C 247.45 183.24 241.92 185.49 238.14 189.17 C 229.13 198.19 220.74 208.21 215.85 220.12 C 215.55 219.61 214.94 218.60 214.63 218.09 C 211.99 223.81 208.53 229.27 207.25 235.52 C 206.10 236.52 204.82 237.33 203.62 238.26 C 203.76 237.69 204.04 236.56 204.18 235.99 C 205.41 231.28 207.08 226.70 208.84 222.17 C 210.39 218.33 212.05 214.49 214.35 211.02 C 215.33 210.82 216.31 210.62 217.30 210.42 C 217.28 211.03 217.25 212.27 217.24 212.88 C 218.40 203.94 225.55 197.52 231.01 190.92 Z" />
</g>
<g id="#385e5bff">
<path fill="#385e5b" opacity="1.00" d=" M 380.16 190.80 C 379.14 186.59 375.78 182.67 376.90 178.16 C 377.94 180.43 379.06 182.66 380.11 184.93 C 381.09 187.29 381.97 189.68 382.87 192.07 C 385.07 198.06 387.21 204.10 388.62 210.33 C 389.31 213.27 389.51 216.36 390.76 219.14 C 391.72 221.46 394.56 222.10 395.83 224.15 C 397.00 227.50 397.52 231.09 399.33 234.21 C 399.65 232.71 399.95 231.20 400.22 229.70 C 400.79 233.45 401.31 237.22 401.34 241.02 C 401.48 246.79 399.90 252.40 399.32 258.11 C 398.80 263.30 397.68 268.39 396.87 273.53 C 395.62 270.10 395.98 266.46 396.61 262.94 C 396.11 262.23 395.63 261.51 395.14 260.80 C 396.30 256.85 397.58 252.56 395.42 248.69 C 393.98 249.74 392.56 250.80 391.14 251.87 C 392.01 245.55 392.74 238.99 390.69 232.80 C 389.72 234.04 387.83 235.08 388.16 236.91 C 388.92 245.22 388.21 254.36 383.28 261.38 C 381.89 259.93 380.51 258.47 379.14 257.02 C 380.50 246.93 381.07 236.70 379.68 226.58 C 378.75 215.45 376.52 204.43 372.46 194.01 C 373.44 195.18 374.45 196.32 375.47 197.47 C 376.87 195.13 378.43 192.91 380.16 190.80 Z" />
</g>
<g id="#bfcbc1ff">
<path fill="#bfcbc1" opacity="1.00" d=" M 119.26 190.39 C 120.59 186.78 122.15 183.25 123.83 179.79 C 124.18 181.79 124.52 183.79 124.85 185.80 C 126.33 186.71 127.81 187.63 129.29 188.54 C 127.73 192.72 126.07 196.89 125.09 201.26 C 124.90 202.02 124.52 203.55 124.33 204.31 C 122.53 203.67 120.07 203.83 118.94 202.00 C 117.91 200.07 117.78 197.83 117.46 195.72 C 117.99 193.92 118.61 192.15 119.26 190.39 Z" />
</g>
<g id="#567467ff">
<path fill="#567467" opacity="1.00" d=" M 388.36 180.00 C 392.66 191.36 397.87 202.73 398.52 215.04 C 398.74 219.96 399.54 224.83 400.22 229.70 C 399.95 231.20 399.65 232.71 399.33 234.21 C 397.52 231.09 397.00 227.50 395.83 224.15 C 394.56 222.10 391.72 221.46 390.76 219.14 C 389.51 216.36 389.31 213.27 388.62 210.33 C 387.21 204.10 385.07 198.06 382.87 192.07 C 385.49 188.43 386.29 183.92 388.36 180.00 Z" />
</g>
<g id="#6b4820ff">
<path fill="#6b4820" opacity="1.00" d=" M 275.58 180.19 C 276.43 181.67 277.21 183.28 277.03 185.04 C 276.93 193.05 275.50 200.99 275.68 209.01 C 275.83 215.79 274.52 222.56 275.46 229.32 C 276.56 239.85 275.51 250.44 276.26 261.00 C 276.95 271.36 274.47 282.47 279.54 292.08 C 279.58 291.49 279.68 290.31 279.72 289.71 C 281.52 293.03 283.55 296.47 286.98 298.33 C 291.18 299.51 296.01 300.67 300.02 298.27 C 300.48 298.87 300.91 299.50 301.31 300.17 C 296.99 302.76 291.58 302.11 286.92 300.91 C 281.06 299.39 276.93 294.08 275.27 288.47 C 273.03 280.84 273.55 272.80 273.43 264.95 C 273.71 241.12 273.23 217.26 274.21 193.45 C 274.39 189.00 274.89 184.58 275.58 180.19 Z" />
</g>
<g id="#d3d8a2ff">
<path fill="#d3d8a2" opacity="1.00" d=" M 108.68 195.08 C 110.01 191.03 111.33 186.97 112.68 182.92 C 113.41 184.08 114.15 185.24 114.88 186.41 C 114.09 188.78 113.39 191.18 112.74 193.60 C 112.28 195.26 111.84 196.92 111.41 198.59 C 110.51 197.41 109.58 196.26 108.68 195.08 Z" />
</g>
<g id="#91723bff">
<path fill="#91723b" opacity="1.00" d=" M 319.26 190.47 C 319.85 189.04 320.34 187.58 320.93 186.15 C 320.43 190.54 320.89 194.95 322.19 199.17 C 320.00 211.31 320.90 223.68 320.02 235.93 C 318.76 234.26 317.99 232.31 317.60 230.26 C 316.90 231.77 316.19 233.27 315.37 234.72 C 315.33 225.27 315.11 215.78 316.03 206.36 C 316.30 204.11 316.56 201.85 316.88 199.61 C 317.31 196.68 317.95 193.77 319.05 191.02 L 319.26 190.47 Z" />
</g>
<g id="#3c716aff">
<path fill="#3c716a" opacity="1.00" d=" M 113.99 193.04 C 115.18 191.43 116.32 189.79 117.44 188.14 C 117.90 188.70 118.80 189.83 119.26 190.39 C 118.61 192.15 117.99 193.92 117.46 195.72 C 115.36 202.29 114.03 209.06 112.34 215.73 C 111.31 219.88 110.70 224.12 110.39 228.38 C 110.31 228.97 110.15 230.15 110.07 230.74 C 109.96 231.03 109.73 231.60 109.61 231.89 L 107.58 231.86 C 107.70 218.68 110.83 205.76 113.99 193.04 Z" />
</g>
<g id="#f0f1eeff">
<path fill="#f0f1ee" opacity="1.00" d=" M 248.49 190.81 C 249.68 193.32 251.38 195.56 253.98 196.72 C 255.26 196.13 256.56 195.57 257.85 195.01 C 261.77 196.21 265.79 197.10 269.49 198.93 C 269.71 198.22 270.16 196.81 270.38 196.10 C 270.85 197.42 271.31 198.74 271.78 200.06 C 272.56 197.85 273.41 195.65 274.21 193.45 C 273.23 217.26 273.71 241.12 273.43 264.95 C 273.55 272.80 273.03 280.84 275.27 288.47 C 276.93 294.08 281.06 299.39 286.92 300.91 C 291.58 302.11 296.99 302.76 301.31 300.17 C 302.34 301.26 301.54 302.98 300.17 303.29 C 294.87 301.58 289.41 303.95 284.07 302.75 C 281.20 302.33 278.65 300.83 276.45 299.02 C 274.76 295.81 273.61 292.34 273.03 288.76 C 272.32 283.94 272.10 279.05 271.76 274.19 C 272.00 270.64 272.28 267.08 272.10 263.52 C 272.35 254.52 272.51 245.53 272.24 236.53 C 272.30 231.01 272.72 225.48 272.34 219.97 C 272.39 217.92 270.45 216.79 269.23 215.47 C 268.34 215.38 267.45 215.28 266.56 215.18 C 265.31 214.19 264.15 213.03 262.66 212.40 C 258.95 211.85 255.01 212.96 251.43 211.56 C 250.23 210.44 249.31 209.07 248.32 207.78 C 248.33 203.42 248.37 199.05 248.36 194.69 C 248.40 193.40 248.44 192.10 248.49 190.81 Z" />
</g>
<g id="#b4a27dff">
<path fill="#b4a27d" opacity="1.00" d=" M 401.94 190.54 C 404.92 198.60 406.75 207.05 407.91 215.55 C 407.48 222.35 408.93 229.19 407.66 235.95 C 407.32 233.50 406.92 231.06 406.52 228.63 C 405.95 223.71 405.24 218.82 404.13 213.99 C 403.55 210.93 402.79 207.91 402.24 204.85 C 402.17 204.13 402.12 203.41 402.09 202.69 C 402.63 198.65 402.37 194.57 401.94 190.54 Z" />
</g>
<g id="#121511ff">
<path fill="#121511" opacity="1.00" d=" M 112.74 193.60 L 113.99 193.04 C 110.83 205.76 107.70 218.68 107.58 231.86 L 107.23 231.85 C 107.16 229.68 106.73 227.54 106.37 225.41 C 107.18 216.33 109.25 207.42 111.41 198.59 C 111.84 196.92 112.28 195.26 112.74 193.60 Z" />
<path fill="#121511" opacity="1.00" d=" M 361.22 342.91 C 361.08 344.33 361.86 346.23 360.36 347.18 C 357.21 350.06 353.82 352.67 350.78 355.67 C 347.21 358.91 342.99 361.30 338.96 363.91 C 322.29 374.59 303.89 383.10 284.23 386.31 C 275.65 388.48 266.80 388.81 257.99 388.67 C 249.99 389.47 241.96 388.85 233.99 387.99 C 211.61 384.36 189.64 376.82 170.55 364.43 C 167.88 362.87 165.46 360.95 163.25 358.81 C 169.25 360.62 174.15 364.71 179.92 367.04 C 201.49 378.10 225.51 384.88 249.85 384.83 C 273.88 386.20 298.71 382.46 320.15 371.09 C 325.76 368.02 331.74 365.60 336.97 361.88 C 345.33 355.93 353.98 350.24 361.22 342.91 Z" />
</g>
<g id="#ccc590ff">
<path fill="#ccc590" opacity="1.00" d=" M 102.67 249.01 C 102.15 230.90 103.92 212.59 108.68 195.08 C 109.58 196.26 110.51 197.41 111.41 198.59 C 109.25 207.42 107.18 216.33 106.37 225.41 C 104.46 237.40 104.58 249.60 105.57 261.68 C 104.95 263.25 104.26 264.80 103.69 266.40 L 103.52 266.89 C 103.97 260.91 102.79 254.98 102.67 249.01 Z" />
</g>
<g id="#a7b8b3ff">
<path fill="#a7b8b3" opacity="1.00" d=" M 112.34 215.73 C 114.03 209.06 115.36 202.29 117.46 195.72 C 117.78 197.83 117.91 200.07 118.94 202.00 C 120.07 203.83 122.53 203.67 124.33 204.31 C 122.79 210.51 121.83 216.83 121.25 223.18 C 118.27 220.70 115.30 218.22 112.34 215.73 Z" />
</g>
<g id="#f1eff1ff">
<path fill="#f1eff1" opacity="1.00" d=" M 291.64 200.31 C 296.45 201.54 301.00 199.17 305.56 198.00 C 306.66 200.53 308.65 202.34 311.40 202.81 C 313.21 201.71 315.03 200.65 316.88 199.61 C 316.56 201.85 316.30 204.11 316.03 206.36 C 309.57 208.08 303.04 209.87 296.29 209.73 C 295.07 209.22 293.86 208.72 292.65 208.21 C 292.21 209.53 291.81 210.87 291.38 212.19 C 291.06 210.30 290.76 208.41 290.51 206.52 C 290.82 204.43 291.27 202.38 291.64 200.31 Z" />
</g>
<g id="#335247ff">
<path fill="#335247" opacity="1.00" d=" M 124.33 204.31 C 124.52 203.55 124.90 202.02 125.09 201.26 C 126.54 211.93 122.93 222.40 122.75 233.04 C 122.02 240.58 124.02 248.02 123.41 255.55 C 123.09 253.69 122.70 251.84 122.33 250.00 C 122.28 251.82 122.22 253.64 122.19 255.47 L 121.25 253.97 C 121.04 252.02 120.87 250.08 120.71 248.13 C 120.61 246.94 120.52 245.75 120.42 244.57 C 120.35 237.43 120.37 230.27 121.25 223.18 C 121.83 216.83 122.79 210.51 124.33 204.31 Z" />
</g>
<g id="#2f080aff">
<path fill="#2f080a" opacity="1.00" d=" M 229.89 207.74 C 233.10 206.72 236.52 203.74 239.96 204.96 C 245.99 213.42 242.01 224.15 243.44 233.62 C 243.99 237.41 242.99 241.17 242.91 244.96 C 242.85 247.50 244.89 249.37 246.32 251.23 C 243.53 251.26 240.35 250.99 238.24 253.21 C 229.52 253.70 220.78 253.37 212.06 253.66 C 211.36 252.71 210.65 251.77 209.95 250.83 C 211.33 249.63 212.70 248.42 214.08 247.21 C 212.81 246.00 211.53 244.81 210.27 243.60 C 212.34 237.23 216.02 231.57 218.32 225.30 C 219.31 221.93 222.82 220.60 225.47 218.76 C 226.06 214.77 227.94 211.21 229.89 207.74 Z" />
</g>
<g id="#e2e3dcff">
<path fill="#e2e3dc" opacity="1.00" d=" M 296.29 209.73 C 303.04 209.87 309.57 208.08 316.03 206.36 C 315.11 215.78 315.33 225.27 315.37 234.72 C 314.94 246.46 315.51 258.20 315.26 269.94 C 315.14 274.23 315.21 278.52 315.45 282.80 C 315.21 285.21 314.85 287.61 314.51 290.01 C 314.35 287.10 314.20 284.20 314.04 281.30 C 314.09 277.67 314.19 274.05 314.03 270.43 C 314.75 258.38 313.62 246.36 312.92 234.34 C 312.10 234.70 311.28 235.06 310.46 235.42 C 309.12 233.83 308.01 231.85 306.01 231.02 C 302.71 229.57 298.88 229.11 296.30 226.37 C 294.99 226.66 293.68 226.96 292.39 227.27 C 291.02 232.88 291.06 238.67 290.23 244.36 C 290.39 238.21 289.42 232.09 289.88 225.95 C 290.38 219.80 290.02 213.63 290.36 207.48 L 290.51 206.52 C 290.76 208.41 291.06 210.30 291.38 212.19 C 291.81 210.87 292.21 209.53 292.65 208.21 C 293.86 208.72 295.07 209.22 296.29 209.73 Z" />
</g>
<g id="#44422dff">
<path fill="#44422d" opacity="1.00" d=" M 400.96 212.40 C 400.90 209.83 400.90 207.14 402.24 204.85 C 402.79 207.91 403.55 210.93 404.13 213.99 C 405.10 227.87 404.95 241.79 404.67 255.69 C 401.67 252.08 403.35 247.20 403.08 242.95 C 402.87 232.75 401.39 222.60 400.96 212.40 Z" />
</g>
<g id="#e4e3dcff">
<path fill="#e4e3dc" opacity="1.00" d=" M 248.32 207.78 C 249.31 209.07 250.23 210.44 251.43 211.56 C 255.01 212.96 258.95 211.85 262.66 212.40 C 264.15 213.03 265.31 214.19 266.56 215.18 C 267.45 215.28 268.34 215.38 269.23 215.47 C 270.45 216.79 272.39 217.92 272.34 219.97 C 272.72 225.48 272.30 231.01 272.24 236.53 C 271.50 238.40 270.70 240.24 269.69 241.98 C 268.43 240.77 267.95 239.04 267.27 237.50 C 263.56 236.48 259.67 235.52 256.76 232.85 C 255.31 233.24 253.82 234.29 252.28 233.71 C 250.63 232.81 249.53 231.20 248.25 229.88 C 248.38 222.52 248.38 215.15 248.32 207.78 Z" />
</g>
<g id="#f2f3f2ff">
<path fill="#f2f3f2" opacity="1.00" d=" M 187.16 224.17 C 188.66 220.55 190.22 216.95 192.08 213.51 C 193.12 214.50 194.13 215.54 195.17 216.55 C 196.48 219.44 197.33 223.54 200.87 224.43 C 202.04 223.43 203.04 222.22 204.25 221.26 C 205.81 221.39 207.31 221.84 208.84 222.17 C 207.08 226.70 205.41 231.28 204.18 235.99 C 203.78 235.06 203.39 234.12 202.99 233.19 C 202.54 233.51 202.10 233.82 201.65 234.15 C 199.01 231.67 195.50 230.44 192.75 228.08 C 190.60 228.29 188.98 230.02 187.20 231.10 C 187.04 232.49 186.86 233.88 186.69 235.27 C 185.82 235.76 184.95 236.26 184.08 236.76 C 183.98 236.00 183.79 234.49 183.70 233.74 C 184.62 230.47 185.88 227.31 187.16 224.17 Z" />
</g>
<g id="#92593fff">
<path fill="#92593f" opacity="1.00" d=" M 404.13 213.99 C 405.24 218.82 405.95 223.71 406.52 228.63 C 405.90 241.20 407.27 253.85 405.68 266.37 C 405.43 268.86 405.31 271.36 405.23 273.87 C 405.83 272.51 406.44 271.16 406.99 269.79 C 406.69 275.52 405.29 281.09 403.69 286.58 C 401.67 293.38 398.51 299.75 396.24 306.46 L 396.11 306.68 C 395.61 305.69 395.12 304.71 394.64 303.73 C 395.14 301.77 395.61 299.80 396.15 297.85 C 397.01 295.64 397.85 293.42 398.58 291.17 C 402.59 279.81 405.14 267.78 404.67 255.69 C 404.95 241.79 405.10 227.87 404.13 213.99 Z" />
</g>
<g id="#99aba4ff">
<path fill="#99aba4" opacity="1.00" d=" M 112.34 215.73 C 115.30 218.22 118.27 220.70 121.25 223.18 C 120.37 230.27 120.35 237.43 120.42 244.57 C 119.77 242.99 119.08 241.43 118.38 239.88 C 117.80 239.19 117.21 238.50 116.64 237.82 C 115.14 238.22 113.64 238.61 112.14 239.00 C 112.81 237.07 113.49 235.14 114.16 233.20 C 113.59 233.67 113.02 234.14 112.46 234.61 C 111.90 232.49 111.28 230.38 110.39 228.38 C 110.70 224.12 111.31 219.88 112.34 215.73 Z" />
</g>
<g id="#5f472dff">
<path fill="#5f472d" opacity="1.00" d=" M 207.25 235.52 C 208.53 229.27 211.99 223.81 214.63 218.09 C 214.94 218.60 215.55 219.61 215.85 220.12 C 212.99 227.01 210.37 234.02 208.32 241.19 C 208.01 239.29 207.58 237.42 207.25 235.52 Z" />
</g>
<g id="#8a6a36ff">
<path fill="#8a6a36" opacity="1.00" d=" M 275.46 229.32 C 275.75 225.57 276.17 221.83 276.39 218.07 C 276.97 220.19 277.59 222.30 278.16 224.43 C 278.66 234.29 278.50 244.17 278.55 254.04 C 278.80 265.94 277.85 277.91 279.72 289.71 C 279.68 290.31 279.58 291.49 279.54 292.08 C 274.47 282.47 276.95 271.36 276.26 261.00 C 275.51 250.44 276.56 239.85 275.46 229.32 Z" />
</g>
<g id="#473b25ff">
<path fill="#473b25" opacity="1.00" d=" M 105.57 261.68 C 104.58 249.60 104.46 237.40 106.37 225.41 C 106.73 227.54 107.16 229.68 107.23 231.85 C 106.75 239.99 106.68 248.20 107.86 256.28 C 108.24 259.52 108.56 262.76 108.80 266.01 C 109.80 275.68 112.21 285.21 115.76 294.27 C 118.39 301.36 121.56 308.27 125.45 314.77 C 131.93 326.13 139.02 337.42 148.44 346.60 C 152.33 350.60 157.51 353.09 161.08 357.44 C 160.46 357.45 159.22 357.47 158.59 357.48 C 150.45 352.98 143.23 346.76 137.74 339.24 C 135.22 333.14 130.31 328.52 127.25 322.74 C 125.53 319.50 123.47 316.47 121.80 313.21 C 117.25 302.43 111.42 292.12 108.83 280.60 C 107.45 274.34 106.79 267.96 105.57 261.68 Z" />
</g>
<g id="#d1d2cbff">
<path fill="#d1d2cb" opacity="1.00" d=" M 292.39 227.27 C 293.68 226.96 294.99 226.66 296.30 226.37 C 298.88 229.11 302.71 229.57 306.01 231.02 C 308.01 231.85 309.12 233.83 310.46 235.42 C 311.28 235.06 312.10 234.70 312.92 234.34 C 313.62 246.36 314.75 258.38 314.03 270.43 C 313.42 268.35 312.73 266.31 312.07 264.25 C 311.39 264.70 310.70 265.15 310.02 265.61 C 309.24 262.96 308.71 260.23 308.62 257.47 C 304.20 260.34 298.68 259.76 293.90 261.71 C 292.97 261.21 292.04 260.72 291.12 260.22 C 291.09 262.44 291.05 264.66 291.06 266.88 L 290.20 266.91 C 290.34 259.39 290.05 251.87 290.23 244.36 C 291.06 238.67 291.02 232.88 292.39 227.27 Z" />
</g>
<g id="#e8eae8ff">
<path fill="#e8eae8" opacity="1.00" d=" M 187.20 231.10 C 188.98 230.02 190.60 228.29 192.75 228.08 C 195.50 230.44 199.01 231.67 201.65 234.15 C 202.10 233.82 202.54 233.51 202.99 233.19 C 203.39 234.12 203.78 235.06 204.18 235.99 C 204.04 236.56 203.76 237.69 203.62 238.26 C 202.44 243.36 201.20 248.47 200.48 253.66 C 199.35 251.17 198.82 248.47 198.54 245.76 C 194.07 245.15 189.59 244.62 185.15 243.79 C 184.09 244.12 183.03 244.45 181.97 244.79 C 181.79 244.25 181.42 243.16 181.24 242.61 C 181.96 239.62 182.79 236.67 183.70 233.74 C 183.79 234.49 183.98 236.00 184.08 236.76 C 184.95 236.26 185.82 235.76 186.69 235.27 C 186.86 233.88 187.04 232.49 187.20 231.10 Z" />
</g>
<g id="#8f9f98ff">
<path fill="#8f9f98" opacity="1.00" d=" M 110.39 228.38 C 111.28 230.38 111.90 232.49 112.46 234.61 C 113.02 234.14 113.59 233.67 114.16 233.20 C 113.49 235.14 112.81 237.07 112.14 239.00 C 113.64 238.61 115.14 238.22 116.64 237.82 C 117.21 238.50 117.80 239.19 118.38 239.88 C 119.08 241.43 119.77 242.99 120.42 244.57 C 120.52 245.75 120.61 246.94 120.71 248.13 C 119.75 247.49 118.79 246.85 117.83 246.22 C 115.52 251.88 115.30 258.04 114.60 264.04 C 112.21 259.03 110.32 253.67 110.16 248.07 C 109.96 242.29 110.09 236.51 110.07 230.74 C 110.15 230.15 110.31 228.97 110.39 228.38 Z" />
</g>
<g id="#d8d7d0ff">
<path fill="#d8d7d0" opacity="1.00" d=" M 248.25 229.88 C 249.53 231.20 250.63 232.81 252.28 233.71 C 253.82 234.29 255.31 233.24 256.76 232.85 C 259.67 235.52 263.56 236.48 267.27 237.50 C 267.95 239.04 268.43 240.77 269.69 241.98 C 270.70 240.24 271.50 238.40 272.24 236.53 C 272.51 245.53 272.35 254.52 272.10 263.52 C 271.63 261.65 271.13 259.80 270.61 257.95 C 267.91 258.26 266.04 255.70 263.39 255.69 C 261.03 255.53 258.87 254.53 256.67 253.76 C 252.94 255.25 250.26 258.63 249.04 262.39 C 248.90 260.41 248.32 258.52 247.60 256.69 L 247.46 256.26 C 247.54 255.26 247.63 254.27 247.74 253.28 C 248.65 245.52 248.08 237.68 248.25 229.88 Z" />
</g>
<g id="#8d6a2fff">
<path fill="#8d6a2f" opacity="1.00" d=" M 317.60 230.26 C 317.99 232.31 318.76 234.26 320.02 235.93 C 320.32 255.61 320.02 275.32 320.68 295.00 C 321.68 301.82 323.87 309.01 329.37 313.58 C 329.31 314.24 329.19 315.57 329.12 316.23 C 322.37 311.75 318.52 304.33 316.46 296.70 C 315.87 292.08 315.85 287.43 315.45 282.80 C 315.21 278.52 315.14 274.23 315.26 269.94 C 315.51 258.20 314.94 246.46 315.37 234.72 C 316.19 233.27 316.90 231.77 317.60 230.26 Z" />
</g>
<g id="#7a938dff">
<path fill="#7a938d" opacity="1.00" d=" M 109.61 231.89 C 109.73 231.60 109.96 231.03 110.07 230.74 C 110.09 236.51 109.96 242.29 110.16 248.07 C 110.32 253.67 112.21 259.03 114.60 264.04 C 115.30 258.04 115.52 251.88 117.83 246.22 C 118.79 246.85 119.75 247.49 120.71 248.13 C 120.87 250.08 121.04 252.02 121.25 253.97 C 119.13 259.75 117.69 265.74 115.90 271.63 C 114.03 268.32 112.73 264.73 111.57 261.12 C 109.91 262.28 108.79 263.91 108.80 266.01 C 108.56 262.76 108.24 259.52 107.86 256.28 C 108.46 248.16 107.43 239.84 109.61 231.89 Z" />
</g>
<g id="#465546ff">
<path fill="#465546" opacity="1.00" d=" M 107.23 231.85 L 107.58 231.86 L 109.61 231.89 C 107.43 239.84 108.46 248.16 107.86 256.28 C 106.68 248.20 106.75 239.99 107.23 231.85 Z" />
</g>
<g id="#2a5351ff">
<path fill="#2a5351" opacity="1.00" d=" M 388.16 236.91 C 387.83 235.08 389.72 234.04 390.69 232.80 C 392.74 238.99 392.01 245.55 391.14 251.87 C 392.56 250.80 393.98 249.74 395.42 248.69 C 397.58 252.56 396.30 256.85 395.14 260.80 C 395.63 261.51 396.11 262.23 396.61 262.94 C 395.98 266.46 395.62 270.10 396.87 273.53 C 397.44 278.53 395.12 283.13 393.84 287.82 C 391.98 293.16 391.23 299.44 386.73 303.35 C 386.01 297.73 388.06 292.40 388.95 286.95 C 389.86 282.30 386.44 277.77 388.29 273.23 C 389.78 269.46 389.30 265.38 387.69 261.74 C 384.32 266.03 384.46 271.67 382.63 276.59 C 382.02 278.35 381.39 280.11 380.85 281.89 C 379.66 282.11 378.48 282.34 377.30 282.57 C 377.36 281.78 377.42 281.00 377.49 280.22 C 376.78 280.31 376.08 280.41 375.38 280.51 C 375.52 278.57 375.66 276.63 375.87 274.70 C 376.63 271.10 377.43 267.50 377.96 263.85 C 378.38 261.58 378.82 259.31 379.14 257.02 C 380.51 258.47 381.89 259.93 383.28 261.38 C 388.21 254.36 388.92 245.22 388.16 236.91 Z" />
</g>
<g id="#704d25ff">
<path fill="#704d25" opacity="1.00" d=" M 203.62 238.26 C 204.82 237.33 206.10 236.52 207.25 235.52 C 207.58 237.42 208.01 239.29 208.32 241.19 C 207.19 245.67 206.28 250.20 205.66 254.78 C 204.42 256.68 202.55 258.54 202.72 260.98 C 202.72 264.78 202.94 268.60 202.42 272.38 C 201.26 270.20 200.20 267.94 199.61 265.53 C 199.64 261.56 200.20 257.62 200.48 253.66 C 201.20 248.47 202.44 243.36 203.62 238.26 Z" />
</g>
<g id="#d9dbd5ff">
<path fill="#d9dbd5" opacity="1.00" d=" M 177.76 280.55 C 177.32 267.84 178.58 255.04 181.24 242.61 C 181.42 243.16 181.79 244.25 181.97 244.79 C 183.03 244.45 184.09 244.12 185.15 243.79 C 189.59 244.62 194.07 245.15 198.54 245.76 C 198.82 248.47 199.35 251.17 200.48 253.66 C 200.20 257.62 199.64 261.56 199.61 265.53 C 199.43 271.56 200.11 277.55 200.50 283.56 C 199.85 281.70 199.10 279.88 198.41 278.04 C 198.24 278.38 197.88 279.06 197.71 279.39 C 197.41 276.94 197.01 274.50 196.66 272.06 C 194.06 272.71 191.57 273.77 189.39 275.34 C 188.34 275.15 187.29 274.97 186.25 274.79 C 186.62 274.46 187.35 273.80 187.72 273.48 C 186.83 272.17 185.93 270.87 185.04 269.57 C 183.85 270.78 182.66 271.99 181.47 273.20 C 180.78 273.23 180.08 273.25 179.39 273.29 C 178.95 275.73 178.40 278.15 177.76 280.55 Z" />
</g>
<g id="#0b1414ff">
<path fill="#0b1414" opacity="1.00" d=" M 122.33 250.00 C 122.70 251.84 123.09 253.69 123.41 255.55 C 123.81 260.96 124.90 266.31 126.34 271.54 C 129.93 289.08 138.79 305.02 149.16 319.42 C 149.98 320.52 150.80 321.63 151.52 322.80 C 151.62 323.48 151.82 324.83 151.91 325.51 C 153.71 327.77 156.14 329.40 158.70 330.69 C 162.39 327.49 167.75 329.20 171.25 331.85 C 176.19 336.20 180.80 341.02 186.43 344.52 C 190.30 346.70 194.38 348.50 198.17 350.83 C 195.07 350.22 191.90 350.15 188.76 350.09 C 189.73 351.75 190.70 353.42 191.68 355.09 C 184.35 355.73 177.05 354.04 170.09 351.91 C 165.25 350.51 162.49 345.90 160.46 341.63 C 158.50 337.15 154.51 334.08 152.07 329.93 C 150.04 326.59 148.14 323.17 145.98 319.92 C 143.22 315.14 140.21 310.51 137.46 305.73 C 133.40 296.09 128.38 286.80 125.67 276.63 C 125.02 273.59 124.25 270.57 123.57 267.53 C 122.94 263.53 122.51 259.50 122.19 255.47 C 122.22 253.64 122.28 251.82 122.33 250.00 Z" />
</g>
<g id="#fef9f7ff">
<path fill="#fef9f7" opacity="1.00" d=" M 208.98 253.83 C 210.01 253.76 211.03 253.70 212.06 253.66 C 220.78 253.37 229.52 253.70 238.24 253.21 C 241.40 253.25 244.57 253.29 247.74 253.28 C 247.63 254.27 247.54 255.26 247.46 256.26 C 240.64 256.39 233.82 256.31 227.00 256.28 C 220.69 256.21 214.30 256.71 208.10 255.26 C 208.32 254.90 208.76 254.18 208.98 253.83 Z" />
</g>
<g id="#c6c5c0ff">
<path fill="#c6c5c0" opacity="1.00" d=" M 249.04 262.39 C 250.26 258.63 252.94 255.25 256.67 253.76 C 258.87 254.53 261.03 255.53 263.39 255.69 C 266.04 255.70 267.91 258.26 270.61 257.95 C 271.13 259.80 271.63 261.65 272.10 263.52 C 272.28 267.08 272.00 270.64 271.76 274.19 C 271.34 273.14 270.90 272.10 270.45 271.07 C 270.26 272.09 270.08 273.12 269.90 274.16 C 265.33 273.02 260.64 274.19 256.02 274.23 C 254.45 274.43 252.61 274.19 251.31 275.23 C 250.43 276.68 249.97 278.32 249.39 279.91 C 248.92 274.08 248.16 268.22 249.04 262.39 Z" />
</g>
<g id="#5f7d76ff">
<path fill="#5f7d76" opacity="1.00" d=" M 115.90 271.63 C 117.69 265.74 119.13 259.75 121.25 253.97 L 122.19 255.47 C 122.51 259.50 122.94 263.53 123.57 267.53 C 122.20 273.76 122.42 280.14 122.53 286.47 C 120.54 286.19 118.55 285.80 116.60 285.34 C 116.33 289.02 117.55 292.54 118.79 295.94 C 117.78 295.38 116.77 294.82 115.76 294.27 C 112.21 285.21 109.80 275.68 108.80 266.01 C 108.79 263.91 109.91 262.28 111.57 261.12 C 112.73 264.73 114.03 268.32 115.90 271.63 Z" />
<path fill="#5f7d76" opacity="1.00" d=" M 364.06 338.17 C 364.54 337.92 365.49 337.41 365.96 337.16 C 364.23 338.95 362.75 340.96 361.22 342.91 C 353.98 350.24 345.33 355.93 336.97 361.88 C 331.74 365.60 325.76 368.02 320.15 371.09 C 298.71 382.46 273.88 386.20 249.85 384.83 C 250.17 384.36 250.81 383.41 251.13 382.94 C 265.12 383.04 279.32 382.98 292.94 379.32 C 298.86 377.66 304.72 375.73 310.39 373.34 C 320.82 368.77 331.29 363.97 340.39 357.02 C 346.36 353.20 351.71 348.55 357.39 344.34 C 359.81 342.51 361.97 340.36 364.06 338.17 Z" />
</g>
<g id="#82663dff">
<path fill="#82663d" opacity="1.00" d=" M 202.72 260.98 C 202.55 258.54 204.42 256.68 205.66 254.78 C 205.54 258.25 205.11 261.71 204.69 265.16 C 203.82 274.75 204.80 284.48 207.38 293.76 C 207.13 294.08 206.65 294.72 206.40 295.04 C 205.20 291.37 204.24 287.64 203.26 283.91 C 202.97 285.68 202.68 287.45 202.47 289.24 C 201.78 287.35 201.11 285.46 200.50 283.56 C 200.11 277.55 199.43 271.56 199.61 265.53 C 200.20 267.94 201.26 270.20 202.42 272.38 C 202.94 268.60 202.72 264.78 202.72 260.98 Z" />
<path fill="#82663d" opacity="1.00" d=" M 338.96 363.91 C 342.99 361.30 347.21 358.91 350.78 355.67 C 351.18 356.04 352.00 356.78 352.40 357.15 C 351.66 357.53 350.92 357.94 350.20 358.36 C 344.10 361.69 338.61 366.01 332.54 369.40 C 315.85 379.24 297.38 386.58 278.02 388.72 C 270.40 390.00 262.65 389.07 255.01 390.17 C 242.97 389.73 230.84 389.12 219.15 385.90 C 208.39 383.31 197.79 379.89 187.75 375.22 C 177.45 370.31 168.01 363.86 158.59 357.48 C 159.22 357.47 160.46 357.45 161.08 357.44 C 161.80 357.89 162.52 358.35 163.25 358.81 C 165.46 360.95 167.88 362.87 170.55 364.43 C 189.64 376.82 211.61 384.36 233.99 387.99 C 241.96 388.85 249.99 389.47 257.99 388.67 C 266.80 388.81 275.65 388.48 284.23 386.31 C 303.89 383.10 322.29 374.59 338.96 363.91 Z" />
</g>
<g id="#0c0100ff">
<path fill="#0c0100" opacity="1.00" d=" M 205.66 254.78 C 206.27 254.90 207.49 255.14 208.10 255.26 C 214.30 256.71 220.69 256.21 227.00 256.28 C 233.82 256.31 240.64 256.39 247.46 256.26 L 247.60 256.69 C 247.67 262.09 247.48 267.48 247.45 272.87 C 244.51 271.24 244.98 267.70 244.02 264.97 C 242.13 263.67 239.67 263.56 237.44 263.70 C 226.62 265.25 215.60 266.96 204.69 265.16 C 205.11 261.71 205.54 258.25 205.66 254.78 Z" />
</g>
<g id="#b5b3acff">
<path fill="#b5b3ac" opacity="1.00" d=" M 247.60 256.69 C 248.32 258.52 248.90 260.41 249.04 262.39 C 248.16 268.22 248.92 274.08 249.39 279.91 C 249.97 278.32 250.43 276.68 251.31 275.23 C 252.61 274.19 254.45 274.43 256.02 274.23 C 260.64 274.19 265.33 273.02 269.90 274.16 C 270.08 273.12 270.26 272.09 270.45 271.07 C 270.90 272.10 271.34 273.14 271.76 274.19 C 272.10 279.05 272.32 283.94 273.03 288.76 C 272.53 289.69 272.04 290.61 271.54 291.54 C 269.18 290.47 266.93 288.97 264.35 288.56 C 261.34 288.72 258.36 289.23 255.37 289.61 C 254.18 289.71 253.65 291.00 252.87 291.73 C 251.84 291.92 250.80 292.11 249.77 292.29 C 249.33 288.29 249.03 284.25 247.77 280.41 C 247.63 277.90 247.58 275.38 247.45 272.87 C 247.48 267.48 247.67 262.09 247.60 256.69 Z" />
<path fill="#b5b3ac" opacity="1.00" d=" M 347.78 326.33 C 348.03 325.95 348.53 325.19 348.78 324.81 C 349.35 325.23 350.49 326.08 351.06 326.50 L 352.04 326.67 C 352.63 326.69 353.81 326.73 354.40 326.75 C 353.98 327.15 353.12 327.97 352.70 328.38 C 351.03 327.76 349.40 327.04 347.78 326.33 Z" />
</g>
<g id="#c3c4bcff">
<path fill="#c3c4bc" opacity="1.00" d=" M 293.90 261.71 C 298.68 259.76 304.20 260.34 308.62 257.47 C 308.71 260.23 309.24 262.96 310.02 265.61 C 310.70 265.15 311.39 264.70 312.07 264.25 C 312.73 266.31 313.42 268.35 314.03 270.43 C 314.19 274.05 314.09 277.67 314.04 281.30 C 313.48 280.13 312.88 279.00 312.29 277.86 C 305.67 277.54 300.01 271.14 293.26 274.49 C 293.00 273.79 292.74 273.10 292.49 272.41 C 292.15 272.74 291.49 273.39 291.15 273.72 C 291.11 271.44 291.06 269.16 291.06 266.88 C 291.05 264.66 291.09 262.44 291.12 260.22 C 292.04 260.72 292.97 261.21 293.90 261.71 Z" />
</g>
<g id="#97855cff">
<path fill="#97855c" opacity="1.00" d=" M 105.57 261.68 C 106.79 267.96 107.45 274.34 108.83 280.60 C 108.90 283.96 109.25 287.34 110.35 290.54 C 109.97 291.11 109.59 291.69 109.21 292.27 C 106.43 283.90 103.67 275.31 103.69 266.40 C 104.26 264.80 104.95 263.25 105.57 261.68 Z" />
</g>
<g id="#1e4242ff">
<path fill="#1e4242" opacity="1.00" d=" M 382.63 276.59 C 384.46 271.67 384.32 266.03 387.69 261.74 C 389.30 265.38 389.78 269.46 388.29 273.23 C 386.44 277.77 389.86 282.30 388.95 286.95 C 388.06 292.40 386.01 297.73 386.73 303.35 C 391.23 299.44 391.98 293.16 393.84 287.82 C 394.86 288.60 395.88 289.39 396.91 290.17 C 395.37 293.75 393.87 297.38 391.60 300.58 C 387.79 305.84 385.59 312.07 381.62 317.24 C 380.55 317.77 379.47 318.29 378.40 318.80 C 377.93 312.23 379.05 305.74 380.44 299.35 C 381.22 296.18 379.50 293.24 378.19 290.48 C 379.25 287.67 379.99 284.76 380.85 281.89 C 381.39 280.11 382.02 278.35 382.63 276.59 Z" />
</g>
<g id="#280505ff">
<path fill="#280505" opacity="1.00" d=" M 237.44 263.70 C 239.67 263.56 242.13 263.67 244.02 264.97 C 244.98 267.70 244.51 271.24 247.45 272.87 C 247.58 275.38 247.63 277.90 247.77 280.41 C 247.64 290.83 250.01 301.99 257.36 309.79 C 256.86 309.93 255.86 310.22 255.37 310.37 C 254.48 309.98 253.59 309.60 252.71 309.22 C 255.44 314.27 258.78 319.06 263.04 322.94 C 265.19 325.09 268.38 325.19 271.12 326.07 C 273.41 326.62 275.48 327.86 277.78 328.32 C 284.16 326.24 289.53 321.76 295.98 319.90 C 300.77 320.67 304.11 324.49 307.13 327.95 C 311.02 332.37 317.18 334.79 319.70 340.37 C 321.09 343.36 317.77 345.35 315.61 346.61 C 313.99 347.79 311.23 348.34 311.39 350.86 C 305.97 353.42 300.47 355.79 294.95 358.12 C 286.94 360.92 278.63 362.87 270.28 364.29 C 261.17 365.00 251.98 365.06 242.87 364.32 C 245.41 364.26 247.92 363.81 250.40 363.25 C 258.47 361.08 266.90 362.64 275.08 361.29 C 282.21 360.54 288.99 358.08 295.60 355.43 C 298.19 354.30 301.23 353.02 302.20 350.11 C 303.78 345.74 305.85 341.48 306.75 336.92 C 305.66 334.45 303.49 332.65 302.01 330.42 C 300.41 328.28 298.91 325.39 295.92 325.18 C 291.51 325.11 287.59 328.20 285.69 332.03 C 287.72 334.93 290.71 336.92 293.24 339.35 C 291.76 340.34 290.36 341.84 288.40 341.41 C 282.85 340.80 277.07 342.33 271.73 340.22 C 266.81 338.27 261.38 336.21 258.69 331.29 C 256.34 327.08 251.99 323.93 251.16 318.98 C 250.17 313.61 246.92 308.92 246.55 303.40 C 245.95 296.16 243.99 289.14 243.28 281.92 C 242.92 278.38 242.26 274.89 241.44 271.43 C 235.58 270.22 229.56 270.42 223.61 270.60 C 219.12 271.09 213.77 272.17 211.00 276.05 C 209.40 281.79 209.43 287.99 210.17 293.89 C 210.67 298.81 216.21 302.31 214.46 307.54 C 212.07 302.96 209.15 298.64 207.38 293.76 C 204.80 284.48 203.82 274.75 204.69 265.16 C 215.60 266.96 226.62 265.25 237.44 263.70 Z" />
</g>
<g id="#273537ff">
</g>
<g id="#b4b2aaff">
<path fill="#b4b2aa" opacity="1.00" d=" M 290.20 266.91 L 291.06 266.88 C 291.06 269.16 291.11 271.44 291.15 273.72 C 291.49 273.39 292.15 272.74 292.49 272.41 C 292.74 273.10 293.00 273.79 293.26 274.49 C 300.01 271.14 305.67 277.54 312.29 277.86 C 312.88 279.00 313.48 280.13 314.04 281.30 C 314.20 284.20 314.35 287.10 314.51 290.01 C 314.85 287.61 315.21 285.21 315.45 282.80 C 315.85 287.43 315.87 292.08 316.46 296.70 C 314.51 295.87 314.46 293.27 313.27 291.69 C 309.00 290.94 304.24 292.25 300.57 289.30 C 298.72 289.80 296.88 290.32 295.04 290.84 C 294.04 289.93 293.05 289.02 292.02 288.16 C 291.60 288.40 290.75 288.88 290.33 289.12 C 290.20 281.72 290.10 274.31 290.20 266.91 Z" />
</g>
<g id="#4d6d68ff">
<path fill="#4d6d68" opacity="1.00" d=" M 123.57 267.53 C 124.25 270.57 125.02 273.59 125.67 276.63 C 124.94 282.09 124.13 287.56 124.73 293.07 C 125.20 294.95 123.53 296.16 122.55 297.51 C 123.16 303.33 126.43 308.83 125.45 314.77 C 121.56 308.27 118.39 301.36 115.76 294.27 C 116.77 294.82 117.78 295.38 118.79 295.94 C 117.55 292.54 116.33 289.02 116.60 285.34 C 118.55 285.80 120.54 286.19 122.53 286.47 C 122.42 280.14 122.20 273.76 123.57 267.53 Z" />
</g>
<g id="#ccccc6ff">
<path fill="#ccccc6" opacity="1.00" d=" M 181.47 273.20 C 182.66 271.99 183.85 270.78 185.04 269.57 C 185.93 270.87 186.83 272.17 187.72 273.48 C 187.35 273.80 186.62 274.46 186.25 274.79 C 187.29 274.97 188.34 275.15 189.39 275.34 C 191.57 273.77 194.06 272.71 196.66 272.06 C 197.01 274.50 197.41 276.94 197.71 279.39 C 197.80 281.36 197.91 283.33 198.05 285.31 C 197.67 284.93 196.91 284.16 196.53 283.78 C 196.57 282.96 196.60 282.14 196.64 281.32 C 195.76 281.97 194.88 282.60 194.01 283.26 C 190.37 283.02 186.66 282.48 183.69 280.16 C 183.08 281.81 182.49 283.45 182.02 285.15 C 181.52 285.33 181.03 285.53 180.54 285.73 C 179.88 287.36 179.15 288.95 178.53 290.60 C 178.25 287.25 177.78 283.91 177.76 280.55 C 178.40 278.15 178.95 275.73 179.39 273.29 C 180.08 273.25 180.78 273.23 181.47 273.20 Z" />
</g>
<g id="#390607ff">
<path fill="#390607" opacity="1.00" d=" M 223.61 270.60 C 229.56 270.42 235.58 270.22 241.44 271.43 C 242.26 274.89 242.92 278.38 243.28 281.92 C 243.99 289.14 245.95 296.16 246.55 303.40 C 246.92 308.92 250.17 313.61 251.16 318.98 C 251.99 323.93 256.34 327.08 258.69 331.29 C 261.38 336.21 266.81 338.27 271.73 340.22 C 277.07 342.33 282.85 340.80 288.40 341.41 C 290.36 341.84 291.76 340.34 293.24 339.35 C 290.71 336.92 287.72 334.93 285.69 332.03 C 287.59 328.20 291.51 325.11 295.92 325.18 C 298.91 325.39 300.41 328.28 302.01 330.42 C 303.49 332.65 305.66 334.45 306.75 336.92 C 305.85 341.48 303.78 345.74 302.20 350.11 C 301.23 353.02 298.19 354.30 295.60 355.43 C 288.99 358.08 282.21 360.54 275.08 361.29 C 266.90 362.64 258.47 361.08 250.40 363.25 C 249.86 363.22 248.79 363.16 248.25 363.12 C 241.77 360.86 236.71 356.08 231.78 351.49 C 231.66 351.15 231.41 350.49 231.28 350.15 C 230.34 350.81 229.28 351.28 228.35 351.95 C 226.19 350.11 223.93 348.42 221.58 346.85 C 221.80 346.38 222.03 345.90 222.27 345.44 C 218.61 343.02 215.17 339.49 214.20 335.13 C 215.30 332.23 217.03 329.63 218.28 326.79 C 220.92 325.64 223.75 325.09 226.57 324.59 C 226.56 324.27 226.54 323.63 226.53 323.31 L 226.52 322.83 C 221.00 318.60 215.36 314.32 211.74 308.24 L 211.32 306.76 C 212.10 307.07 213.65 307.69 214.43 308.00 L 214.46 307.54 C 216.21 302.31 210.67 298.81 210.17 293.89 C 209.43 287.99 209.40 281.79 211.00 276.05 C 213.77 272.17 219.12 271.09 223.61 270.60 Z" />
</g>
<g id="#456462ff">
<path fill="#456462" opacity="1.00" d=" M 126.34 271.54 L 128.18 272.54 C 130.99 281.21 134.40 289.68 138.34 297.91 C 139.60 300.44 141.68 302.42 143.56 304.48 C 144.52 303.72 145.47 302.97 146.38 302.17 C 147.20 303.55 148.07 304.89 148.93 306.26 C 151.18 309.93 153.51 313.55 155.80 317.20 C 153.69 318.22 151.44 318.91 149.16 319.42 C 138.79 305.02 129.93 289.08 126.34 271.54 Z" />
</g>
<g id="#2a4e49ff">
<path fill="#2a4e49" opacity="1.00" d=" M 367.36 296.33 C 370.77 289.36 373.28 282.00 375.87 274.70 C 375.66 276.63 375.52 278.57 375.38 280.51 C 376.08 280.41 376.78 280.31 377.49 280.22 C 377.42 281.00 377.36 281.78 377.30 282.57 C 378.48 282.34 379.66 282.11 380.85 281.89 C 379.99 284.76 379.25 287.67 378.19 290.48 C 372.95 303.00 365.00 314.02 356.89 324.80 C 356.06 325.44 355.23 326.09 354.40 326.75 C 353.81 326.73 352.63 326.69 352.04 326.67 C 352.52 326.13 353.49 325.05 353.97 324.51 C 352.99 323.48 352.00 322.47 350.99 321.49 L 350.64 321.43 C 356.95 313.60 362.90 305.38 367.36 296.33 Z" />
</g>
<g id="#3a5857ff">
<path fill="#3a5857" opacity="1.00" d=" M 125.67 276.63 C 128.38 286.80 133.40 296.09 137.46 305.73 C 135.21 304.63 132.76 304.02 130.59 305.66 C 133.17 313.51 136.60 321.03 140.86 328.10 C 143.75 335.61 149.69 341.21 154.57 347.43 C 158.67 353.08 164.82 356.93 171.34 359.23 C 174.70 361.09 177.97 363.12 181.23 365.16 C 180.73 365.15 179.74 365.12 179.24 365.11 C 179.41 365.59 179.75 366.56 179.92 367.04 C 174.15 364.71 169.25 360.62 163.25 358.81 C 162.52 358.35 161.80 357.89 161.08 357.44 C 157.51 353.09 152.33 350.60 148.44 346.60 C 139.02 337.42 131.93 326.13 125.45 314.77 C 126.43 308.83 123.16 303.33 122.55 297.51 C 123.53 296.16 125.20 294.95 124.73 293.07 C 124.13 287.56 124.94 282.09 125.67 276.63 Z" />
</g>
<g id="#f6f7f3ff">
<path fill="#f6f7f3" opacity="1.00" d=" M 197.71 279.39 C 197.88 279.06 198.24 278.38 198.41 278.04 C 199.10 279.88 199.85 281.70 200.50 283.56 C 201.11 285.46 201.78 287.35 202.47 289.24 C 204.86 295.87 207.45 302.57 211.74 308.24 C 215.36 314.32 221.00 318.60 226.52 322.83 C 223.00 322.79 219.53 322.22 216.16 321.23 C 216.75 321.02 217.93 320.61 218.52 320.40 L 219.99 319.96 C 216.49 317.86 212.16 316.76 209.61 313.38 C 207.67 310.91 206.10 308.19 204.52 305.49 C 201.69 300.05 199.29 294.27 198.30 288.19 C 198.24 287.47 198.11 286.03 198.05 285.31 C 197.91 283.33 197.80 281.36 197.71 279.39 Z" />
</g>
<g id="#c2c0baff">
<path fill="#c2c0ba" opacity="1.00" d=" M 183.69 280.16 C 186.66 282.48 190.37 283.02 194.01 283.26 C 194.88 282.60 195.76 281.97 196.64 281.32 C 196.60 282.14 196.57 282.96 196.53 283.78 C 196.91 284.16 197.67 284.93 198.05 285.31 C 198.11 286.03 198.24 287.47 198.30 288.19 C 191.89 290.07 185.44 292.22 178.70 292.47 C 178.66 292.00 178.57 291.07 178.53 290.60 C 179.15 288.95 179.88 287.36 180.54 285.73 C 181.03 285.53 181.52 285.33 182.02 285.15 C 182.49 283.45 183.08 281.81 183.69 280.16 Z" />
</g>
<g id="#735138ff">
<path fill="#735138" opacity="1.00" d=" M 108.83 280.60 C 111.42 292.12 117.25 302.43 121.80 313.21 C 123.47 316.47 125.53 319.50 127.25 322.74 C 130.31 328.52 135.22 333.14 137.74 339.24 C 135.27 336.39 132.46 333.85 130.30 330.75 C 124.54 322.29 119.01 313.67 114.06 304.71 C 112.76 300.45 110.77 296.44 109.21 292.27 C 109.59 291.69 109.97 291.11 110.35 290.54 C 109.25 287.34 108.90 283.96 108.83 280.60 Z" />
</g>
<g id="#949186ff">
<path fill="#949186" opacity="1.00" d=" M 247.77 280.41 C 249.03 284.25 249.33 288.29 249.77 292.29 C 250.25 295.67 251.64 298.82 253.22 301.82 C 260.45 297.40 269.04 302.68 276.45 299.02 C 278.65 300.83 281.20 302.33 284.07 302.75 C 289.41 303.95 294.87 301.58 300.17 303.29 C 301.36 304.04 302.61 304.68 303.86 305.34 C 303.18 307.95 302.31 310.52 301.02 312.90 C 295.30 314.13 289.93 316.79 284.02 317.16 C 274.68 318.29 264.16 316.91 257.36 309.79 C 250.01 301.99 247.64 290.83 247.77 280.41 Z" />
</g>
<g id="#654327ff">
<path fill="#654327" opacity="1.00" d=" M 203.26 283.91 C 204.24 287.64 205.20 291.37 206.40 295.04 C 206.65 294.72 207.13 294.08 207.38 293.76 C 209.15 298.64 212.07 302.96 214.46 307.54 L 214.43 308.00 C 213.65 307.69 212.10 307.07 211.32 306.76 L 211.74 308.24 C 207.45 302.57 204.86 295.87 202.47 289.24 C 202.68 287.45 202.97 285.68 203.26 283.91 Z" />
</g>
<g id="#3e2d22ff">
<path fill="#3e2d22" opacity="1.00" d=" M 396.24 306.46 C 398.51 299.75 401.67 293.38 403.69 286.58 C 403.83 288.10 403.96 289.62 404.10 291.15 C 402.17 296.51 401.05 302.82 396.24 306.46 Z" />
</g>
<g id="#abaaa2ff">
<path fill="#abaaa2" opacity="1.00" d=" M 178.70 292.47 C 185.44 292.22 191.89 290.07 198.30 288.19 C 199.29 294.27 201.69 300.05 204.52 305.49 C 202.70 305.31 200.89 305.14 199.08 304.97 C 199.43 305.34 200.13 306.08 200.49 306.45 C 197.73 307.28 195.15 308.59 192.82 310.28 C 189.93 310.74 187.16 311.73 184.49 312.89 C 184.29 312.24 183.90 310.92 183.70 310.27 C 183.26 310.74 182.82 311.22 182.39 311.70 C 181.99 309.32 181.55 306.95 180.99 304.62 C 180.04 300.60 179.15 296.57 178.70 292.47 Z" />
</g>
<g id="#a4a39aff">
<path fill="#a4a39a" opacity="1.00" d=" M 255.37 289.61 C 258.36 289.23 261.34 288.72 264.35 288.56 C 266.93 288.97 269.18 290.47 271.54 291.54 C 272.04 290.61 272.53 289.69 273.03 288.76 C 273.61 292.34 274.76 295.81 276.45 299.02 C 269.04 302.68 260.45 297.40 253.22 301.82 C 251.64 298.82 250.25 295.67 249.77 292.29 C 250.80 292.11 251.84 291.92 252.87 291.73 C 253.65 291.00 254.18 289.71 255.37 289.61 Z" />
</g>
<g id="#9e9b8eff">
<path fill="#9e9b8e" opacity="1.00" d=" M 290.33 289.12 C 290.75 288.88 291.60 288.40 292.02 288.16 C 293.05 289.02 294.04 289.93 295.04 290.84 C 296.88 290.32 298.72 289.80 300.57 289.30 C 304.24 292.25 309.00 290.94 313.27 291.69 C 314.46 293.27 314.51 295.87 316.46 296.70 C 318.52 304.33 322.37 311.75 329.12 316.23 C 329.19 315.57 329.31 314.24 329.37 313.58 C 330.43 314.59 331.53 315.58 332.63 316.57 C 333.00 318.51 333.67 320.37 334.52 322.16 C 330.28 320.03 326.65 316.94 322.60 314.54 C 318.83 313.71 314.11 312.37 310.66 314.72 C 307.66 317.00 312.37 319.27 312.52 321.94 C 307.91 320.07 304.00 316.84 301.02 312.90 C 302.31 310.52 303.18 307.95 303.86 305.34 C 302.61 304.68 301.36 304.04 300.17 303.29 C 301.54 302.98 302.34 301.26 301.31 300.17 C 300.91 299.50 300.48 298.87 300.02 298.27 C 297.74 297.46 295.32 297.49 292.95 297.36 C 291.70 294.76 290.34 292.07 290.33 289.12 Z" />
</g>
<g id="#3e2212ff">
<path fill="#3e2212" opacity="1.00" d=" M 396.91 290.17 C 397.19 289.55 397.75 288.33 398.03 287.71 C 398.17 288.58 398.44 290.30 398.58 291.17 C 397.85 293.42 397.01 295.64 396.15 297.85 C 394.46 300.77 392.97 303.80 391.85 306.99 C 390.77 310.03 389.13 313.08 389.49 316.42 C 389.59 316.79 389.79 317.55 389.89 317.92 C 384.31 325.59 377.79 332.45 371.47 339.49 C 365.08 345.32 360.01 352.79 352.40 357.15 C 352.00 356.78 351.18 356.04 350.78 355.67 C 353.82 352.67 357.21 350.06 360.36 347.18 C 361.86 346.23 361.08 344.33 361.22 342.91 C 362.75 340.96 364.23 338.95 365.96 337.16 C 371.86 331.10 377.02 324.32 381.62 317.24 C 385.59 312.07 387.79 305.84 391.60 300.58 C 393.87 297.38 395.37 293.75 396.91 290.17 Z" />
</g>
<g id="#162e2eff">
<path fill="#162e2e" opacity="1.00" d=" M 378.19 290.48 C 379.50 293.24 381.22 296.18 380.44 299.35 C 379.05 305.74 377.93 312.23 378.40 318.80 C 379.47 318.29 380.55 317.77 381.62 317.24 C 377.02 324.32 371.86 331.10 365.96 337.16 C 365.49 337.41 364.54 337.92 364.06 338.17 C 361.97 340.36 359.81 342.51 357.39 344.34 C 351.71 348.55 346.36 353.20 340.39 357.02 C 340.90 355.63 341.31 354.20 342.07 352.93 C 346.01 348.83 350.07 344.58 352.28 339.25 C 355.20 334.93 358.13 330.44 358.84 325.14 C 358.35 325.05 357.38 324.88 356.89 324.80 C 365.00 314.02 372.95 303.00 378.19 290.48 Z" />
</g>
<g id="#7c4429ff">
<path fill="#7c4429" opacity="1.00" d=" M 391.85 306.99 C 392.97 303.80 394.46 300.77 396.15 297.85 C 395.61 299.80 395.14 301.77 394.64 303.73 C 395.12 304.71 395.61 305.69 396.11 306.68 C 394.14 310.08 392.03 313.41 389.49 316.42 C 389.13 313.08 390.77 310.03 391.85 306.99 Z" />
</g>
<g id="#26403fff">
<path fill="#26403f" opacity="1.00" d=" M 130.59 305.66 C 132.76 304.02 135.21 304.63 137.46 305.73 C 140.21 310.51 143.22 315.14 145.98 319.92 C 146.31 322.84 146.17 325.91 147.38 328.66 C 149.57 334.07 153.67 338.36 156.53 343.39 C 158.34 346.48 159.97 349.79 162.71 352.19 C 165.51 354.62 168.54 356.79 171.34 359.23 C 164.82 356.93 158.67 353.08 154.57 347.43 C 149.69 341.21 143.75 335.61 140.86 328.10 C 136.60 321.03 133.17 313.51 130.59 305.66 Z" />
</g>
<g id="#24130dff">
<path fill="#24130d" opacity="1.00" d=" M 114.06 304.71 C 119.01 313.67 124.54 322.29 130.30 330.75 C 132.46 333.85 135.27 336.39 137.74 339.24 C 143.23 346.76 150.45 352.98 158.59 357.48 C 168.01 363.86 177.45 370.31 187.75 375.22 C 197.79 379.89 208.39 383.31 219.15 385.90 C 218.78 386.21 218.04 386.82 217.67 387.13 C 217.95 388.09 218.22 389.06 218.50 390.03 C 212.44 388.49 205.95 388.58 200.28 385.70 C 188.88 381.24 176.73 377.66 167.11 369.74 C 162.53 365.94 156.64 363.87 152.89 359.09 C 145.81 352.43 139.43 345.11 132.96 337.89 C 125.86 327.39 117.24 317.25 114.06 304.71 Z" />
</g>
<g id="#9a9993ff">
<path fill="#9a9993" opacity="1.00" d=" M 180.99 304.62 C 181.55 306.95 181.99 309.32 182.39 311.70 C 182.82 311.22 183.26 310.74 183.70 310.27 C 183.90 310.92 184.29 312.24 184.49 312.89 C 187.16 311.73 189.93 310.74 192.82 310.28 C 195.15 308.59 197.73 307.28 200.49 306.45 C 200.13 306.08 199.43 305.34 199.08 304.97 C 200.89 305.14 202.70 305.31 204.52 305.49 C 206.10 308.19 207.67 310.91 209.61 313.38 C 212.16 316.76 216.49 317.86 219.99 319.96 L 218.52 320.40 C 209.90 319.96 201.70 323.21 193.10 323.21 C 193.41 323.32 194.02 323.54 194.33 323.65 C 186.37 324.75 178.32 324.41 170.34 325.23 C 172.03 324.63 173.70 323.98 175.38 323.34 C 175.30 322.43 175.23 321.53 175.17 320.62 C 177.62 318.17 180.15 315.46 180.99 311.99 C 181.41 309.55 181.18 307.06 180.99 304.62 Z" />
</g>
<g id="#0b0301ff">
<path fill="#0b0301" opacity="1.00" d=" M 252.71 309.22 C 253.59 309.60 254.48 309.98 255.37 310.37 C 255.86 310.22 256.86 309.93 257.36 309.79 C 264.16 316.91 274.68 318.29 284.02 317.16 C 289.93 316.79 295.30 314.13 301.02 312.90 C 304.00 316.84 307.91 320.07 312.52 321.94 C 321.73 325.69 332.02 325.86 341.81 325.39 C 343.24 325.18 344.64 324.87 346.04 324.55 C 346.27 324.86 346.73 325.46 346.96 325.77 C 343.69 328.88 340.07 331.60 336.77 334.68 C 329.42 341.62 320.53 346.67 311.39 350.86 C 311.23 348.34 313.99 347.79 315.61 346.61 C 317.77 345.35 321.09 343.36 319.70 340.37 C 317.18 334.79 311.02 332.37 307.13 327.95 C 304.11 324.49 300.77 320.67 295.98 319.90 C 289.53 321.76 284.16 326.24 277.78 328.32 C 275.48 327.86 273.41 326.62 271.12 326.07 C 268.38 325.19 265.19 325.09 263.04 322.94 C 258.78 319.06 255.44 314.27 252.71 309.22 Z" />
</g>
<g id="#90897dff">
<path fill="#90897d" opacity="1.00" d=" M 310.66 314.72 C 314.11 312.37 318.83 313.71 322.60 314.54 C 326.65 316.94 330.28 320.03 334.52 322.16 C 333.67 320.37 333.00 318.51 332.63 316.57 C 333.59 317.41 334.58 318.26 335.59 319.07 C 337.69 321.18 341.51 321.98 341.81 325.39 C 332.02 325.86 321.73 325.69 312.52 321.94 C 312.37 319.27 307.66 317.00 310.66 314.72 Z" />
</g>
<g id="#2f3c40ff">
</g>
<g id="#334a43ff">
<path fill="#334a43" opacity="1.00" d=" M 155.80 317.20 C 156.56 318.81 157.18 320.49 157.83 322.16 C 155.71 322.23 153.60 322.41 151.52 322.80 C 150.80 321.63 149.98 320.52 149.16 319.42 C 151.44 318.91 153.69 318.22 155.80 317.20 Z" />
</g>
<g id="#314e51ff">
</g>
<g id="#1a2425ff">
</g>
<g id="#d4b79bff">
<path fill="#d4b79b" opacity="1.00" d=" M 335.59 319.07 C 337.17 319.66 338.79 320.15 340.43 320.54 C 343.80 321.13 347.23 321.21 350.64 321.43 L 350.99 321.49 C 349.86 322.32 348.73 323.15 347.59 323.96 C 347.20 324.11 346.43 324.41 346.04 324.55 C 344.64 324.87 343.24 325.18 341.81 325.39 C 341.51 321.98 337.69 321.18 335.59 319.07 Z" />
</g>
<g id="#1b2325ff">
<path fill="#1b2325" opacity="1.00" d=" M 145.98 319.92 C 148.14 323.17 150.04 326.59 152.07 329.93 C 154.51 334.08 158.50 337.15 160.46 341.63 C 162.49 345.90 165.25 350.51 170.09 351.91 C 177.05 354.04 184.35 355.73 191.68 355.09 C 190.70 353.42 189.73 351.75 188.76 350.09 C 191.90 350.15 195.07 350.22 198.17 350.83 C 199.80 351.74 201.40 352.71 203.07 353.56 C 200.91 353.92 198.79 354.47 196.70 355.13 C 198.00 356.19 199.30 357.30 200.81 358.08 C 209.17 362.13 217.93 365.36 226.97 367.55 C 225.26 369.20 223.62 370.90 222.01 372.63 C 224.14 373.50 226.22 374.48 228.22 375.62 C 230.19 375.93 232.18 376.13 234.17 376.23 C 234.00 377.09 233.66 377.95 233.76 378.86 C 235.92 380.22 238.25 381.27 240.50 382.49 C 230.95 382.10 221.60 379.93 212.43 377.38 C 208.13 376.16 203.67 375.36 199.63 373.36 C 193.61 370.37 187.23 368.19 181.23 365.16 C 177.97 363.12 174.70 361.09 171.34 359.23 C 168.54 356.79 165.51 354.62 162.71 352.19 C 159.97 349.79 158.34 346.48 156.53 343.39 C 153.67 338.36 149.57 334.07 147.38 328.66 C 146.17 325.91 146.31 322.84 145.98 319.92 Z" />
</g>
<g id="#f5f6f3ff">
<path fill="#f5f6f3" opacity="1.00" d=" M 157.83 322.16 C 163.61 321.85 169.51 322.05 175.17 320.62 C 175.23 321.53 175.30 322.43 175.38 323.34 C 173.70 323.98 172.03 324.63 170.34 325.23 C 164.20 325.45 158.05 325.13 151.91 325.51 C 151.82 324.83 151.62 323.48 151.52 322.80 C 153.60 322.41 155.71 322.23 157.83 322.16 Z" />
</g>
<g id="#b7b8b0ff">
<path fill="#b7b8b0" opacity="1.00" d=" M 193.10 323.21 C 201.70 323.21 209.90 319.96 218.52 320.40 C 217.93 320.61 216.75 321.02 216.16 321.23 C 219.53 322.22 223.00 322.79 226.52 322.83 L 226.53 323.31 C 215.80 323.23 205.06 323.58 194.33 323.65 C 194.02 323.54 193.41 323.32 193.10 323.21 Z" />
</g>
<g id="#2a241aff">
<path fill="#2a241a" opacity="1.00" d=" M 347.59 323.96 C 348.73 323.15 349.86 322.32 350.99 321.49 C 352.00 322.47 352.99 323.48 353.97 324.51 C 353.49 325.05 352.52 326.13 352.04 326.67 L 351.06 326.50 C 350.49 326.08 349.35 325.23 348.78 324.81 C 348.48 324.60 347.89 324.18 347.59 323.96 Z" />
</g>
<g id="#0a0200ff">
<path fill="#0a0200" opacity="1.00" d=" M 194.33 323.65 C 205.06 323.58 215.80 323.23 226.53 323.31 C 226.54 323.63 226.56 324.27 226.57 324.59 C 223.75 325.09 220.92 325.64 218.28 326.79 C 214.92 328.99 211.91 332.09 210.65 335.97 C 212.76 342.35 215.68 348.80 220.29 353.77 C 224.31 356.49 227.76 360.63 232.81 361.34 C 237.87 362.54 243.06 363.00 248.25 363.12 C 248.79 363.16 249.86 363.22 250.40 363.25 C 247.92 363.81 245.41 364.26 242.87 364.32 C 229.10 362.96 215.69 359.21 203.07 353.56 C 201.40 352.71 199.80 351.74 198.17 350.83 C 194.38 348.50 190.30 346.70 186.43 344.52 C 180.80 341.02 176.19 336.20 171.25 331.85 C 167.75 329.20 162.39 327.49 158.70 330.69 C 156.14 329.40 153.71 327.77 151.91 325.51 C 158.05 325.13 164.20 325.45 170.34 325.23 C 178.32 324.41 186.37 324.75 194.33 323.65 Z" />
</g>
<g id="#2e4e49ff">
<path fill="#2e4e49" opacity="1.00" d=" M 346.04 324.55 C 346.43 324.41 347.20 324.11 347.59 323.96 C 347.89 324.18 348.48 324.60 348.78 324.81 C 348.53 325.19 348.03 325.95 347.78 326.33 C 349.40 327.04 351.03 327.76 352.70 328.38 C 344.94 337.83 334.74 344.85 324.66 351.59 C 318.29 356.12 311.17 359.40 303.75 361.79 C 301.45 361.51 299.14 361.54 296.85 361.68 C 296.21 360.50 295.58 359.30 294.95 358.12 C 300.47 355.79 305.97 353.42 311.39 350.86 C 320.53 346.67 329.42 341.62 336.77 334.68 C 340.07 331.60 343.69 328.88 346.96 325.77 C 346.73 325.46 346.27 324.86 346.04 324.55 Z" />
</g>
<g id="#0e1a1aff">
<path fill="#0e1a1a" opacity="1.00" d=" M 356.89 324.80 C 357.38 324.88 358.35 325.05 358.84 325.14 C 358.13 330.44 355.20 334.93 352.28 339.25 C 350.07 344.58 346.01 348.83 342.07 352.93 C 341.31 354.20 340.90 355.63 340.39 357.02 C 331.29 363.97 320.82 368.77 310.39 373.34 C 304.72 375.73 298.86 377.66 292.94 379.32 C 279.32 382.98 265.12 383.04 251.13 382.94 C 247.58 382.91 244.03 382.74 240.50 382.49 C 238.25 381.27 235.92 380.22 233.76 378.86 C 233.66 377.95 234.00 377.09 234.17 376.23 C 232.18 376.13 230.19 375.93 228.22 375.62 C 226.22 374.48 224.14 373.50 222.01 372.63 C 223.62 370.90 225.26 369.20 226.97 367.55 C 239.70 371.02 252.98 370.69 266.05 370.60 C 273.46 370.48 280.66 368.54 287.83 366.86 C 293.27 365.61 298.59 363.93 303.75 361.79 C 311.17 359.40 318.29 356.12 324.66 351.59 C 334.74 344.85 344.94 337.83 352.70 328.38 C 353.12 327.97 353.98 327.15 354.40 326.75 C 355.23 326.09 356.06 325.44 356.89 324.80 Z" />
</g>
<g id="#290807ff">
<path fill="#290807" opacity="1.00" d=" M 210.65 335.97 C 211.91 332.09 214.92 328.99 218.28 326.79 C 217.03 329.63 215.30 332.23 214.20 335.13 C 215.17 339.49 218.61 343.02 222.27 345.44 C 222.03 345.90 221.80 346.38 221.58 346.85 C 223.93 348.42 226.19 350.11 228.35 351.95 C 229.28 351.28 230.34 350.81 231.28 350.15 C 231.41 350.49 231.66 351.15 231.78 351.49 C 236.71 356.08 241.77 360.86 248.25 363.12 C 243.06 363.00 237.87 362.54 232.81 361.34 C 227.76 360.63 224.31 356.49 220.29 353.77 C 215.68 348.80 212.76 342.35 210.65 335.97 Z" />
</g>
<g id="#37544dff">
<path fill="#37544d" opacity="1.00" d=" M 196.70 355.13 C 198.79 354.47 200.91 353.92 203.07 353.56 C 215.69 359.21 229.10 362.96 242.87 364.32 C 251.98 365.06 261.17 365.00 270.28 364.29 C 278.63 362.87 286.94 360.92 294.95 358.12 C 295.58 359.30 296.21 360.50 296.85 361.68 C 299.14 361.54 301.45 361.51 303.75 361.79 C 298.59 363.93 293.27 365.61 287.83 366.86 C 280.66 368.54 273.46 370.48 266.05 370.60 C 252.98 370.69 239.70 371.02 226.97 367.55 C 217.93 365.36 209.17 362.13 200.81 358.08 C 199.30 357.30 198.00 356.19 196.70 355.13 Z" />
</g>
<g id="#37150aff">
<path fill="#37150a" opacity="1.00" d=" M 332.54 369.40 C 338.61 366.01 344.10 361.69 350.20 358.36 C 347.56 363.34 342.18 365.75 337.71 368.77 C 332.36 371.35 327.60 375.00 322.15 377.36 C 314.05 380.87 306.48 385.63 297.89 387.94 C 282.41 392.72 265.98 392.43 249.95 392.40 C 239.40 392.82 228.96 391.05 218.50 390.03 C 218.22 389.06 217.95 388.09 217.67 387.13 C 218.04 386.82 218.78 386.21 219.15 385.90 C 230.84 389.12 242.97 389.73 255.01 390.17 C 262.65 389.07 270.40 390.00 278.02 388.72 C 297.38 386.58 315.85 379.24 332.54 369.40 Z" />
</g>
<g id="#657f80ff">
<path fill="#657f80" opacity="1.00" d=" M 179.24 365.11 C 179.74 365.12 180.73 365.15 181.23 365.16 C 187.23 368.19 193.61 370.37 199.63 373.36 C 203.67 375.36 208.13 376.16 212.43 377.38 C 221.60 379.93 230.95 382.10 240.50 382.49 C 244.03 382.74 247.58 382.91 251.13 382.94 C 250.81 383.41 250.17 384.36 249.85 384.83 C 225.51 384.88 201.49 378.10 179.92 367.04 C 179.75 366.56 179.41 365.59 179.24 365.11 Z" />
</g>
<g id="#2f373cff">
</g>
<g id="#54656eff">
</g>
</svg>
